<?xml version="1.0" encoding="UTF-8"?>
<svg width="47px" height="31px" viewBox="0 0 47 31" version="1.1" xmlns="http://www.w3.org/2000/svg" xmlns:xlink="http://www.w3.org/1999/xlink">
    <!-- Generator: Sketch 48 (47235) - http://www.bohemiancoding.com/sketch -->
    <title>Page 1</title>
    <desc>Created with Sketch.</desc>
    <defs>
        <polygon id="path-1" points="0 0.0001 47.007 0.0001 47.007 30.7237 0 30.7237"></polygon>
    </defs>
    <g id="Page-1" stroke="none" stroke-width="1" fill="none" fill-rule="evenodd">
        <g>
            <mask id="mask-2" fill="white">
                <use xlink:href="#path-1"></use>
            </mask>
            <g id="Clip-2"></g>
            <path d="M35.464,7.0117 C35.098,7.0117 34.785,7.0117 34.419,7.0647 C31.651,2.6767 26.951,-0.0003 21.832,-0.0003 C13.998,-0.0003 7.521,6.2087 6.894,14.0767 C2.977,14.7197 0,18.1987 0,22.3737 C0,26.9767 3.656,30.7237 8.148,30.7237 L35.464,30.7237 C41.836,30.7237 47.007,25.4247 47.007,18.8937 C47.007,12.3107 41.836,7.0117 35.464,7.0117 M35.464,28.0477 L8.148,28.0477 C5.119,28.0477 2.612,25.5317 2.612,22.3737 C2.612,19.2157 5.066,16.6997 8.148,16.6997 L9.454,16.6997 L9.454,15.3617 C9.454,8.4037 14.99,2.6767 21.832,2.6767 C26.272,2.6767 30.398,5.1377 32.591,9.1527 L33.061,9.9557 L33.949,9.7947 C34.524,9.6877 34.994,9.6347 35.464,9.6347 C40.374,9.6347 44.395,13.7557 44.395,18.7867 C44.395,23.8187 40.374,28.0477 35.464,28.0477" id="Fill-1" fill="#FFFFFF" mask="url(#mask-2)"></path>
        </g>
    </g>
</svg>