<?xml version="1.0" encoding="UTF-8"?>
<svg width="52px" height="39px" viewBox="0 0 52 39" version="1.1" xmlns="http://www.w3.org/2000/svg" xmlns:xlink="http://www.w3.org/1999/xlink">
    <!-- Generator: Sketch 48 (47235) - http://www.bohemiancoding.com/sketch -->
    <title>Page 1</title>
    <desc>Created with Sketch.</desc>
    <defs>
        <polygon id="path-1" points="0 0.015 51.12175 0.015 51.12175 12.7564 0 12.7564"></polygon>
    </defs>
    <g id="Page-1" stroke="none" stroke-width="1" fill="none" fill-rule="evenodd">
        <g transform="translate(0.000000, -1.000000)">
            <g id="Group-3" transform="translate(0.000000, 0.985500)">
                <mask id="mask-2" fill="white">
                    <use xlink:href="#path-1"></use>
                </mask>
                <g id="Clip-2"></g>
                <path d="M50.7205,10.4189 C36.8155,-3.4541 14.3055,-3.4541 0.4005,10.4189 C-0.1335,10.9539 -0.1335,11.8209 0.4005,12.3559 C0.9355,12.8899 1.8025,12.8899 2.3375,12.3559 C15.1725,-0.4471 35.9485,-0.4471 48.7845,12.3559 C49.3185,12.8899 50.1855,12.8899 50.7205,12.3559 C51.2555,11.8209 51.2555,10.9539 50.7205,10.4189" id="Fill-1" fill="#FFFFFF" mask="url(#mask-2)"></path>
            </g>
            <path d="M25.5607,11.2472 C18.8427,11.2292 12.3967,13.9002 7.6607,18.6642 C7.1257,19.1992 7.1257,20.0662 7.6607,20.6012 C8.1957,21.1352 9.0627,21.1352 9.5967,20.6012 C18.4147,11.7822 32.7117,11.7822 41.5307,20.6002 L41.5307,20.6012 C42.0657,21.1352 42.9327,21.1352 43.4677,20.6012 C44.0027,20.0662 44.0027,19.1992 43.4677,18.6642 C38.7297,13.8982 32.2807,11.2272 25.5607,11.2472" id="Fill-4" fill="#FFFFFF"></path>
            <path d="M14.9138,25.9176 C14.3788,26.4526 14.3788,27.3186 14.9138,27.8536 C15.4488,28.3886 16.3158,28.3886 16.8498,27.8536 C21.6598,23.0426 29.4578,23.0416 34.2688,27.8516 C34.2688,27.8526 34.2698,27.8536 34.2708,27.8536 C34.8058,28.3886 35.6728,28.3886 36.2078,27.8536 C36.7428,27.3186 36.7428,26.4526 36.2078,25.9176 C30.3298,20.0376 20.7988,20.0346 14.9188,25.9126 C14.9168,25.9146 14.9158,25.9156 14.9138,25.9176" id="Fill-6" fill="#FFFFFF"></path>
            <path d="M25.5607,33.1432 C23.6717,33.1462 22.1417,34.6812 22.1457,36.5702 C22.1487,38.4602 23.6837,39.9892 25.5727,39.9852 C27.4627,39.9822 28.9917,38.4482 28.9877,36.5582 C28.9867,35.6512 28.6247,34.7822 27.9827,34.1422 C27.3397,33.5002 26.4687,33.1412 25.5607,33.1432" id="Fill-8" fill="#FFFFFF"></path>
        </g>
    </g>
</svg>