<?xml version="1.0" encoding="UTF-8"?>
<svg width="39px" height="39px" viewBox="0 0 39 39" version="1.1" xmlns="http://www.w3.org/2000/svg" xmlns:xlink="http://www.w3.org/1999/xlink">
    <!-- Generator: Sketch 48 (47235) - http://www.bohemiancoding.com/sketch -->
    <title>Page 1</title>
    <desc>Created with Sketch.</desc>
    <defs>
        <polygon id="path-1" points="0 0.00133333333 38.899 0.00133333333 38.899 38.901 0 38.901"></polygon>
    </defs>
    <g id="Page-1" stroke="none" stroke-width="1" fill="none" fill-rule="evenodd">
        <g>
            <mask id="mask-2" fill="white">
                <use xlink:href="#path-1"></use>
            </mask>
            <g id="Clip-2"></g>
            <path d="M21.2156667,0.001 C20.739,0.0443333333 20.3756667,0.447666667 20.3756667,0.927666667 L20.3756667,17.5976667 C20.3756667,18.111 20.7923333,18.5243333 21.3023333,18.5243333 L37.9723333,18.5243333 C38.4856667,18.5243333 38.899,18.111 38.899,17.5976667 C38.899,7.891 31.009,0.001 21.3023333,0.001 C21.2723333,0.001 21.2456667,0.001 21.2156667,0.001 Z M22.229,1.941 C30.1823333,2.411 36.4923333,8.71766667 36.9623333,16.671 L22.229,16.671 L22.229,1.941 Z M17.599,3.70433333 C7.889,3.70433333 -0.001,11.5943333 -0.001,21.3043333 C-0.001,31.011 7.889,38.901 17.599,38.901 C27.3056667,38.901 35.1956667,31.011 35.1956667,21.3043333 C35.1956667,20.791 34.7823333,20.3776667 34.269,20.3776667 L18.5223333,20.3776667 L18.5223333,4.631 C18.5223333,4.121 18.109,3.70433333 17.599,3.70433333 Z M16.6723333,5.64433333 L16.6723333,21.3043333 C16.6723333,21.8143333 17.0856667,22.231 17.599,22.231 L33.2556667,22.231 C32.769,30.4943333 25.9856667,37.0476667 17.599,37.0476667 C8.89233333,37.0476667 1.85233333,30.011 1.85233333,21.3043333 C1.85233333,12.9143333 8.40566667,6.13433333 16.6723333,5.64433333 Z" id="Fill-1" fill="#FEFEFE" mask="url(#mask-2)"></path>
        </g>
    </g>
</svg>