<?xml version="1.0" encoding="UTF-8"?>
<svg width="39px" height="33px" viewBox="0 0 39 33" version="1.1" xmlns="http://www.w3.org/2000/svg" xmlns:xlink="http://www.w3.org/1999/xlink">
    <!-- Generator: Sketch 48 (47235) - http://www.bohemiancoding.com/sketch -->
    <title>Page 1</title>
    <desc>Created with Sketch.</desc>
    <defs>
        <polygon id="path-1" points="0.5451 0.848 16.254 0.848 16.254 10.0732 0.5451 10.0732"></polygon>
    </defs>
    <g id="Page-1" stroke="none" stroke-width="1" fill="none" fill-rule="evenodd">
        <g transform="translate(0.000000, -1.000000)">
            <polygon id="Fill-1" fill="#FFFFFF" points="13.4622 2.9114 13.4622 16.0054 0.0002 16.0054 0.0002 18.7274 13.4622 18.7274 13.4622 32.7784 16.1842 32.7784 16.1842 18.7274 29.7922 18.7274 29.7922 16.0054 16.1842 16.0054 16.1842 2.9114"></polygon>
            <g id="Group-7" transform="translate(22.000000, 0.152300)">
                <path d="M5.7211,30.6445 C5.7211,29.6995 5.3201,28.8975 4.3621,28.3795 L2.1761,27.2155 C1.4771,26.8525 1.1791,26.4135 1.1791,25.7795 C1.1791,24.7185 2.0071,24.0585 3.0681,24.0585 C4.2071,24.0585 5.0611,24.6925 5.0611,25.8565 L5.5791,25.8565 C5.5791,24.4595 4.5561,23.5405 3.0681,23.5405 C1.6451,23.5405 0.6491,24.4595 0.6491,25.7405 C0.6491,26.5815 1.1151,27.2805 1.8131,27.6425 C2.6161,28.0565 3.3141,28.4185 4.1171,28.8715 C4.8801,29.2985 5.1901,29.8295 5.1901,30.6185 C5.1901,31.7695 4.3241,32.4565 3.0681,32.4565 C1.8391,32.4565 1.0761,31.7835 1.0761,30.6445 L0.5451,30.6445 C0.5451,32.0025 1.5031,32.9995 3.0811,32.9995 C4.5441,32.9995 5.7211,32.0545 5.7211,30.6445 Z M15.8651,23.6575 L15.2961,23.6575 L13.5751,32.3265 L11.5181,23.6575 L10.9871,23.6575 L8.9171,32.3265 L7.2091,23.6575 L6.6401,23.6575 L8.5551,32.8705 L9.2921,32.8705 L11.2591,24.8215 L13.2001,32.8705 L13.9371,32.8705 L15.8651,23.6575 Z" id="Fill-2" fill="#FFFFFF"></path>
                <g id="Group-6">
                    <mask id="mask-2" fill="white">
                        <use xlink:href="#path-1"></use>
                    </mask>
                    <g id="Clip-5"></g>
                    <path d="M5.7341,10.0732 L5.7341,0.8472 L5.2031,0.8472 L5.2031,4.9362 L1.0761,4.9362 L1.0761,0.8472 L0.5451,0.8472 L0.5451,10.0732 L1.0761,10.0732 L1.0761,5.4532 L5.2031,5.4532 L5.2031,10.0732 L5.7341,10.0732 Z M16.2541,0.8602 L15.6841,0.8602 L13.9631,9.5302 L11.9061,0.8602 L11.3761,0.8602 L9.3051,9.5302 L7.5971,0.8602 L7.0281,0.8602 L8.9431,10.0732 L9.6811,10.0732 L11.6471,2.0252 L13.5881,10.0732 L14.3261,10.0732 L16.2541,0.8602 Z" id="Fill-4" fill="#FFFFFF" mask="url(#mask-2)"></path>
                </g>
            </g>
        </g>
    </g>
</svg>