<?xml version="1.0" encoding="UTF-8"?>
<svg width="429px" height="17px" viewBox="0 0 429 17" version="1.1" xmlns="http://www.w3.org/2000/svg" xmlns:xlink="http://www.w3.org/1999/xlink">
    <!-- Generator: Sketch 48 (47235) - http://www.bohemiancoding.com/sketch -->
    <title>Fill-93</title>
    <desc>Created with Sketch.</desc>
    <defs></defs>
    <g id="Page-1" stroke="none" stroke-width="1" fill="none" fill-rule="evenodd">
        <path d="M9.7332,0.8499 L8.7582,0.8499 L5.2282,9.6869 L1.6972,0.8499 L0.7232,0.8499 L4.7952,10.7489 L4.7952,16.2929 L5.6832,16.2929 L5.6832,10.7489 L9.7332,0.8499 Z M20.0652,12.5679 L20.0652,4.5969 C20.0652,3.2109 19.1552,0.6979 15.8842,0.6979 C12.5702,0.6979 11.6822,3.2109 11.6822,4.5749 L11.6822,12.5459 C11.6822,13.9759 12.5492,16.4879 15.7982,16.4879 C19.1332,16.4879 20.0652,13.9759 20.0652,12.5679 Z M19.1772,12.5459 C19.1772,15.0799 16.9242,15.6219 15.8632,15.6219 C14.8012,15.6219 12.5702,15.1019 12.5702,12.5459 L12.5702,4.6189 C12.5702,2.0629 14.8232,1.5649 15.8842,1.5649 C16.9462,1.5649 19.1772,2.0629 19.1772,4.6189 L19.1772,12.5459 Z M31.3492,12.5679 L31.3492,0.8499 L30.4612,0.8499 L30.4612,12.5459 C30.4612,14.9939 28.2732,15.6219 27.1042,15.6219 C25.9772,15.6219 23.8552,14.9939 23.8552,12.5459 L23.8552,0.8499 L22.9672,0.8499 L22.9672,12.5459 C22.9672,13.9759 23.8332,16.4879 27.0822,16.4879 C30.4182,16.4879 31.3492,13.9759 31.3492,12.5679 Z M42.8282,16.2929 L39.7312,9.3839 C42.3092,8.8209 42.8722,6.6329 42.8722,5.4849 L42.8722,4.7049 C42.8722,3.4489 42.2002,0.8499 38.8862,0.8499 L34.4682,0.8499 L34.4682,16.2929 L35.3562,16.2929 L35.3562,9.4269 L38.7782,9.4269 L41.7892,16.2929 L42.8282,16.2929 Z M41.9842,5.4639 C41.9842,7.9979 40.0132,8.5609 38.9302,8.5609 L35.3562,8.5609 L35.3562,1.7159 L38.8862,1.7159 C39.9692,1.7159 41.9842,2.1929 41.9842,4.7699 L41.9842,5.4639 Z M57.5352,1.7379 L57.5352,0.8499 L50.2142,0.8499 L50.2142,1.7159 L56.5822,1.7159 L53.0512,7.4349 L53.0512,8.3009 L53.6582,8.3009 C54.7192,8.3009 56.9932,8.6909 56.9932,11.2899 L56.9932,12.4599 C56.9932,15.1239 54.7192,15.6219 53.6582,15.6219 C52.5972,15.6219 50.3442,15.1239 50.3442,12.5249 L49.4782,12.5249 C49.4782,14.1489 50.4312,16.4879 53.7442,16.4879 C56.9932,16.4879 57.8602,13.7809 57.8602,12.4599 L57.8602,11.2469 C57.8602,8.7339 55.9102,7.5649 53.9392,7.4559 L57.5352,1.7379 Z M68.6462,12.6109 L68.6462,10.7269 C68.6462,9.4269 67.7802,6.7849 64.5312,6.7849 C63.2102,6.7849 62.0402,7.1749 61.1952,8.2579 L61.1952,4.6619 C61.1952,2.1929 63.3832,1.5649 64.4442,1.5649 C65.4842,1.5649 67.5422,2.1059 67.5422,4.4239 L68.4302,4.4239 C68.4302,3.2329 67.6282,0.6979 64.5312,0.6979 C61.2172,0.6979 60.3072,3.3189 60.3072,4.6189 L60.3072,12.5899 C60.3072,13.9969 61.1952,16.4879 64.4442,16.4879 C67.7582,16.4879 68.6462,13.8679 68.6462,12.6109 Z M67.7582,12.5459 C67.7582,15.0589 65.5052,15.6219 64.4442,15.6219 C63.3832,15.6219 61.1952,15.0589 61.1952,12.5459 L61.1952,10.7489 C61.1952,8.0839 63.3832,7.6509 64.4442,7.6509 C65.5052,7.6509 67.7802,8.0839 67.7582,10.7489 L67.7582,12.5459 Z M79.2592,12.5679 L79.2592,4.5969 C79.2592,3.2109 78.5662,0.6979 75.2952,0.6979 C71.9822,0.6979 71.3102,3.2109 71.3102,4.5749 L71.3102,12.5459 C71.3102,13.9759 71.9602,16.4879 75.2092,16.4879 C78.5442,16.4879 79.2592,13.9759 79.2592,12.5679 Z M78.3712,12.5459 C78.3712,15.0799 76.3352,15.6219 75.2742,15.6219 C74.2122,15.6219 72.1982,15.1019 72.1982,12.5459 L72.1982,4.6189 C72.1982,2.0629 74.2342,1.5649 75.2952,1.5649 C76.3572,1.5649 78.3712,2.0629 78.3712,4.6189 L78.3712,12.5459 Z M87.9232,6.0699 L87.9232,3.4919 C87.9232,1.8249 86.8402,0.7419 85.1072,0.7419 C83.4182,0.7419 82.2912,1.8459 82.2912,3.4919 L82.2912,6.0699 C82.2912,7.7809 83.3742,8.8209 85.1072,8.8209 C86.8182,8.8209 87.9232,7.7379 87.9232,6.0699 Z M87.1432,6.0699 C87.1432,7.3479 86.3852,8.0839 85.1072,8.0839 C83.4182,8.0839 83.0492,6.9799 83.0492,6.0699 L83.0492,3.4919 C83.0492,2.2359 83.8292,1.4999 85.1072,1.4999 C86.7972,1.4999 87.1432,2.6039 87.1432,3.4919 L87.1432,6.0699 Z M103.5392,12.5679 C103.5392,10.9869 102.8682,9.6439 101.2652,8.7769 L97.6042,6.8279 C96.4352,6.2219 95.9372,5.4849 95.9372,4.4239 C95.9372,2.6479 97.3232,1.5429 99.0992,1.5429 C101.0052,1.5429 102.4342,2.6039 102.4342,4.5539 L103.3012,4.5539 C103.3012,2.2149 101.5902,0.6769 99.0992,0.6769 C96.7162,0.6769 95.0492,2.2149 95.0492,4.3589 C95.0492,5.7669 95.8282,6.9359 96.9982,7.5429 C98.3412,8.2359 99.5102,8.8419 100.8532,9.6009 C102.1312,10.3149 102.6512,11.2029 102.6512,12.5249 C102.6512,14.4519 101.2002,15.5999 99.0992,15.5999 C97.0412,15.5999 95.7632,14.4739 95.7632,12.5679 L94.8752,12.5679 C94.8752,14.8419 96.4782,16.5099 99.1212,16.5099 C101.5682,16.5099 103.5392,14.9289 103.5392,12.5679 Z M114.4122,12.5679 L114.4122,4.5969 C114.4122,3.2109 113.5022,0.6979 110.2322,0.6979 C106.9182,0.6979 106.0302,3.2109 106.0302,4.5749 L106.0302,12.5459 C106.0302,13.9759 106.8962,16.4879 110.1452,16.4879 C113.4812,16.4879 114.4122,13.9759 114.4122,12.5679 Z M113.5242,12.5459 C113.5242,15.0799 111.2712,15.6219 110.2102,15.6219 C109.1492,15.6219 106.9182,15.1019 106.9182,12.5459 L106.9182,4.6189 C106.9182,2.0629 109.1702,1.5649 110.2322,1.5649 C111.2932,1.5649 113.5242,2.0629 113.5242,4.6189 L113.5242,12.5459 Z M125.4802,16.2929 L125.4802,15.4049 L118.4192,15.4049 L118.4192,0.8499 L117.5312,0.8499 L117.5312,16.2929 L125.4802,16.2929 Z M135.5732,12.5679 L135.5732,0.8499 L134.6852,0.8499 L134.6852,12.5459 C134.6852,14.9939 132.4982,15.6219 131.3282,15.6219 C130.2022,15.6219 128.0792,14.9939 128.0792,12.5459 L128.0792,0.8499 L127.1912,0.8499 L127.1912,12.5459 C127.1912,13.9759 128.0572,16.4879 131.3062,16.4879 C134.6422,16.4879 135.5732,13.9759 135.5732,12.5679 Z M146.3602,1.7159 L146.3602,0.8499 L137.5222,0.8499 L137.5222,1.7159 L141.5082,1.7159 L141.5082,16.2929 L142.3962,16.2929 L142.3962,1.7159 L146.3602,1.7159 Z M148.5262,16.2929 L149.4142,16.2929 L149.4142,0.8499 L148.5262,0.8499 L148.5262,16.2929 Z M160.9152,12.5679 L160.9152,4.5969 C160.9152,3.2109 160.0052,0.6979 156.7342,0.6979 C153.4212,0.6979 152.5322,3.2109 152.5322,4.5749 L152.5322,12.5459 C152.5322,13.9759 153.3992,16.4879 156.6482,16.4879 C159.9832,16.4879 160.9152,13.9759 160.9152,12.5679 Z M160.0272,12.5459 C160.0272,15.0799 157.7742,15.6219 156.7132,15.6219 C155.6522,15.6219 153.4212,15.1019 153.4212,12.5459 L153.4212,4.6189 C153.4212,2.0629 155.6732,1.5649 156.7342,1.5649 C157.7962,1.5649 160.0272,2.0629 160.0272,4.6189 L160.0272,12.5459 Z M172.5242,16.2929 L172.5242,0.8499 L171.6362,0.8499 L171.6362,15.4269 L165.4412,0.8499 L164.0342,0.8499 L164.0342,16.2929 L164.9222,16.2929 L164.9222,1.8899 L171.0512,16.2929 L172.5242,16.2929 Z M183.8952,12.5679 C183.8952,10.9869 183.2242,9.6439 181.6212,8.7769 L177.9612,6.8279 C176.7912,6.2219 176.2932,5.4849 176.2932,4.4239 C176.2932,2.6479 177.6792,1.5429 179.4552,1.5429 C181.3612,1.5429 182.7912,2.6039 182.7912,4.5539 L183.6572,4.5539 C183.6572,2.2149 181.9462,0.6769 179.4552,0.6769 C177.0732,0.6769 175.4052,2.2149 175.4052,4.3589 C175.4052,5.7669 176.1852,6.9359 177.3542,7.5429 C178.6972,8.2359 179.8672,8.8419 181.2102,9.6009 C182.4882,10.3149 183.0072,11.2029 183.0072,12.5249 C183.0072,14.4519 181.5562,15.5999 179.4552,15.5999 C177.3972,15.5999 176.1202,14.4739 176.1202,12.5679 L175.2312,12.5679 C175.2312,14.8419 176.8342,16.5099 179.4772,16.5099 C181.9242,16.5099 183.8952,14.9289 183.8952,12.5679 Z M198.9052,1.7159 L198.9052,0.8499 L190.9342,0.8499 L190.9342,16.2929 L191.8222,16.2929 L191.8222,8.5609 L198.3642,8.5609 L198.3642,7.6939 L191.8222,7.6939 L191.8222,1.7159 L198.9052,1.7159 Z M209.5402,12.5679 L209.5402,4.5969 C209.5402,3.2109 208.6302,0.6979 205.3602,0.6979 C202.0462,0.6979 201.1582,3.2109 201.1582,4.5749 L201.1582,12.5459 C201.1582,13.9759 202.0242,16.4879 205.2732,16.4879 C208.6092,16.4879 209.5402,13.9759 209.5402,12.5679 Z M208.6522,12.5459 C208.6522,15.0799 206.3992,15.6219 205.3382,15.6219 C204.2772,15.6219 202.0462,15.1019 202.0462,12.5459 L202.0462,4.6189 C202.0462,2.0629 204.2982,1.5649 205.3602,1.5649 C206.4212,1.5649 208.6522,2.0629 208.6522,4.6189 L208.6522,12.5459 Z M221.0192,16.2929 L217.9222,9.3839 C220.5002,8.8209 221.0632,6.6329 221.0632,5.4849 L221.0632,4.7049 C221.0632,3.4489 220.3912,0.8499 217.0772,0.8499 L212.6592,0.8499 L212.6592,16.2929 L213.5472,16.2929 L213.5472,9.4269 L216.9692,9.4269 L219.9802,16.2929 L221.0192,16.2929 Z M220.1752,5.4639 C220.1752,7.9979 218.2042,8.5609 217.1212,8.5609 L213.5472,8.5609 L213.5472,1.7159 L217.0772,1.7159 C218.1602,1.7159 220.1752,2.1929 220.1752,4.7699 L220.1752,5.4639 Z M228.1232,16.2929 L229.0112,16.2929 L229.0112,0.8499 L228.1232,0.8499 L228.1232,16.2929 Z M240.8382,16.2929 L240.8382,0.8499 L239.9502,0.8499 L239.9502,15.4269 L233.7552,0.8499 L232.3472,0.8499 L232.3472,16.2929 L233.2352,16.2929 L233.2352,1.8899 L239.3652,16.2929 L240.8382,16.2929 Z M252.5552,12.3299 L252.5552,4.7049 C252.5552,3.4489 251.8842,0.8279 248.5702,0.8279 L244.1732,0.8279 L244.1732,16.2929 L248.6572,16.2929 C251.9062,16.2929 252.5552,13.6509 252.5552,12.3299 Z M251.6672,12.3079 C251.6672,14.8639 249.7182,15.4269 248.6132,15.4269 L245.0612,15.4269 L245.0612,1.6949 L248.5702,1.6949 C249.6532,1.6949 251.6672,2.1279 251.6672,4.7699 L251.6672,12.3079 Z M263.8402,12.5679 L263.8402,0.8499 L262.9522,0.8499 L262.9522,12.5459 C262.9522,14.9939 260.7642,15.6219 259.5952,15.6219 C258.4682,15.6219 256.3462,14.9939 256.3462,12.5459 L256.3462,0.8499 L255.4582,0.8499 L255.4582,12.5459 C255.4582,13.9759 256.3242,16.4879 259.5732,16.4879 C262.9092,16.4879 263.8402,13.9759 263.8402,12.5679 Z M274.9942,12.5679 C274.9942,10.9869 274.3232,9.6439 272.7202,8.7769 L269.0602,6.8279 C267.8902,6.2219 267.3922,5.4849 267.3922,4.4239 C267.3922,2.6479 268.7782,1.5429 270.5542,1.5429 C272.4602,1.5429 273.8902,2.6039 273.8902,4.5539 L274.7562,4.5539 C274.7562,2.2149 273.0452,0.6769 270.5542,0.6769 C268.1722,0.6769 266.5042,2.2149 266.5042,4.3589 C266.5042,5.7669 267.2842,6.9359 268.4532,7.5429 C269.7962,8.2359 270.9662,8.8419 272.3092,9.6009 C273.5872,10.3149 274.1062,11.2029 274.1062,12.5249 C274.1062,14.4519 272.6552,15.5999 270.5542,15.5999 C268.4962,15.5999 267.2192,14.4739 267.2192,12.5679 L266.3312,12.5679 C266.3312,14.8419 267.9332,16.5099 270.5762,16.5099 C273.0232,16.5099 274.9942,14.9289 274.9942,12.5679 Z M285.3692,1.7159 L285.3692,0.8499 L276.5322,0.8499 L276.5322,1.7159 L280.5172,1.7159 L280.5172,16.2929 L281.4062,16.2929 L281.4062,1.7159 L285.3692,1.7159 Z M295.8962,16.2929 L292.7992,9.3839 C295.3762,8.8209 295.9392,6.6329 295.9392,5.4849 L295.9392,4.7049 C295.9392,3.4489 295.2682,0.8499 291.9542,0.8499 L287.5352,0.8499 L287.5352,16.2929 L288.4232,16.2929 L288.4232,9.4269 L291.8462,9.4269 L294.8562,16.2929 L295.8962,16.2929 Z M295.0512,5.4639 C295.0512,7.9979 293.0802,8.5609 291.9972,8.5609 L288.4232,8.5609 L288.4232,1.7159 L291.9542,1.7159 C293.0372,1.7159 295.0512,2.1929 295.0512,4.7699 L295.0512,5.4639 Z M298.6682,16.2929 L299.5562,16.2929 L299.5562,0.8499 L298.6682,0.8499 L298.6682,16.2929 Z M312.0542,16.2929 L307.9392,0.8499 L305.7292,0.8499 L301.7012,16.2929 L302.5452,16.2929 L303.7582,11.7019 L309.9752,11.7019 L311.1662,16.2929 L312.0542,16.2929 Z M309.7362,10.8349 L303.9752,10.8349 L306.3572,1.6949 L307.3542,1.6949 L309.7362,10.8349 Z M322.1472,16.2929 L322.1472,15.4049 L315.0862,15.4049 L315.0862,0.8499 L314.1982,0.8499 L314.1982,16.2929 L322.1472,16.2929 Z M336.7892,12.3299 L336.7892,4.7049 C336.7892,3.4489 336.1172,0.8279 332.8032,0.8279 L328.4072,0.8279 L328.4072,16.2929 L332.8902,16.2929 C336.1392,16.2929 336.7892,13.6509 336.7892,12.3299 Z M335.9012,12.3079 C335.9012,14.8639 333.9512,15.4269 332.8472,15.4269 L329.2952,15.4269 L329.2952,1.6949 L332.8032,1.6949 C333.8862,1.6949 335.9012,2.1279 335.9012,4.7699 L335.9012,12.3079 Z M339.9082,16.2929 L340.7962,16.2929 L340.7962,0.8499 L339.9082,0.8499 L339.9082,16.2929 Z M352.2972,12.5679 L352.2972,8.1929 L348.0302,8.1929 L348.0302,9.0589 L351.4092,9.0589 L351.4092,12.5459 C351.4092,15.0799 349.1562,15.6219 348.0952,15.6219 C347.0342,15.6219 344.8032,15.0799 344.8032,12.5459 L344.8032,4.6189 C344.8032,2.0849 347.0552,1.5649 348.1172,1.5649 C349.1782,1.5649 351.3872,2.0849 351.3872,4.5969 L352.2542,4.5969 C352.2542,3.2329 351.3662,0.6979 348.1172,0.6979 C344.8032,0.6979 343.9152,3.2109 343.9152,4.5749 L343.9152,12.5459 C343.9152,13.9759 344.7812,16.4879 348.0302,16.4879 C351.3662,16.4879 352.2972,13.9759 352.2972,12.5679 Z M355.4162,16.2929 L356.3042,16.2929 L356.3042,0.8499 L355.4162,0.8499 L355.4162,16.2929 Z M367.3072,1.7159 L367.3072,0.8499 L358.4702,0.8499 L358.4702,1.7159 L362.4552,1.7159 L362.4552,16.2929 L363.3432,16.2929 L363.3432,1.7159 L367.3072,1.7159 Z M369.4732,16.2929 L370.3612,16.2929 L370.3612,0.8499 L369.4732,0.8499 L369.4732,16.2929 Z M380.8872,16.2929 L380.8872,15.4049 L373.5232,15.4049 L380.5412,1.7379 L380.5412,0.8499 L372.9602,0.8499 L372.9602,1.7159 L379.6312,1.7159 L372.6132,15.3399 L372.6132,16.2929 L380.8872,16.2929 Z M393.1682,16.2929 L389.0532,0.8499 L386.8432,0.8499 L382.8152,16.2929 L383.6602,16.2929 L384.8722,11.7019 L391.0892,11.7019 L392.2802,16.2929 L393.1682,16.2929 Z M390.8512,10.8349 L385.0892,10.8349 L387.4722,1.6949 L388.4682,1.6949 L390.8512,10.8349 Z M402.3302,1.7159 L402.3302,0.8499 L393.4932,0.8499 L393.4932,1.7159 L397.4782,1.7159 L397.4782,16.2929 L398.3662,16.2929 L398.3662,1.7159 L402.3302,1.7159 Z M404.4962,16.2929 L405.3842,16.2929 L405.3842,0.8499 L404.4962,0.8499 L404.4962,16.2929 Z M416.8852,12.5679 L416.8852,4.5969 C416.8852,3.2109 415.9762,0.6979 412.7052,0.6979 C409.3912,0.6979 408.5032,3.2109 408.5032,4.5749 L408.5032,12.5459 C408.5032,13.9759 409.3692,16.4879 412.6182,16.4879 C415.9542,16.4879 416.8852,13.9759 416.8852,12.5679 Z M415.9972,12.5459 C415.9972,15.0799 413.7452,15.6219 412.6832,15.6219 C411.6222,15.6219 409.3912,15.1019 409.3912,12.5459 L409.3912,4.6189 C409.3912,2.0629 411.6442,1.5649 412.7052,1.5649 C413.7662,1.5649 415.9972,2.0629 415.9972,4.6189 L415.9972,12.5459 Z M428.4952,16.2929 L428.4952,0.8499 L427.6072,0.8499 L427.6072,15.4269 L421.4122,0.8499 L420.0042,0.8499 L420.0042,16.2929 L420.8922,16.2929 L420.8922,1.8899 L427.0222,16.2929 L428.4952,16.2929 Z" id="Fill-93" fill="#000000" fill-rule="nonzero"></path>
    </g>
</svg>