<?xml version="1.0" encoding="UTF-8"?>
<svg width="55px" height="26px" viewBox="0 0 55 26" version="1.1" xmlns="http://www.w3.org/2000/svg" xmlns:xlink="http://www.w3.org/1999/xlink">
    <!-- Generator: Sketch 48 (47235) - http://www.bohemiancoding.com/sketch -->
    <title>Page 1</title>
    <desc>Created with Sketch.</desc>
    <defs>
        <polygon id="path-1" points="0.0002 0.557 51.025 0.557 51.025 26 0.0002 26"></polygon>
    </defs>
    <g id="Page-1" stroke="none" stroke-width="1" fill="none" fill-rule="evenodd">
        <g transform="translate(0.000000, -1.000000)">
            <g id="Group-4" transform="translate(0.000000, 0.442600)">
                <mask id="mask-2" fill="white">
                    <use xlink:href="#path-1"></use>
                </mask>
                <g id="Clip-2"></g>
                <path d="M0.018,11.842 L0.667,11.842 L0.667,0.558 L0.018,0.558 L0.018,11.842 Z M9.561,11.842 L5.779,5.543 L9.292,0.557 L8.517,0.557 L4.07,6.872 L4.07,0.557 L3.421,0.557 L3.421,11.842 L4.07,11.842 L4.07,8.043 L5.399,6.144 L8.754,11.842 L9.561,11.842 Z M17.268,11.842 L17.268,11.209 L12.093,11.209 L12.093,6.176 L16.873,6.176 L16.873,5.543 L12.093,5.543 L12.093,1.191 L17.268,1.191 L17.268,0.557 L11.444,0.557 L11.444,11.842 L17.268,11.842 Z M25.656,11.842 L23.393,6.793 C25.276,6.382 25.688,4.783 25.688,3.944 L25.688,3.375 C25.688,2.457 25.197,0.557 22.776,0.557 L19.547,0.557 L19.547,11.842 L20.196,11.842 L20.196,6.825 L22.697,6.825 L24.897,11.842 L25.656,11.842 Z M25.039,3.928 C25.039,5.78 23.599,6.192 22.807,6.192 L20.196,6.192 L20.196,1.191 L22.776,1.191 C23.567,1.191 25.039,1.539 25.039,3.422 L25.039,3.928 Z M33.807,11.842 L33.807,11.193 L28.647,11.193 L28.647,0.557 L27.998,0.557 L27.998,11.842 L33.807,11.842 Z M42.938,11.842 L39.931,0.557 L38.317,0.557 L35.373,11.842 L35.991,11.842 L36.877,8.486 L41.419,8.486 L42.289,11.842 L42.938,11.842 Z M41.245,7.853 L37.035,7.853 L38.776,1.175 L39.504,1.175 L41.245,7.853 Z M51.025,11.842 L51.025,0.557 L50.376,0.557 L50.376,11.209 L45.85,0.557 L44.821,0.557 L44.821,11.842 L45.47,11.842 L45.47,1.317 L49.949,11.842 L51.025,11.842 Z" id="Fill-1" fill="#1D1D1B" mask="url(#mask-2)"></path>
                <path d="M7.3892,25.8573 L3.6632,19.6893 L7.2462,14.5673 L4.8362,14.5673 L2.0612,18.6583 L2.0612,14.5673 L0.0002,14.5673 L0.0002,25.8573 L2.0612,25.8573 L2.0612,22.0833 L2.4582,21.5123 L4.9472,25.8573 L7.3892,25.8573 Z M15.1272,22.7333 L15.1272,17.6913 C15.1272,16.6283 14.3502,14.4883 11.7342,14.4883 C9.0062,14.4883 8.3242,16.6283 8.3242,17.6753 L8.3242,22.7173 C8.3242,23.7963 9.0702,26.0003 11.7182,26.0003 C14.4132,26.0003 15.1272,23.8113 15.1272,22.7333 Z M13.0502,22.7173 C13.0502,23.7803 12.1462,23.9383 11.7342,23.9383 C11.2902,23.9383 10.3702,23.7803 10.3702,22.7173 L10.3702,17.7073 C10.3702,16.6603 11.2902,16.5173 11.7342,16.5173 C12.1462,16.5173 13.0502,16.6603 13.0502,17.7073 L13.0502,22.7173 Z" id="Fill-3" fill="#1D1D1B" mask="url(#mask-2)"></path>
            </g>
            <polygon id="Fill-5" fill="#25EE32" points="26.6679 15.0297 26.6679 21.4037 23.9099 15.0297 23.8299 15.0297 21.7939 15.0297 21.7779 15.0297 21.7779 21.4037 19.0209 15.0297 16.9039 15.0297 16.9039 26.3187 18.9879 26.3187 18.9879 20.0717 21.6819 26.3187 21.7939 26.3187 23.8299 26.3187 23.8779 26.3187 23.8779 20.0717 26.5719 26.3187 28.7199 26.3187 28.7199 15.0297"></polygon>
            <polygon id="Fill-6" fill="#1D1D1B" points="30.4803 15.0297 30.4803 26.3187 37.0133 26.3187 37.0133 24.2727 32.5263 24.2727 32.5263 21.4037 36.6803 21.4037 36.6803 19.3577 32.5263 19.3577 32.5263 17.0747 37.0133 17.0747 37.0133 15.0297"></polygon>
            <polygon id="Fill-7" fill="#1D1D1B" points="47.1015 15.0297 47.1015 17.0907 49.6225 17.0907 49.6225 26.3187 51.6685 26.3187 51.6685 17.0907 54.2055 17.0907 54.2055 15.0297"></polygon>
            <polygon id="Fill-8" fill="#1D1D1B" points="43.6635 15.0297 40.8885 19.1197 40.8885 15.0297 38.8265 15.0297 38.8265 26.3187 40.8885 26.3187 40.8885 22.5447 41.2845 21.9737 43.7745 26.3187 46.2155 26.3187 42.4895 20.1507 46.0725 15.0297"></polygon>
        </g>
    </g>
</svg>