<?xml version="1.0" encoding="UTF-8"?>
<svg width="140px" height="40px" viewBox="0 0 140 40" version="1.1" xmlns="http://www.w3.org/2000/svg" xmlns:xlink="http://www.w3.org/1999/xlink">
    <!-- Generator: Sketch 48 (47235) - http://www.bohemiancoding.com/sketch -->
    <title>Page 1</title>
    <desc>Created with Sketch.</desc>
    <defs>
        <polygon id="path-1" points="0 0.179660555 8.38527856 0.179660555 8.38527856 7.99984685 0 7.99984685"></polygon>
        <polygon id="path-3" points="0.809 0.591 7.096 0.591 7.096 9.5276 0.809 9.5276"></polygon>
    </defs>
    <g id="Page-1" stroke="none" stroke-width="1" fill="none" fill-rule="evenodd">
        <g transform="translate(0.000000, -1.000000)">
            <g id="Group-3" transform="translate(0.000000, 32.409400)">
                <mask id="mask-2" fill="white">
                    <use xlink:href="#path-1"></use>
                </mask>
                <g id="Clip-2"></g>
                <path d="M7.4719,3.1682 C8.0429,3.6382 8.3479,4.2352 8.3819,4.9582 C8.4169,5.6832 8.1799,6.3532 7.6739,6.9692 C7.1559,7.5992 6.5329,7.9392 5.8049,7.9922 C5.0779,8.0462 4.3989,7.8142 3.7699,7.2962 L4.7909,6.0532 C5.0799,6.2902 5.3729,6.3962 5.6689,6.3702 C5.9649,6.3442 6.2169,6.2062 6.4219,5.9562 C6.6559,5.6732 6.7719,5.3872 6.7739,5.0972 C6.7749,4.8082 6.6619,4.5702 6.4379,4.3862 C6.1359,4.1372 5.7659,4.0972 5.3269,4.2632 C5.1159,4.3372 4.4509,4.6202 3.3359,5.1122 C2.9569,5.2852 2.5419,5.3412 2.0929,5.2782 C1.6439,5.2162 1.2429,5.0382 0.8889,4.7472 C0.3359,4.2932 0.0409,3.7352 0.0039,3.0752 C-0.0341,2.4132 0.1899,1.7882 0.6759,1.1962 C1.1779,0.5862 1.7879,0.2512 2.5059,0.1892 C3.2249,0.1292 3.8909,0.3522 4.5079,0.8592 L3.4699,2.1222 C3.1939,1.8942 2.9139,1.7922 2.6329,1.8132 C2.3519,1.8352 2.1109,1.9672 1.9099,2.2112 C1.7309,2.4302 1.6369,2.6592 1.6309,2.9032 C1.6249,3.1462 1.7249,3.3522 1.9299,3.5212 C2.1619,3.7122 2.4589,3.7302 2.8229,3.5752 C4.0129,3.0592 4.6399,2.7882 4.7019,2.7642 C5.7199,2.3522 6.6429,2.4862 7.4719,3.1682" id="Fill-1" fill="#1D1D1B" mask="url(#mask-2)"></path>
            </g>
            <polygon id="Fill-4" fill="#1D1D1B" points="13.8718 32.3452 10.3218 36.0632 3.8968 29.9282 7.4458 26.2102 8.6098 27.3232 6.1728 29.8762 7.4718 31.1162 9.7288 28.7522 10.8928 29.8642 8.6358 32.2292 10.2688 33.7872 12.7078 31.2342"></polygon>
            <path d="M17.0955,25.896 C17.2905,26.124 17.4535,26.379 17.5865,26.667 C17.7175,26.954 17.8095,27.27 17.8605,27.616 C17.9115,27.961 17.8585,28.327 17.6995,28.709 C17.5415,29.092 17.2735,29.448 16.8955,29.774 C16.5925,30.034 16.2795,30.221 15.9555,30.336 C15.6315,30.451 15.3345,30.499 15.0645,30.477 C14.7935,30.458 14.5325,30.398 14.2775,30.299 C14.0225,30.201 13.8065,30.087 13.6295,29.959 C13.4535,29.832 13.3055,29.698 13.1865,29.559 L10.5965,26.553 C10.4395,26.371 10.3085,26.154 10.2025,25.905 C10.0985,25.655 10.0255,25.364 9.9855,25.03 C9.9455,24.697 10.0065,24.341 10.1705,23.964 C10.3335,23.587 10.6085,23.233 10.9925,22.902 C11.2895,22.647 11.6015,22.465 11.9305,22.357 C12.2605,22.249 12.5645,22.21 12.8425,22.239 C13.1195,22.269 13.3935,22.338 13.6625,22.446 C13.9325,22.555 14.1585,22.678 14.3435,22.815 C14.5285,22.953 14.6845,23.098 14.8155,23.249 L13.5765,24.315 C13.2895,23.981 13.0075,23.824 12.7315,23.841 C12.4555,23.859 12.2235,23.949 12.0345,24.112 C11.9525,24.183 11.8795,24.26 11.8155,24.343 C11.7485,24.427 11.6895,24.534 11.6355,24.663 C11.5815,24.791 11.5705,24.93 11.6005,25.079 C11.6295,25.229 11.7075,25.375 11.8325,25.521 L14.4065,28.508 C14.6455,28.786 14.8955,28.901 15.1585,28.856 C15.4205,28.811 15.6515,28.705 15.8465,28.536 C15.9215,28.471 15.9895,28.394 16.0495,28.304 C16.1095,28.213 16.1585,28.102 16.1985,27.969 C16.2375,27.836 16.2295,27.682 16.1745,27.503 C16.1195,27.325 16.0145,27.145 15.8575,26.962 L17.0955,25.896 Z" id="Fill-6" fill="#1D1D1B"></path>
            <path d="M22.697,21.937 C22.85,22.144 22.974,22.381 23.069,22.648 C23.163,22.914 23.22,23.214 23.239,23.546 C23.259,23.88 23.173,24.228 22.983,24.592 C22.792,24.957 22.493,25.29 22.085,25.592 C21.678,25.895 21.272,26.084 20.868,26.162 C20.465,26.239 20.103,26.219 19.784,26.104 C19.466,25.989 19.192,25.846 18.964,25.68 C18.736,25.512 18.546,25.325 18.391,25.118 L14.569,19.968 L15.872,19.001 L19.694,24.151 C19.913,24.445 20.153,24.58 20.415,24.556 C20.676,24.533 20.911,24.444 21.118,24.29 C21.239,24.201 21.343,24.1 21.43,23.988 C21.518,23.876 21.572,23.718 21.591,23.512 C21.608,23.307 21.542,23.101 21.387,22.894 L17.565,17.745 L18.867,16.778 L22.697,21.937 Z" id="Fill-8" fill="#1D1D1B"></path>
            <path d="M25.6487,15.9121 L25.4747,15.6231 C25.2857,15.3101 25.0717,15.1471 24.8317,15.1371 C24.5917,15.1261 24.3657,15.1851 24.1527,15.3141 L23.1797,15.9001 L24.3327,17.8131 L25.3267,17.2141 C25.8677,16.8881 25.9747,16.4531 25.6487,15.9121 Z M30.4927,19.9841 L28.9337,20.9241 L25.7837,18.8171 L25.1647,19.1911 L26.9357,22.1291 L25.5467,22.9671 L20.9597,15.3591 L23.3407,13.9231 C23.7757,13.6611 24.1947,13.5131 24.5957,13.4791 C24.9987,13.4451 25.3477,13.5071 25.6467,13.6621 C25.9447,13.8171 26.1897,13.9851 26.3807,14.1671 C26.5717,14.3471 26.7307,14.5401 26.8547,14.7471 L27.0547,15.0781 C27.1877,15.2991 27.2947,15.5371 27.3737,15.7891 C27.4537,16.0421 27.4817,16.3531 27.4557,16.7231 C27.4317,17.0931 27.3137,17.4331 27.1037,17.7441 L30.4927,19.9841 Z" id="Fill-10" fill="#1D1D1B"></path>
            <polygon id="Fill-12" fill="#1D1D1B" points="27.3469 11.6289 28.7739 10.8579 32.9929 18.6759 31.5669 19.4469"></polygon>
            <polygon id="Fill-14" fill="#1D1D1B" points="36.096 9.2231 34.276 10.0431 37.259 16.6631 35.791 17.3251 32.808 10.7041 30.999 11.5191 30.332 10.0401 35.43 7.7441"></polygon>
            <polygon id="Fill-16" fill="#1D1D1B" points="42.3401 5.1714 42.1021 11.2924 43.2111 14.3154 41.6891 14.8734 40.5701 11.8274 36.4381 7.3384 38.1011 6.7284 40.5721 9.4754 40.6901 5.7774"></polygon>
            <path d="M51.4221,10.3911 C51.6911,10.3341 51.9171,10.2111 52.1041,10.0231 C52.2891,9.8351 52.3681,9.5791 52.3431,9.2521 C52.1511,9.1491 51.9541,9.0431 51.7531,8.9371 C51.5521,8.8301 51.3361,8.7141 51.1061,8.5891 C50.8761,8.4631 50.6971,8.3681 50.5721,8.3001 C50.1431,8.7141 49.9731,9.1401 50.0661,9.5791 C50.1451,9.9541 50.3131,10.2001 50.5701,10.3151 C50.8291,10.4311 51.1121,10.4561 51.4221,10.3911 M52.9301,4.9081 L51.3311,5.2451 C51.2291,4.7571 50.8871,4.5741 50.3091,4.6961 C49.7321,4.8171 49.4941,5.1231 49.5971,5.6121 C49.6291,5.7661 49.6891,5.8851 49.7761,5.9691 C49.8611,6.0521 49.9951,6.1431 50.1771,6.2411 C52.7621,7.6171 54.3631,8.4771 54.9811,8.8231 L54.2351,10.3071 L53.8841,10.0871 C53.7531,10.6001 53.4901,11.0161 53.0951,11.3381 C52.6991,11.6601 52.2531,11.8721 51.7571,11.9771 C51.0251,12.1321 50.3401,12.0491 49.7021,11.7291 C49.0651,11.4091 48.6521,10.8011 48.4631,9.9061 C48.2771,9.0271 48.5131,8.2251 49.1671,7.4991 C48.5291,7.1331 48.1381,6.6081 47.9931,5.9241 C47.8811,5.3951 47.9231,4.9211 48.1201,4.5011 C48.3161,4.0811 48.5761,3.7651 48.9011,3.5521 C49.2261,3.3391 49.5841,3.1911 49.9741,3.1091 C50.3581,3.0281 50.7421,3.0211 51.1311,3.0881 C51.5191,3.1551 51.8881,3.3421 52.2371,3.6521 C52.5881,3.9591 52.8181,4.3791 52.9301,4.9081" id="Fill-18" fill="#1D1D1B"></path>
            <path d="M64.9314,7.3003 C64.9574,7.5983 64.9414,7.9033 64.8804,8.2123 C64.8204,8.5223 64.7074,8.8333 64.5474,9.1433 C64.3874,9.4533 64.1294,9.7183 63.7774,9.9373 C63.4244,10.1543 62.9994,10.2863 62.5024,10.3293 C62.1054,10.3643 61.7414,10.3333 61.4114,10.2373 C61.0814,10.1403 60.8134,10.0053 60.6064,9.8313 C60.3984,9.6573 60.2204,9.4553 60.0704,9.2263 C59.9214,8.9973 59.8134,8.7793 59.7444,8.5723 C59.6774,8.3653 59.6344,8.1703 59.6194,7.9883 L59.2744,4.0353 C59.2534,3.7953 59.2744,3.5433 59.3334,3.2793 C59.3944,3.0153 59.5044,2.7363 59.6674,2.4423 C59.8304,2.1493 60.0874,1.8963 60.4404,1.6863 C60.7934,1.4763 61.2234,1.3493 61.7294,1.3043 C62.1184,1.2713 62.4774,1.3063 62.8084,1.4103 C63.1394,1.5153 63.4094,1.6613 63.6174,1.8473 C63.8264,2.0343 64.0074,2.2503 64.1614,2.4953 C64.3184,2.7403 64.4294,2.9733 64.4984,3.1923 C64.5684,3.4123 64.6114,3.6203 64.6284,3.8203 L63.0004,3.9613 C62.9614,3.5223 62.8264,3.2293 62.5924,3.0833 C62.3574,2.9363 62.1164,2.8733 61.8684,2.8953 C61.7604,2.9043 61.6554,2.9243 61.5534,2.9543 C61.4524,2.9843 61.3414,3.0353 61.2224,3.1083 C61.1034,3.1813 61.0134,3.2873 60.9494,3.4263 C60.8864,3.5653 60.8634,3.7303 60.8794,3.9213 L61.2214,7.8493 C61.2534,8.2133 61.3894,8.4543 61.6294,8.5713 C61.8694,8.6883 62.1184,8.7353 62.3744,8.7123 C62.4744,8.7033 62.5744,8.6813 62.6754,8.6433 C62.7774,8.6043 62.8814,8.5433 62.9924,8.4583 C63.1004,8.3733 63.1854,8.2433 63.2454,8.0673 C63.3044,7.8903 63.3254,7.6823 63.3034,7.4423 L64.9314,7.3003 Z" id="Fill-20" fill="#1D1D1B"></path>
            <g id="Group-24" transform="translate(65.000000, 0.409400)">
                <mask id="mask-4" fill="white">
                    <use xlink:href="#path-3"></use>
                </mask>
                <g id="Clip-23"></g>
                <polygon id="Fill-22" fill="#1D1D1B" mask="url(#mask-4)" points="7.096 0.5906 4.84 6.2866 4.884 9.5056 3.262 9.5276 3.218 6.2836 0.809 0.6756 2.58 0.6516 4 4.0636 5.338 0.6146"></polygon>
            </g>
            <path d="M77.5061,4.0532 L77.5151,3.9422 C77.5661,3.3532 77.2921,3.0332 76.6961,2.9832 L75.5771,2.8872 L75.4141,4.7882 L76.6071,4.8902 C77.1541,4.9372 77.4541,4.6582 77.5061,4.0532 Z M77.3371,7.7822 L77.3591,7.5342 C77.4131,6.8882 77.1351,6.5382 76.5211,6.4862 L75.2781,6.3802 L75.0951,8.5182 L76.2761,8.6192 C76.9301,8.6752 77.2841,8.3972 77.3371,7.7822 Z M78.9261,7.9442 C78.9101,8.1262 78.8751,8.3152 78.8211,8.5112 C78.7671,8.7062 78.6711,8.9202 78.5341,9.1502 C78.3981,9.3802 78.2331,9.5792 78.0391,9.7462 C77.8451,9.9132 77.5851,10.0462 77.2601,10.1432 C76.9341,10.2402 76.5691,10.2722 76.1621,10.2372 L73.3411,9.9952 L74.0981,1.1452 L76.8581,1.3802 C77.3551,1.4232 77.7751,1.5462 78.1151,1.7512 C78.4561,1.9552 78.6961,2.2032 78.8351,2.4952 C78.9731,2.7872 79.0651,3.0602 79.1101,3.3142 C79.1531,3.5682 79.1651,3.8202 79.1441,4.0682 L79.1311,4.2172 C79.1081,4.4992 79.0011,4.7932 78.8121,5.0982 C78.6231,5.4042 78.3861,5.6352 78.0961,5.7942 C78.3841,6.0192 78.6081,6.3012 78.7621,6.6402 C78.9171,6.9792 78.9801,7.3182 78.9501,7.6572 L78.9261,7.9442 Z" id="Fill-25" fill="#1D1D1B"></path>
            <polygon id="Fill-27" fill="#1D1D1B" points="85.3792 11.52 80.3052 10.7 81.7212 1.93 86.7962 2.749 86.5392 4.339 83.0532 3.776 82.7672 5.549 85.9932 6.07 85.7362 7.66 82.5102 7.138 82.1502 9.368 85.6362 9.931"></polygon>
            <path d="M91.9133,7.0278 L92.0003,6.7018 C92.0953,6.3478 92.0623,6.0818 91.9033,5.9018 C91.7453,5.7208 91.5463,5.5998 91.3043,5.5358 L90.2083,5.2428 L89.6323,7.4008 L90.7533,7.6998 C91.3633,7.8618 91.7513,7.6378 91.9133,7.0278 Z M92.3473,13.3408 L90.5873,12.8718 L89.9163,9.1418 L89.2173,8.9558 L88.3333,12.2698 L86.7663,11.8518 L89.0563,3.2688 L91.7433,3.9858 C92.2333,4.1168 92.6313,4.3158 92.9343,4.5818 C93.2383,4.8478 93.4363,5.1408 93.5313,5.4648 C93.6263,5.7858 93.6763,6.0798 93.6793,6.3418 C93.6813,6.6058 93.6513,6.8538 93.5893,7.0878 L93.4893,7.4618 C93.4233,7.7098 93.3263,7.9518 93.2003,8.1838 C93.0733,8.4178 92.8683,8.6538 92.5853,8.8908 C92.3023,9.1308 91.9753,9.2818 91.6053,9.3468 L92.3473,13.3408 Z" id="Fill-29" fill="#1D1D1B"></path>
            <path d="M99.1839,13.1128 C98.9399,13.8108 98.4839,14.3018 97.8169,14.5838 C97.1499,14.8668 96.4389,14.8758 95.6849,14.6118 C94.9159,14.3428 94.3809,13.8768 94.0799,13.2118 C93.7799,12.5468 93.7639,11.8298 94.0329,11.0598 L95.5529,11.5918 C95.4289,11.9448 95.4299,12.2558 95.5559,12.5248 C95.6829,12.7938 95.8989,12.9808 96.2049,13.0888 C96.5499,13.2098 96.8599,13.2198 97.1319,13.1218 C97.4049,13.0228 97.5889,12.8368 97.6849,12.5618 C97.8139,12.1928 97.7239,11.8318 97.4159,11.4768 C97.2749,11.3028 96.7799,10.7788 95.9319,9.8998 C95.6389,9.6038 95.4449,9.2338 95.3489,8.7908 C95.2519,8.3468 95.2809,7.9098 95.4309,7.4778 C95.6669,6.8018 96.0889,6.3338 96.6969,6.0698 C97.3049,5.8058 97.9689,5.8008 98.6919,6.0538 C99.4379,6.3138 99.9619,6.7718 100.2679,7.4248 C100.5729,8.0778 100.5929,8.7808 100.3299,9.5348 L98.7869,8.9958 C98.9049,8.6578 98.9049,8.3598 98.7879,8.1028 C98.6709,7.8468 98.4629,7.6658 98.1639,7.5618 C97.8979,7.4678 97.6489,7.4608 97.4189,7.5388 C97.1889,7.6168 97.0299,7.7818 96.9419,8.0328 C96.8429,8.3158 96.9279,8.6008 97.1989,8.8878 C98.0949,9.8278 98.5649,10.3228 98.6089,10.3738 C99.3459,11.1868 99.5379,12.0998 99.1839,13.1128" id="Fill-31" fill="#1D1D1B"></path>
            <polygon id="Fill-33" fill="#1D1D1B" points="104.3987 18.0727 99.6887 16.0127 103.2477 7.8737 107.9577 9.9327 107.3127 11.4087 104.0777 9.9937 103.3577 11.6387 106.3527 12.9497 105.7087 14.4247 102.7127 13.1137 101.8077 15.1827 105.0437 16.5977"></polygon>
            <path d="M111.5403,18.9507 C111.3943,19.2117 111.2073,19.4527 110.9823,19.6747 C110.7573,19.8957 110.4903,20.0897 110.1833,20.2547 C109.8743,20.4217 109.5133,20.4937 109.0993,20.4747 C108.6853,20.4567 108.2603,20.3247 107.8253,20.0797 C107.4773,19.8847 107.1943,19.6527 106.9773,19.3877 C106.7593,19.1217 106.6133,18.8587 106.5403,18.5977 C106.4683,18.3377 106.4343,18.0697 106.4403,17.7967 C106.4463,17.5227 106.4793,17.2817 106.5413,17.0727 C106.6023,16.8637 106.6773,16.6797 106.7673,16.5187 L108.7133,13.0617 C108.8313,12.8527 108.9903,12.6557 109.1893,12.4717 C109.3883,12.2877 109.6373,12.1197 109.9373,11.9687 C110.2373,11.8187 110.5923,11.7557 111.0033,11.7807 C111.4133,11.8067 111.8383,11.9447 112.2813,12.1937 C112.6213,12.3857 112.8983,12.6177 113.1123,12.8897 C113.3263,13.1637 113.4663,13.4357 113.5333,13.7077 C113.6003,13.9787 113.6283,14.2607 113.6173,14.5507 C113.6063,14.8407 113.5673,15.0957 113.5023,15.3157 C113.4353,15.5357 113.3523,15.7317 113.2543,15.9057 L111.8313,15.1047 C112.0473,14.7207 112.1013,14.4017 111.9893,14.1477 C111.8783,13.8947 111.7163,13.7077 111.4973,13.5857 C111.4033,13.5317 111.3063,13.4897 111.2053,13.4567 C111.1043,13.4237 110.9843,13.4037 110.8453,13.3967 C110.7053,13.3897 110.5703,13.4267 110.4393,13.5057 C110.3103,13.5847 110.1963,13.7077 110.1033,13.8737 L108.1683,17.3087 C107.9883,17.6287 107.9653,17.9037 108.0983,18.1367 C108.2293,18.3677 108.4073,18.5467 108.6323,18.6737 C108.7193,18.7217 108.8143,18.7597 108.9203,18.7847 C109.0253,18.8097 109.1453,18.8197 109.2853,18.8117 C109.4233,18.8037 109.5663,18.7437 109.7163,18.6317 C109.8643,18.5187 109.9983,18.3587 110.1163,18.1487 L111.5403,18.9507 Z" id="Fill-35" fill="#1D1D1B"></path>
            <path d="M117.1575,22.9013 C117.0135,23.1163 116.8335,23.3113 116.6135,23.4913 C116.3945,23.6703 116.1325,23.8253 115.8255,23.9563 C115.5175,24.0853 115.1615,24.1223 114.7545,24.0663 C114.3465,24.0083 113.9325,23.8403 113.5105,23.5593 C113.0875,23.2783 112.7725,22.9603 112.5635,22.6063 C112.3545,22.2513 112.2515,21.9053 112.2515,21.5653 C112.2535,21.2263 112.2945,20.9223 112.3745,20.6503 C112.4555,20.3803 112.5675,20.1363 112.7105,19.9223 L116.2665,14.5853 L117.6165,15.4853 L114.0595,20.8223 C113.8565,21.1263 113.8105,21.3973 113.9215,21.6353 C114.0325,21.8763 114.1945,22.0663 114.4095,22.2093 C114.5345,22.2923 114.6635,22.3563 114.7995,22.4013 C114.9335,22.4463 115.1005,22.4423 115.3005,22.3903 C115.5005,22.3393 115.6715,22.2063 115.8135,21.9913 L119.3715,16.6553 L120.7205,17.5533 L117.1575,22.9013 Z" id="Fill-37" fill="#1D1D1B"></path>
            <path d="M123.8313,23.6699 L124.0453,23.4079 C124.2763,23.1259 124.3583,22.8689 124.2883,22.6389 C124.2183,22.4099 124.0873,22.2169 123.8933,22.0589 L123.0173,21.3379 L121.6003,23.0649 L122.4973,23.8009 C122.9853,24.2009 123.4313,24.1579 123.8313,23.6699 Z M121.6143,29.5959 L120.2063,28.4419 L121.1393,24.7679 L120.5793,24.3089 L118.4033,26.9619 L117.1493,25.9339 L122.7833,19.0649 L124.9353,20.8299 C125.3273,21.1519 125.6063,21.4959 125.7713,21.8629 C125.9383,22.2329 125.9973,22.5819 125.9503,22.9149 C125.9043,23.2469 125.8273,23.5349 125.7213,23.7749 C125.6143,24.0159 125.4853,24.2309 125.3333,24.4159 L125.0873,24.7149 C124.9243,24.9149 124.7353,25.0939 124.5243,25.2539 C124.3113,25.4149 124.0283,25.5449 123.6713,25.6429 C123.3153,25.7449 122.9553,25.7489 122.5913,25.6529 L121.6143,29.5959 Z" id="Fill-39" fill="#1D1D1B"></path>
            <polygon id="Fill-41" fill="#1D1D1B" points="128.4475 23.8418 129.6495 24.9318 123.6845 31.5138 122.4815 30.4258"></polygon>
            <polygon id="Fill-43" fill="#1D1D1B" points="133.6438 31.2934 132.2668 29.8484 127.0098 34.8574 125.8998 33.6924 131.1558 28.6824 129.7878 27.2464 130.9618 26.1284 134.8188 30.1744"></polygon>
            <polygon id="Fill-45" fill="#1D1D1B" points="139.552 35.8393 133.697 37.6383 131.21 39.6833 130.18 38.4313 132.685 36.3693 135.556 30.9843 136.682 32.3523 134.906 35.5933 138.435 34.4813"></polygon>
        </g>
    </g>
</svg>