<?xml version="1.0" encoding="UTF-8"?>
<svg width="46px" height="13px" viewBox="0 0 46 13" version="1.1" xmlns="http://www.w3.org/2000/svg" xmlns:xlink="http://www.w3.org/1999/xlink">
    <!-- Generator: Sketch 48 (47235) - http://www.bohemiancoding.com/sketch -->
    <title>Page 1</title>
    <desc>Created with Sketch.</desc>
    <defs>
        <polygon id="path-1" points="0 0.599923661 7.19225822 0.599923661 7.19225822 10 0 10"></polygon>
        <polygon id="path-3" points="0.3122 0.6586 7.536 0.6586 7.536 10.9076 0.3122 10.9076"></polygon>
    </defs>
    <g id="Page-1" stroke="none" stroke-width="1" fill="none" fill-rule="evenodd">
        <g>
            <g id="Group-3" transform="translate(0.000000, 2.853700)">
                <mask id="mask-2" fill="white">
                    <use xlink:href="#path-1"></use>
                </mask>
                <g id="Clip-2"></g>
                <path d="M7.0166,6.222 C7.2876,6.955 7.2446,7.66 6.8906,8.338 C6.5366,9.017 5.9646,9.5 5.1726,9.792 C4.3656,10.089 3.6176,10.068 2.9256,9.729 C2.2346,9.389 1.7406,8.816 1.4426,8.008 L3.0376,7.421 C3.1736,7.791 3.3836,8.044 3.6666,8.178 C3.9506,8.313 4.2516,8.321 4.5736,8.202 C4.9366,8.069 5.1966,7.87 5.3506,7.607 C5.5066,7.344 5.5326,7.068 5.4256,6.78 C5.2836,6.392 4.9666,6.158 4.4786,6.076 C4.2456,6.031 3.4916,5.934 2.2116,5.788 C1.7736,5.743 1.3666,5.573 0.9916,5.276 C0.6146,4.98 0.3426,4.605 0.1766,4.152 C-0.0854,3.443 -0.0554,2.778 0.2616,2.155 C0.5796,1.533 1.1196,1.081 1.8766,0.802 C2.6596,0.514 3.3936,0.534 4.0796,0.861 C4.7666,1.188 5.2556,1.747 5.5476,2.538 L3.9286,3.135 C3.7976,2.781 3.5986,2.538 3.3306,2.408 C3.0636,2.277 2.7716,2.269 2.4586,2.384 C2.1786,2.488 1.9716,2.648 1.8366,2.867 C1.7016,3.084 1.6826,3.326 1.7806,3.589 C1.8896,3.886 2.1506,4.061 2.5626,4.115 C3.9236,4.279 4.6386,4.366 4.7076,4.377 C5.8556,4.544 6.6246,5.159 7.0166,6.222" id="Fill-1" fill="#FFFFFF" mask="url(#mask-2)"></path>
            </g>
            <path d="M12.1241,6.5913 L10.7281,3.8183 L10.5391,6.9273 L12.1241,6.5913 Z M15.5861,9.7753 L13.8731,10.1383 L12.8861,8.1533 L10.4901,8.6613 L10.3941,10.8763 L8.6681,11.2423 L9.1311,1.5583 L11.1921,1.1213 L15.5861,9.7753 Z" id="Fill-4" fill="#FFFFFF"></path>
            <polygon id="Fill-6" fill="#FFFFFF" points="21.6973 1.6953 17.9773 1.9313 18.0983 3.8373 21.5423 3.6183 21.6493 5.3143 18.2063 5.5333 18.4643 9.5953 16.7683 9.7023 16.1753 0.3433 21.5903 0.0003"></polygon>
            <polygon id="Fill-8" fill="#FFFFFF" points="28.9688 9.851 23.5628 9.392 24.3568 0.048 29.7628 0.507 29.6178 2.2 25.9048 1.885 25.7448 3.774 29.1828 4.066 29.0388 5.759 25.6008 5.467 25.3988 7.843 29.1128 8.158"></polygon>
            <polygon id="Fill-10" fill="#FFFFFF" points="37.126 3.6963 35.065 3.2573 33.467 10.7543 31.805 10.4003 33.403 2.9033 31.355 2.4673 31.713 0.7923 37.483 2.0223"></polygon>
            <g id="Group-14" transform="translate(38.000000, 1.853700)">
                <mask id="mask-4" fill="white">
                    <use xlink:href="#path-3"></use>
                </mask>
                <g id="Clip-13"></g>
                <polygon id="Fill-12" fill="#FFFFFF" mask="url(#mask-4)" points="7.5362 3.0086 3.1162 7.7296 1.9132 10.9076 0.3122 10.3016 1.5242 7.0986 1.3272 0.6586 3.0772 1.3216 3.1492 5.2206 5.7982 2.3516"></polygon>
            </g>
        </g>
    </g>
</svg>