<?xml version="1.0" encoding="UTF-8"?>
<svg width="235px" height="73px" viewBox="0 0 235 73" version="1.1" xmlns="http://www.w3.org/2000/svg" xmlns:xlink="http://www.w3.org/1999/xlink">
    <!-- Generator: Sketch 48 (47235) - http://www.bohemiancoding.com/sketch -->
    <title>Page 1</title>
    <desc>Created with Sketch.</desc>
    <defs>
        <polygon id="path-1" points="0.4949 0.6643 10.2729 0.6643 10.2729 19 0.4949 19"></polygon>
    </defs>
    <g id="Page-1" stroke="none" stroke-width="1" fill="none" fill-rule="evenodd">
        <g>
            <path d="M16.9272,18.0821 L17.7702,18.8741 L1.8162,29.0201 L0.0002,27.3131 L9.1762,10.7971 L10.0182,11.5891 L1.2652,27.0931 L1.9772,27.7611 C3.6162,26.6921 6.1042,25.0771 9.4422,22.9131 C12.7812,20.7491 15.2752,19.1391 16.9272,18.0821" id="Fill-1" fill="#FFFFFF"></path>
            <polygon id="Fill-3" fill="#FFFFFF" points="19.1763 43.4771 11.5483 37.8901 22.3723 23.1111 30.0003 28.6971 29.3933 29.5271 22.6153 24.5621 18.4403 30.2631 24.6993 34.8471 24.0923 35.6761 17.8333 31.0921 13.0053 37.6841 19.7833 42.6481"></polygon>
            <path d="M40.7734,41.9663 L41.1824,41.2523 C41.4724,40.7473 41.6484,40.2563 41.7144,39.7803 C41.7794,39.3043 41.7654,38.8913 41.6694,38.5403 C41.5754,38.1903 41.4164,37.8573 41.1914,37.5403 C40.9694,37.2263 40.7434,36.9723 40.5164,36.7833 C40.2884,36.5933 40.0484,36.4273 39.7964,36.2813 L36.1634,34.1983 L32.1254,41.2423 L35.8024,43.3513 C36.1284,43.5383 36.4834,43.6773 36.8664,43.7683 C37.2484,43.8593 37.6724,43.8953 38.1374,43.8743 C38.6034,43.8573 39.0714,43.6853 39.5424,43.3623 C40.0134,43.0403 40.4244,42.5753 40.7734,41.9663 Z M35.2524,53.6093 L34.1834,52.9953 L35.1364,44.1533 L31.6134,42.1343 L27.5634,49.1993 L26.6484,48.6753 L35.7604,32.7823 L40.3074,35.3903 C40.9614,35.7653 41.4854,36.1953 41.8804,36.6773 C42.2744,37.1593 42.5334,37.6283 42.6574,38.0843 C42.7814,38.5403 42.8264,39.0113 42.7954,39.4973 C42.7634,39.9823 42.6894,40.3983 42.5684,40.7433 C42.4494,41.0903 42.3044,41.4113 42.1344,41.7083 L41.6744,42.5113 C41.4784,42.8533 41.2274,43.1793 40.9224,43.4873 C40.6164,43.7963 40.2394,44.0933 39.7904,44.3783 C39.3394,44.6633 38.7944,44.8393 38.1544,44.9053 C37.5134,44.9743 36.8424,44.8953 36.1414,44.6703 L35.2524,53.6093 Z" id="Fill-5" fill="#FFFFFF"></path>
            <polygon id="Fill-7" fill="#FFFFFF" points="58.4521 45.4468 54.1121 43.6348 47.4541 59.5938 46.4821 59.1888 53.1401 43.2298 48.7771 41.4098 49.1721 40.4618 58.8481 44.4978"></polygon>
            <polygon id="Fill-9" fill="#FFFFFF" points="65.2642 46.9302 66.2692 47.2482 60.7342 64.7112 59.7292 64.3932"></polygon>
            <path d="M78.5542,51.646 C78.1862,51.565 77.7982,51.532 77.3912,51.546 C76.9842,51.562 76.5392,51.634 76.0542,51.763 C75.5692,51.892 75.1332,52.177 74.7462,52.617 C74.3582,53.058 74.0872,53.628 73.9312,54.332 L71.8922,63.511 C71.7372,64.213 71.7412,64.842 71.9082,65.397 C72.0742,65.951 72.3492,66.394 72.7322,66.724 C73.1152,67.055 73.4872,67.309 73.8522,67.487 C74.2162,67.664 74.5822,67.793 74.9502,67.875 C75.3182,67.957 75.7052,67.99 76.1122,67.975 C76.5192,67.959 76.9572,67.882 77.4282,67.741 C77.8972,67.6 78.3212,67.312 78.6992,66.878 C79.0752,66.444 79.3392,65.893 79.4872,65.224 L80.5152,65.453 C80.4112,65.92 80.2262,66.38 79.9592,66.83 C79.6922,67.279 79.3342,67.708 78.8842,68.117 C78.4322,68.526 77.8352,68.809 77.0892,68.968 C76.3442,69.127 75.5192,69.107 74.6162,68.906 C73.7292,68.709 72.9912,68.383 72.3982,67.927 C71.8062,67.471 71.3982,66.959 71.1742,66.392 C70.9492,65.825 70.8152,65.282 70.7722,64.763 C70.7302,64.245 70.7602,63.751 70.8642,63.283 L72.9132,54.053 C72.9882,53.718 73.1082,53.373 73.2752,53.014 C73.4432,52.657 73.6892,52.294 74.0162,51.929 C74.3442,51.563 74.7182,51.259 75.1392,51.02 C75.5612,50.781 76.0892,50.617 76.7222,50.53 C77.3552,50.442 78.0402,50.48 78.7772,50.643 C79.6622,50.84 80.4012,51.171 80.9912,51.635 C81.5802,52.099 81.9892,52.612 82.2162,53.17 C82.4432,53.73 82.5822,54.265 82.6362,54.777 C82.6892,55.29 82.6652,55.771 82.5652,56.222 L81.5622,56 C81.7142,55.314 81.7152,54.696 81.5652,54.145 C81.4152,53.594 81.1542,53.154 80.7792,52.826 C80.4052,52.497 80.0372,52.24 79.6742,52.053 C79.3122,51.868 78.9382,51.732 78.5542,51.646" id="Fill-11" fill="#FFFFFF"></path>
            <path d="M97.2607,65.8081 L95.4517,54.7491 L94.2757,54.6401 L90.4557,65.1741 L97.2607,65.8081 Z M99.3977,72.5091 L98.3487,72.4121 L97.4467,66.8581 L90.1047,66.1741 L88.1677,71.4641 L87.1697,71.3711 L93.6257,53.5741 L96.2357,53.8161 L99.3977,72.5091 Z" id="Fill-13" fill="#FFFFFF"></path>
            <g id="Group-17" transform="translate(107.000000, 53.980000)">
                <mask id="mask-2" fill="white">
                    <use xlink:href="#path-1"></use>
                </mask>
                <g id="Clip-16"></g>
                <polygon id="Fill-15" fill="#FFFFFF" mask="url(#mask-2)" points="10.2729 18.8193 0.8449 19.0003 0.4949 0.6833 1.5469 0.6643 1.8779 17.9263 10.2529 17.7663"></polygon>
            </g>
            <path d="M144.1157,64.4488 L142.2107,55.7138 C142.0527,54.9938 141.7987,54.4088 141.4467,53.9608 C141.0947,53.5108 140.6917,53.2138 140.2387,53.0668 C139.7867,52.9208 139.3657,52.8418 138.9777,52.8288 C138.5897,52.8178 138.2107,52.8518 137.8427,52.9318 L133.7767,53.8188 L137.2487,69.7338 L141.3647,68.8358 C141.7317,68.7558 142.0897,68.6218 142.4337,68.4318 C142.7787,68.2428 143.1167,67.9858 143.4477,67.6588 C143.7797,67.3328 144.0127,66.8908 144.1467,66.3368 C144.2797,65.7808 144.2687,65.1518 144.1157,64.4488 Z M145.1507,64.2498 C145.2497,64.7018 145.2867,65.1758 145.2637,65.6718 C145.2407,66.1678 145.1337,66.7038 144.9437,67.2798 C144.7537,67.8558 144.3777,68.3768 143.8117,68.8428 C143.2467,69.3068 142.5217,69.6358 141.6347,69.8298 L136.4377,70.9638 L132.5277,53.0398 L137.6237,51.9278 C138.3607,51.7668 139.0377,51.7378 139.6557,51.8398 C140.2737,51.9408 140.7827,52.1198 141.1797,52.3748 C141.5777,52.6298 141.9277,52.9488 142.2297,53.3298 C142.5317,53.7108 142.7537,54.0688 142.8987,54.4058 C143.0417,54.7438 143.1497,55.0788 143.2227,55.4138 L145.1507,64.2498 Z" id="Fill-18" fill="#FFFFFF"></path>
            <path d="M162.1772,59.48 L159.0832,50.599 C158.8532,49.937 158.5192,49.409 158.0832,49.016 C157.6482,48.624 157.1852,48.386 156.6932,48.303 C156.2022,48.221 155.7532,48.196 155.3472,48.228 C154.9412,48.261 154.5602,48.339 154.2042,48.462 C153.8492,48.586 153.5012,48.762 153.1632,48.989 C152.8252,49.215 152.4862,49.515 152.1442,49.888 C151.8022,50.261 151.5812,50.736 151.4842,51.315 C151.3862,51.893 151.4522,52.514 151.6852,53.177 L154.7772,62.057 C155.0092,62.721 155.3432,63.252 155.7822,63.653 C156.2202,64.054 156.6852,64.295 157.1772,64.378 C157.6672,64.46 158.1162,64.486 158.5232,64.453 C158.9292,64.42 159.3102,64.343 159.6652,64.218 C160.0212,64.095 160.3722,63.917 160.7182,63.688 C161.0642,63.459 161.4042,63.155 161.7342,62.777 C162.0642,62.399 162.2792,61.92 162.3762,61.342 C162.4742,60.764 162.4072,60.144 162.1772,59.48 Z M163.1812,59.158 C163.3332,59.595 163.4132,60.075 163.4232,60.597 C163.4332,61.121 163.3512,61.679 163.1772,62.274 C163.0032,62.87 162.6382,63.433 162.0792,63.962 C161.5212,64.494 160.8042,64.91 159.9312,65.214 C159.2342,65.457 158.5752,65.573 157.9562,65.562 C157.3352,65.551 156.8042,65.447 156.3632,65.246 C155.9212,65.046 155.5172,64.78 155.1462,64.445 C154.7752,64.113 154.4882,63.777 154.2792,63.441 C154.0722,63.106 153.9062,62.76 153.7822,62.404 L150.6732,53.475 C150.5212,53.038 150.4432,52.567 150.4372,52.06 C150.4332,51.554 150.5112,51.005 150.6672,50.416 C150.8252,49.826 151.1792,49.267 151.7302,48.74 C152.2812,48.212 152.9932,47.796 153.8662,47.493 C154.7242,47.194 155.5292,47.082 156.2812,47.156 C157.0312,47.23 157.6562,47.447 158.1542,47.808 C158.6522,48.17 159.0562,48.555 159.3702,48.962 C159.6852,49.371 159.9192,49.792 160.0722,50.229 L163.1812,59.158 Z" id="Fill-20" fill="#FFFFFF"></path>
            <polygon id="Fill-22" fill="#FFFFFF" points="174.5806 59.4595 173.6406 59.9335 165.3996 43.5715 166.9376 42.7985 175.7276 50.6555 174.6476 38.9155 176.1856 38.1405 184.4256 54.5015 183.4846 54.9765 175.7296 39.5785 176.8096 51.6635 175.8926 52.1245 166.8376 44.0855"></polygon>
            <path d="M196.1216,39.7749 L187.6836,32.4029 L186.7056,33.0679 L190.4716,43.6229 L196.1216,39.7749 Z M202.0376,43.5799 L201.1666,44.1729 L196.9336,40.4659 L190.8386,44.6169 L192.7136,49.9269 L191.8856,50.4919 L185.5256,32.6589 L187.6916,31.1849 L202.0376,43.5799 Z" id="Fill-24" fill="#FFFFFF"></path>
            <polygon id="Fill-26" fill="#FFFFFF" points="197.0562 24.3789 197.8662 23.7049 209.5782 37.7909 208.7692 38.4639"></polygon>
            <polygon id="Fill-28" fill="#FFFFFF" points="224.2329 24.2876 223.0029 25.5296 205.7469 18.6746 217.8869 30.6956 217.1459 31.4446 204.1289 18.5556 205.3029 17.3686 222.7609 24.3126 210.4739 12.1466 211.2149 11.3976"></polygon>
            <path d="M233.2954,6.7388 C234.3684,7.5908 234.9334,8.6828 234.9904,10.0178 C235.0474,11.3518 234.6174,12.5968 233.7014,13.7508 C232.7444,14.9588 231.6414,15.6468 230.3924,15.8158 C229.1434,15.9838 227.9834,15.6428 226.9084,14.7908 L227.5634,13.9658 C228.4494,14.6678 229.3574,14.9418 230.2914,14.7848 C231.2244,14.6288 232.0744,14.0668 232.8404,13.1008 C233.6274,12.1078 234.0064,11.1068 233.9754,10.0988 C233.9434,9.0898 233.4844,8.2348 232.6004,7.5318 C231.4044,6.5848 230.0574,6.4238 228.5574,7.0468 C227.3684,7.5268 225.7834,8.2158 223.8024,9.1138 C223.0844,9.4418 222.3334,9.5608 221.5494,9.4748 C220.7654,9.3888 220.0504,9.0908 219.4064,8.5798 C218.4134,7.7918 217.8734,6.7898 217.7894,5.5738 C217.7034,4.3588 218.0974,3.2018 218.9694,2.1008 C219.8954,0.9338 220.9724,0.2518 222.1994,0.0548 C223.4264,-0.1412 224.5834,0.1898 225.6704,1.0518 L225.0314,1.8578 C224.1464,1.1558 223.2304,0.8988 222.2814,1.0878 C221.3344,1.2758 220.4984,1.8268 219.7744,2.7398 C219.1044,3.5858 218.7934,4.4798 218.8414,5.4258 C218.8904,6.3718 219.3164,7.1628 220.1214,7.8018 C221.0744,8.5578 222.2294,8.6318 223.5854,8.0238 L228.0954,6.0588 C229.9774,5.2558 231.7114,5.4828 233.2954,6.7388" id="Fill-30" fill="#FFFFFF"></path>
        </g>
    </g>
</svg>