<?xml version="1.0" encoding="UTF-8"?>
<svg width="178px" height="33px" viewBox="0 0 178 33" version="1.1" xmlns="http://www.w3.org/2000/svg" xmlns:xlink="http://www.w3.org/1999/xlink">
    <!-- Generator: Sketch 48 (47235) - http://www.bohemiancoding.com/sketch -->
    <title>Page 1</title>
    <desc>Created with Sketch.</desc>
    <defs>
        <polygon id="path-1" points="0.760026149 0.440923586 5.1277423 0.440923586 5.1277423 8 0.760026149 8"></polygon>
    </defs>
    <g id="Page-1" stroke="none" stroke-width="1" fill="none" fill-rule="evenodd">
        <g>
            <polygon id="Fill-1" fill="#FFFFFF" points="2.2446 0.0001 1.7286 0.8781 3.2356 1.7621 -0.0004 7.2781 0.8706 7.7891 4.1056 2.2731 5.6216 3.1631 6.1376 2.2841"></polygon>
            <g id="Group-53" transform="translate(3.000000, 2.044600)">
                <path d="M5.6025,4.2894 L5.7485,4.0254 C5.9395,3.6804 5.9745,3.3894 5.8525,3.1504 C5.7305,2.9124 5.5515,2.7284 5.3145,2.5984 L4.2605,2.0134 L3.1065,4.0964 L4.1805,4.6894 C4.2835,4.7474 4.3865,4.7914 4.4885,4.8194 C4.5915,4.8494 4.7115,4.8614 4.8485,4.8574 C4.9845,4.8534 5.1185,4.8064 5.2495,4.7124 C5.3805,4.6184 5.4985,4.4774 5.6025,4.2894 Z M4.2505,9.3284 L3.2505,8.7744 L3.4785,5.4434 L2.6235,4.9704 L1.1585,7.6164 L0.2755,7.1284 L3.8655,0.6424 L5.8215,1.7254 C6.1065,1.8824 6.3365,2.0674 6.5135,2.2794 C6.6875,2.4914 6.8055,2.6974 6.8615,2.8944 C6.9185,3.0924 6.9415,3.2974 6.9315,3.5104 C6.9205,3.7214 6.8905,3.9044 6.8405,4.0604 C6.7905,4.2154 6.7285,4.3584 6.6545,4.4914 L6.4885,4.7924 C6.3845,4.9794 6.2505,5.1574 6.0865,5.3244 C5.9235,5.4914 5.6945,5.6364 5.4005,5.7584 C5.1075,5.8814 4.7975,5.9154 4.4705,5.8614 L4.2505,9.3284 Z" id="Fill-2" fill="#FFFFFF"></path>
                <path d="M9.4155,8.5628 L10.1455,5.2268 L7.8655,7.7798 L9.4155,8.5628 Z M9.6705,12.0698 L8.7525,11.6058 L9.1975,9.5708 L7.2025,8.5628 L5.8185,10.1238 L4.8925,9.6548 L9.9615,3.9108 L11.2615,4.5668 L9.6705,12.0698 Z" id="Fill-4" fill="#FFFFFF"></path>
                <polygon id="Fill-6" fill="#FFFFFF" points="14.519 14.3211 13.488 13.8471 13.641 8.2551 11.495 12.9321 10.578 12.5121 13.67 5.7741 14.681 6.2381 14.522 11.9201 16.704 7.1661 17.611 7.5831"></polygon>
                <path d="M20.5649,14.8089 C20.3329,15.3499 19.9399,15.7159 19.3869,15.9049 C18.8359,16.0939 18.2629,16.0619 17.6699,15.8079 C17.0649,15.5479 16.6509,15.1609 16.4329,14.6439 C16.2129,14.1279 16.2199,13.5949 16.4549,13.0469 L17.3819,13.4449 C17.2509,13.7499 17.2499,14.0309 17.3779,14.2869 C17.5059,14.5399 17.7329,14.7379 18.0579,14.8759 C18.4149,15.0299 18.7379,15.0609 19.0299,14.9719 C19.3209,14.8809 19.5299,14.6899 19.6559,14.3969 C19.8219,14.0079 19.7569,13.6149 19.4599,13.2159 C19.2319,12.9069 18.8279,12.4129 18.2509,11.7359 C18.0339,11.4839 17.8989,11.1809 17.8489,10.8279 C17.7959,10.4739 17.8429,10.1279 17.9869,9.7899 C18.2089,9.2739 18.5699,8.9269 19.0719,8.7499 C19.5739,8.5739 20.1059,8.6059 20.6659,8.8459 C21.2519,9.0969 21.6559,9.4759 21.8759,9.9809 C22.0969,10.4869 22.0929,11.0069 21.8629,11.5419 L20.9259,11.1399 C21.0519,10.8469 21.0539,10.5759 20.9299,10.3279 C20.8069,10.0789 20.5889,9.8869 20.2759,9.7529 C19.9899,9.6299 19.7179,9.6069 19.4599,9.6799 C19.2019,9.7549 19.0139,9.9279 18.8959,10.2029 C18.7539,10.5339 18.8199,10.8639 19.0949,11.1929 C19.8569,12.1069 20.2419,12.5709 20.2519,12.5819 C20.8019,13.2709 20.9059,14.0129 20.5649,14.8089" id="Fill-8" fill="#FFFFFF"></path>
                <path d="M25.7954,13.7171 L25.9714,13.2611 C26.1124,12.8921 26.1064,12.5981 25.9524,12.3801 C25.7994,12.1611 25.5964,12.0031 25.3444,11.9061 L24.2184,11.4731 L23.2934,13.8801 L24.4384,14.3211 C24.5484,14.3631 24.6564,14.3911 24.7624,14.4051 C24.8664,14.4201 24.9874,14.4161 25.1224,14.3951 C25.2574,14.3711 25.3844,14.3031 25.5024,14.1901 C25.6204,14.0751 25.7184,13.9171 25.7954,13.7171 Z M26.7234,14.0841 C26.6684,14.2281 26.5974,14.3691 26.5094,14.5101 C26.4224,14.6511 26.3014,14.7961 26.1484,14.9451 C25.9934,15.0931 25.8234,15.2091 25.6394,15.2951 C25.4544,15.3791 25.2294,15.4251 24.9644,15.4301 C24.6974,15.4361 24.4154,15.3811 24.1184,15.2671 L22.9354,14.8121 L21.9194,17.4511 L20.9784,17.0891 L23.6394,10.1701 L25.7254,10.9721 C26.1014,11.1161 26.3964,11.3081 26.6124,11.5471 C26.8284,11.7861 26.9604,12.0371 27.0084,12.3011 C27.0554,12.5641 27.0684,12.8021 27.0474,13.0121 C27.0244,13.2231 26.9804,13.4181 26.9094,13.6001 L26.7234,14.0841 Z" id="Fill-10" fill="#FFFFFF"></path>
                <path d="M29.7632,18.2649 L30.9272,14.9939 C30.9992,14.7899 31.0222,14.6079 30.9952,14.4439 C30.9682,14.2799 30.9082,14.1439 30.8102,14.0359 C30.7112,13.9269 30.6152,13.8429 30.5182,13.7829 C30.4222,13.7239 30.3222,13.6739 30.2182,13.6369 C30.0602,13.5809 29.9042,13.5469 29.7452,13.5359 C29.5882,13.5239 29.4102,13.5709 29.2152,13.6779 C29.0192,13.7849 28.8742,13.9689 28.7822,14.2299 L27.6172,17.5009 C27.5452,17.7039 27.5232,17.8889 27.5522,18.0579 C27.5802,18.2259 27.6462,18.3639 27.7472,18.4699 C27.8492,18.5759 27.9482,18.6609 28.0422,18.7239 C28.1382,18.7869 28.2422,18.8379 28.3532,18.8779 C28.4572,18.9149 28.5662,18.9399 28.6792,18.9509 C28.7932,18.9609 28.9212,18.9579 29.0662,18.9389 C29.2082,18.9189 29.3412,18.8529 29.4672,18.7399 C29.5922,18.6249 29.6912,18.4679 29.7632,18.2649 Z M30.7192,18.6169 C30.6542,18.7989 30.5522,18.9799 30.4142,19.1599 C30.2782,19.3379 30.1022,19.5089 29.8852,19.6709 C29.6692,19.8339 29.3962,19.9339 29.0672,19.9699 C28.7382,20.0079 28.3832,19.9589 28.0042,19.8249 C27.6322,19.6919 27.3312,19.5079 27.1032,19.2719 C26.8742,19.0359 26.7272,18.7849 26.6592,18.5189 C26.5932,18.2509 26.5622,18.0049 26.5692,17.7809 C26.5752,17.5539 26.6122,17.3499 26.6772,17.1669 L27.8482,13.8759 C27.8972,13.7389 27.9662,13.5999 28.0572,13.4579 C28.1472,13.3189 28.2712,13.1759 28.4282,13.0339 C28.5862,12.8909 28.7622,12.7759 28.9552,12.6859 C29.1492,12.5969 29.3862,12.5499 29.6672,12.5479 C29.9482,12.5439 30.2422,12.5969 30.5492,12.7059 C30.9142,12.8369 31.2112,13.0199 31.4402,13.2549 C31.6682,13.4919 31.8192,13.7389 31.8892,13.9949 C31.9592,14.2509 31.9922,14.4939 31.9902,14.7199 C31.9862,14.9469 31.9522,15.1489 31.8902,15.3259 L30.7192,18.6169 Z" id="Fill-12" fill="#FFFFFF"></path>
                <path d="M36.1108,17.0901 L36.2018,16.8021 C36.3198,16.4251 36.2948,16.1321 36.1288,15.9241 C35.9608,15.7151 35.7488,15.5701 35.4908,15.4891 L34.3398,15.1281 L33.6268,17.4011 L34.7978,17.7681 C34.9098,17.8031 35.0198,17.8241 35.1268,17.8321 C35.2318,17.8401 35.3528,17.8281 35.4858,17.7981 C35.6178,17.7671 35.7398,17.6931 35.8498,17.5741 C35.9598,17.4561 36.0468,17.2951 36.1108,17.0901 Z M35.7958,22.2971 L34.7048,21.9551 L34.2608,18.6451 L33.3288,18.3531 L32.4228,21.2391 L31.4608,20.9381 L33.6788,13.8631 L35.8118,14.5331 C36.1228,14.6311 36.3858,14.7661 36.6008,14.9391 C36.8148,15.1111 36.9698,15.2891 37.0648,15.4711 C37.1608,15.6531 37.2248,15.8501 37.2568,16.0601 C37.2888,16.2701 37.2958,16.4551 37.2778,16.6161 C37.2598,16.7781 37.2288,16.9321 37.1828,17.0771 L37.0798,17.4041 C37.0158,17.6101 36.9208,17.8111 36.7938,18.0061 C36.6658,18.2021 36.4708,18.3911 36.2078,18.5691 C35.9448,18.7481 35.6478,18.8441 35.3168,18.8571 L35.7958,22.2971 Z" id="Fill-14" fill="#FFFFFF"></path>
                <polygon id="Fill-16" fill="#FFFFFF" points="42.5884 17.6087 40.8994 17.1257 39.1404 23.2727 38.1704 22.9957 39.9294 16.8467 38.2494 16.3667 38.5294 15.3867 42.8684 16.6287"></polygon>
                <polygon id="Fill-18" fill="#FFFFFF" points="70.6011 29.178 66.5051 28.755 67.2661 21.381 71.3611 21.803 71.2581 22.807 68.1651 22.488 67.9601 24.474 70.8261 24.769 70.7231 25.762 67.8581 25.467 67.6101 27.866 70.7031 28.185"></polygon>
                <polygon id="Fill-20" fill="#FFFFFF" points="76.1865 29.6311 75.0555 29.5431 73.2695 24.2401 72.8695 29.3721 71.8635 29.2941 72.4395 21.9021 73.5485 21.9891 75.3615 27.3761 75.7675 22.1621 76.7625 22.2391"></polygon>
                <polygon id="Fill-22" fill="#FFFFFF" points="81.8789 29.8831 77.7649 29.7161 78.0649 22.3081 82.1789 22.4751 82.1379 23.4841 79.0319 23.3581 78.9509 25.3521 81.8289 25.4681 81.7889 26.4661 78.9109 26.3501 78.8129 28.7601 81.9189 28.8861"></polygon>
                <path d="M86.5122,24.8987 L86.5172,24.5967 C86.5232,24.2017 86.4162,23.9277 86.1972,23.7757 C85.9772,23.6237 85.7332,23.5447 85.4622,23.5407 L84.2572,23.5207 L84.2192,25.9017 L85.4452,25.9207 C85.5632,25.9227 85.6742,25.9137 85.7792,25.8907 C85.8822,25.8677 85.9942,25.8227 86.1142,25.7547 C86.2322,25.6877 86.3272,25.5817 86.3992,25.4377 C86.4712,25.2937 86.5092,25.1137 86.5122,24.8987 Z M87.6902,29.9817 L86.5462,29.9627 L85.1812,26.9157 L84.2032,26.8997 L84.1562,29.9247 L83.1472,29.9097 L83.2642,22.4967 L85.4982,22.5317 C85.8252,22.5377 86.1152,22.5917 86.3702,22.6967 C86.6242,22.8007 86.8242,22.9267 86.9672,23.0757 C87.1102,23.2227 87.2282,23.3927 87.3172,23.5857 C87.4082,23.7767 87.4682,23.9537 87.4962,24.1127 C87.5252,24.2727 87.5382,24.4287 87.5352,24.5817 L87.5312,24.9247 C87.5272,25.1397 87.4922,25.3597 87.4262,25.5837 C87.3612,25.8077 87.2272,26.0437 87.0262,26.2897 C86.8242,26.5357 86.5672,26.7117 86.2522,26.8177 L87.6902,29.9817 Z" id="Fill-24" fill="#FFFFFF"></path>
                <g id="Group-28" transform="translate(88.000000, 22.000000)">
                    <mask id="mask-2" fill="white">
                        <use xlink:href="#path-1"></use>
                    </mask>
                    <g id="Clip-27"></g>
                    <path d="M5.1274,5.9056 C5.1314,6.0996 5.1004,6.3046 5.0314,6.5216 C4.9634,6.7376 4.8554,6.9606 4.7074,7.1886 C4.5604,7.4176 4.3384,7.6076 4.0434,7.7596 C3.7484,7.9116 3.4044,7.9916 3.0094,7.9996 C2.6904,8.0066 2.4014,7.9626 2.1434,7.8676 C1.8844,7.7716 1.6784,7.6506 1.5214,7.5016 C1.3654,7.3516 1.2334,7.1826 1.1264,6.9946 C1.0184,6.8056 0.9424,6.6296 0.9004,6.4636 C0.8594,6.2986 0.8374,6.1386 0.8344,5.9866 L0.7604,2.4946 C0.7574,2.3476 0.7724,2.1936 0.8074,2.0296 C0.8414,1.8666 0.9074,1.6896 1.0034,1.5006 C1.1004,1.3106 1.2244,1.1406 1.3724,0.9886 C1.5224,0.8366 1.7284,0.7096 1.9884,0.6066 C2.2494,0.5036 2.5434,0.4486 2.8694,0.4416 C3.2574,0.4336 3.6004,0.4966 3.8974,0.6286 C4.1944,0.7606 4.4224,0.9336 4.5784,1.1496 C4.7354,1.3636 4.8544,1.5786 4.9314,1.7916 C5.0084,2.0056 5.0494,2.2126 5.0534,2.4136 L4.0344,2.4346 C4.0304,2.2266 3.9864,2.0516 3.9034,1.9076 C3.8194,1.7626 3.7144,1.6596 3.5854,1.5956 C3.4544,1.5336 3.3354,1.4906 3.2244,1.4686 C3.1124,1.4476 3.0014,1.4366 2.8914,1.4396 C2.7734,1.4416 2.6584,1.4566 2.5484,1.4836 C2.4384,1.5096 2.3164,1.5576 2.1884,1.6266 C2.0574,1.6946 1.9524,1.8036 1.8724,1.9556 C1.7914,2.1066 1.7544,2.2856 1.7584,2.4936 L1.8324,5.9656 C1.8384,6.2426 1.9174,6.4636 2.0694,6.6266 C2.2224,6.7896 2.3754,6.8896 2.5284,6.9276 C2.6824,6.9666 2.8424,6.9846 3.0094,6.9806 C3.1194,6.9776 3.2304,6.9646 3.3404,6.9366 C3.4504,6.9106 3.5674,6.8616 3.6954,6.7896 C3.8214,6.7176 3.9234,6.6076 4.0004,6.4606 C4.0774,6.3126 4.1134,6.1326 4.1084,5.9166 L4.0824,4.7006 L2.8144,4.7276 L2.7944,3.7186 L5.0804,3.6706 L5.1274,5.9056 Z" id="Fill-26" fill="#FFFFFF" mask="url(#mask-2)"></path>
                </g>
                <polygon id="Fill-29" fill="#FFFFFF" points="98.5532 22.1526 96.8872 26.9896 97.0432 29.6676 96.0252 29.7256 95.8672 27.0276 93.6542 22.4376 94.7542 22.3746 96.3002 25.6896 97.4632 22.2156"></polygon>
                <polygon id="Fill-31" fill="#FFFFFF" points="121.1333 19.0481 122.1313 18.8411 123.6333 26.1011 122.6353 26.3081"></polygon>
                <polygon id="Fill-33" fill="#FFFFFF" points="129.4019 24.7894 128.2979 25.0464 124.9969 20.5284 126.1609 25.5424 125.1779 25.7704 123.5019 18.5494 124.5849 18.2974 127.9349 22.8884 126.7529 17.7944 127.7249 17.5684"></polygon>
                <path d="M133.5688,21.5579 L132.7038,18.3569 C132.5978,17.9679 132.4228,17.7319 132.1758,17.6439 C131.9278,17.5559 131.6758,17.5479 131.4148,17.6189 L130.2308,17.9389 L131.6448,23.1669 L132.8498,22.8409 C133.1038,22.7729 133.3128,22.6379 133.4788,22.4389 C133.6428,22.2419 133.6738,21.9469 133.5688,21.5579 Z M134.5358,21.3079 C134.5868,21.4959 134.6118,21.6969 134.6118,21.9119 C134.6138,22.1259 134.5788,22.3629 134.5078,22.6189 C134.4358,22.8739 134.2838,23.1109 134.0508,23.3239 C133.8188,23.5379 133.5118,23.6969 133.1318,23.7989 L130.9318,24.3939 L128.9928,17.2279 L131.1508,16.6439 C131.5398,16.5379 131.8908,16.5189 132.2078,16.5849 C132.5218,16.6499 132.7758,16.7749 132.9708,16.9599 C133.1648,17.1449 133.3148,17.3279 133.4228,17.5109 C133.5278,17.6949 133.6078,17.8779 133.6588,18.0659 L134.5358,21.3079 Z" id="Fill-35" fill="#FFFFFF"></path>
                <path d="M139.9126,19.7669 C139.9746,19.9649 140.0046,20.1749 140.0046,20.3959 C140.0046,20.6189 139.9676,20.8579 139.8946,21.1169 C139.8226,21.3739 139.6666,21.6159 139.4246,21.8389 C139.1806,22.0629 138.8636,22.2359 138.4736,22.3569 C138.1626,22.4529 137.8656,22.4939 137.5866,22.4789 C137.3056,22.4639 137.0706,22.4089 136.8816,22.3109 C136.6916,22.2129 136.5196,22.0879 136.3676,21.9359 C136.2156,21.7839 136.0966,21.6319 136.0086,21.4809 C135.9226,21.3299 135.8556,21.1779 135.8086,21.0259 L134.1976,15.8219 L135.1606,15.5239 L136.7716,20.7279 C136.8346,20.9339 136.9266,21.0949 137.0476,21.2139 C137.1666,21.3329 137.3016,21.4049 137.4456,21.4279 C137.5906,21.4529 137.7216,21.4599 137.8406,21.4529 C137.9576,21.4459 138.0686,21.4259 138.1766,21.3929 C138.2796,21.3609 138.3836,21.3139 138.4806,21.2549 C138.5786,21.1959 138.6806,21.1159 138.7876,21.0129 C138.8926,20.9119 138.9616,20.7779 138.9946,20.6119 C139.0256,20.4459 139.0106,20.2599 138.9476,20.0549 L137.3366,14.8499 L138.2996,14.5519 L139.9126,19.7669 Z" id="Fill-37" fill="#FFFFFF"></path>
                <path d="M145.2251,17.9974 C145.4121,18.5564 145.3641,19.0894 145.0771,19.5994 C144.7911,20.1074 144.3421,20.4644 143.7331,20.6704 C143.1081,20.8804 142.5411,20.8664 142.0341,20.6264 C141.5261,20.3884 141.1761,19.9854 140.9871,19.4214 L141.9421,19.1014 C142.0471,19.4154 142.2351,19.6254 142.5001,19.7294 C142.7641,19.8354 143.0651,19.8294 143.4011,19.7184 C143.7681,19.5944 144.0321,19.4014 144.1881,19.1404 C144.3461,18.8784 144.3731,18.5974 144.2721,18.2944 C144.1371,17.8934 143.8271,17.6434 143.3381,17.5444 C142.9631,17.4664 142.3321,17.3674 141.4521,17.2474 C141.1231,17.2044 140.8211,17.0674 140.5471,16.8374 C140.2721,16.6084 140.0771,16.3194 139.9591,15.9724 C139.7801,15.4384 139.8191,14.9394 140.0751,14.4734 C140.3321,14.0064 140.7501,13.6764 141.3271,13.4824 C141.9321,13.2794 142.4851,13.2924 142.9851,13.5224 C143.4871,13.7524 143.8301,14.1434 144.0161,14.6954 L143.0491,15.0204 C142.9501,14.7184 142.7701,14.5144 142.5121,14.4114 C142.2541,14.3084 141.9631,14.3104 141.6411,14.4184 C141.3461,14.5184 141.1271,14.6814 140.9851,14.9074 C140.8401,15.1364 140.8171,15.3904 140.9111,15.6734 C141.0261,16.0154 141.2951,16.2164 141.7191,16.2784 C142.8971,16.4544 143.4931,16.5424 143.5081,16.5444 C144.3751,16.6914 144.9501,17.1754 145.2251,17.9974" id="Fill-39" fill="#FFFFFF"></path>
                <polygon id="Fill-41" fill="#FFFFFF" points="148.4937 12.0315 146.8487 12.6505 149.1027 18.6355 148.1577 18.9905 145.9057 13.0065 144.2707 13.6215 143.9117 12.6685 148.1347 11.0775"></polygon>
                <path d="M152.8433,11.7156 L152.7303,11.4366 C152.5823,11.0696 152.3773,10.8596 152.1153,10.8046 C151.8553,10.7496 151.5983,10.7726 151.3483,10.8736 L150.2293,11.3246 L151.1213,13.5326 L152.2583,13.0726 C152.3673,13.0286 152.4673,12.9766 152.5533,12.9156 C152.6413,12.8536 152.7263,12.7686 152.8103,12.6596 C152.8923,12.5516 152.9393,12.4166 152.9483,12.2566 C152.9583,12.0956 152.9243,11.9146 152.8433,11.7156 Z M155.9063,15.9386 L154.8463,16.3686 L152.4013,14.0916 L151.4943,14.4576 L152.6283,17.2626 L151.6933,17.6416 L148.9163,10.7676 L150.9893,9.9306 C151.2913,9.8086 151.5803,9.7456 151.8563,9.7426 C152.1303,9.7396 152.3633,9.7786 152.5533,9.8596 C152.7423,9.9396 152.9163,10.0506 153.0733,10.1936 C153.2323,10.3346 153.3563,10.4736 153.4443,10.6096 C153.5333,10.7456 153.6063,10.8846 153.6623,11.0256 L153.7913,11.3436 C153.8713,11.5436 153.9253,11.7586 153.9513,11.9906 C153.9793,12.2236 153.9473,12.4916 153.8583,12.7976 C153.7683,13.1026 153.5993,13.3646 153.3513,13.5846 L155.9063,15.9386 Z" id="Fill-43" fill="#FFFFFF"></path>
                <polygon id="Fill-45" fill="#FFFFFF" points="158.0337 6.8733 158.1857 11.9853 159.2787 14.4353 158.3477 14.8513 157.2467 12.3833 153.5517 8.8733 154.5577 8.4243 157.1787 10.9783 157.0367 7.3183"></polygon>
                <polygon id="Fill-47" fill="#FFFFFF" points="167.6079 10.4319 166.7169 10.8819 165.8089 9.0809 163.0039 10.4959 162.5969 9.6879 162.0589 4.9279 162.9399 4.4839 163.4789 9.1499 165.3639 8.1989 164.1649 5.8229 165.0549 5.3729"></polygon>
                <polygon id="Fill-49" fill="#FFFFFF" points="170.02 9.1648 168.846 9.7918 168.219 8.6188 169.391 7.9908"></polygon>
                <path d="M172.9585,5.366 L171.1965,2.254 C171.0055,1.916 170.7855,1.736 170.5375,1.713 C170.2905,1.69 170.0535,1.741 169.8305,1.867 C169.7335,1.923 169.6485,1.985 169.5725,2.055 C169.4975,2.127 169.4265,2.219 169.3585,2.332 C169.2925,2.446 169.2635,2.581 169.2725,2.739 C169.2825,2.897 169.3395,3.066 169.4415,3.247 L171.2035,6.36 C171.3955,6.698 171.6175,6.877 171.8735,6.901 C172.1295,6.923 172.3675,6.871 172.5925,6.745 C172.6875,6.691 172.7745,6.627 172.8505,6.556 C172.9245,6.487 172.9945,6.395 173.0595,6.283 C173.1235,6.171 173.1475,6.036 173.1335,5.877 C173.1195,5.718 173.0615,5.547 172.9585,5.366 Z M173.8185,4.903 C173.9145,5.072 173.9875,5.258 174.0385,5.459 C174.0895,5.662 174.1095,5.893 174.1025,6.152 C174.0945,6.412 174.0015,6.674 173.8235,6.937 C173.6465,7.201 173.3865,7.43 173.0415,7.625 C172.7105,7.813 172.3895,7.913 172.0775,7.926 C171.7665,7.939 171.4985,7.882 171.2745,7.753 C171.0515,7.625 170.8645,7.486 170.7155,7.335 C170.5655,7.184 170.4435,7.025 170.3485,6.856 L168.5705,3.716 C168.4995,3.589 168.4385,3.45 168.3895,3.3 C168.3395,3.148 168.3085,2.969 168.2935,2.762 C168.2795,2.554 168.2995,2.354 168.3545,2.16 C168.4065,1.967 168.5185,1.767 168.6845,1.561 C168.8505,1.356 169.0715,1.175 169.3505,1.017 C169.6875,0.826 170.0115,0.722 170.3205,0.706 C170.6305,0.691 170.8965,0.747 171.1205,0.875 C171.3445,1.003 171.5295,1.141 171.6785,1.288 C171.8245,1.437 171.9455,1.594 172.0415,1.763 L173.8185,4.903 Z" id="Fill-51" fill="#FFFFFF"></path>
            </g>
        </g>
    </g>
</svg>