<?xml version="1.0" encoding="UTF-8"?>
<svg width="131px" height="14px" viewBox="0 0 131 14" version="1.1" xmlns="http://www.w3.org/2000/svg" xmlns:xlink="http://www.w3.org/1999/xlink">
    <!-- Generator: Sketch 48 (47235) - http://www.bohemiancoding.com/sketch -->
    <title>Page 1</title>
    <desc>Created with Sketch.</desc>
    <defs></defs>
    <g id="Page-1" stroke="none" stroke-width="1" fill="none" fill-rule="evenodd">
        <g>
            <path d="M0,13.3367 L0.762,13.3367 L0.762,0.0907 L0,0.0907 L0,13.3367 Z M11.202,13.3367 L6.762,5.9437 L10.886,0.0907 L9.976,0.0907 L4.756,7.5037 L4.756,0.0907 L3.994,0.0907 L3.994,13.3367 L4.756,13.3367 L4.756,8.8777 L6.316,6.6497 L10.255,13.3367 L11.202,13.3367 Z M20.249,13.3367 L20.249,12.5937 L14.174,12.5937 L14.174,6.6867 L19.785,6.6867 L19.785,5.9437 L14.174,5.9437 L14.174,0.8337 L20.249,0.8337 L20.249,0.0907 L13.413,0.0907 L13.413,13.3367 L20.249,13.3367 Z M30.095,13.3367 L27.439,7.4107 C29.65,6.9277 30.133,5.0517 30.133,4.0667 L30.133,3.3977 C30.133,2.3207 29.557,0.0907 26.714,0.0907 L22.924,0.0907 L22.924,13.3367 L23.686,13.3367 L23.686,7.4487 L26.621,7.4487 L29.204,13.3367 L30.095,13.3367 Z M29.371,4.0477 C29.371,6.2217 27.68,6.7047 26.751,6.7047 L23.686,6.7047 L23.686,0.8337 L26.714,0.8337 C27.643,0.8337 29.371,1.2427 29.371,3.4537 L29.371,4.0477 Z M39.663,13.3367 L39.663,12.5747 L33.607,12.5747 L33.607,0.0907 L32.845,0.0907 L32.845,13.3367 L39.663,13.3367 Z M50.382,13.3367 L46.853,0.0907 L44.958,0.0907 L41.502,13.3367 L42.227,13.3367 L43.267,9.3987 L48.599,9.3987 L49.621,13.3367 L50.382,13.3367 Z M48.395,8.6557 L43.453,8.6557 L45.496,0.8157 L46.351,0.8157 L48.395,8.6557 Z M59.875,13.3367 L59.875,0.0907 L59.114,0.0907 L59.114,12.5937 L53.801,0.0907 L52.593,0.0907 L52.593,13.3367 L53.355,13.3367 L53.355,0.9827 L58.612,13.3367 L59.875,13.3367 Z" id="Fill-1" fill="#000000"></path>
            <polygon id="Fill-3" fill="#000000" points="75.9353 13.3457 71.5613 6.1057 75.7673 0.0927 72.9383 0.0927 69.6813 4.8957 69.6813 0.0927 67.2613 0.0927 67.2613 13.3457 69.6813 13.3457 69.6813 8.9147 70.1463 8.2447 73.0683 13.3457"></polygon>
            <polygon id="Fill-4" fill="#00EF16" points="100.975 13.3672 100.975 0.1152 98.566 0.1152 98.566 7.5962 95.329 0.1152 95.235 0.1152 92.844 0.1152 92.826 0.1152 92.826 7.5962 89.589 0.1152 87.104 0.1152 87.104 13.3672 89.551 13.3672 89.551 6.0332 92.713 13.3672 92.844 13.3672 95.235 13.3672 95.291 13.3672 95.291 6.0332 98.453 13.3672"></polygon>
            <polygon id="Fill-5" fill="#000000" points="110.7098 13.3672 110.7098 10.9672 105.4428 10.9672 105.4428 7.5972 110.3188 7.5972 110.3188 5.1962 105.4428 5.1962 105.4428 2.5162 110.7098 2.5162 110.7098 0.1152 103.0418 0.1152 103.0418 13.3672"></polygon>
            <polygon id="Fill-6" fill="#000000" points="130.8906 2.5352 130.8906 0.1152 122.5526 0.1152 122.5526 2.5352 125.5116 2.5352 125.5116 13.3672 127.9126 13.3672 127.9126 2.5352"></polygon>
            <polygon id="Fill-7" fill="#000000" points="121.5127 13.3672 117.1387 6.1282 121.3447 0.1152 118.5157 0.1152 115.2587 4.9182 115.2587 0.1152 112.8397 0.1152 112.8397 13.3672 115.2587 13.3672 115.2587 8.9372 115.7247 8.2672 118.6467 13.3672"></polygon>
            <path d="M85.0187,9.6787 L85.0187,3.7597 C85.0187,2.5137 84.1067,-0.0003 81.0357,-0.0003 C77.8337,-0.0003 77.0337,2.5137 77.0337,3.7417 L77.0337,9.6597 C77.0337,10.9257 77.9087,13.5137 81.0167,13.5137 C84.1807,13.5137 85.0187,10.9457 85.0187,9.6787 Z M82.5807,9.6597 C82.5807,10.9077 81.5197,11.0937 81.0357,11.0937 C80.5137,11.0937 79.4347,10.9077 79.4347,9.6597 L79.4347,3.7797 C79.4347,2.5497 80.5137,2.3817 81.0357,2.3817 C81.5197,2.3817 82.5807,2.5497 82.5807,3.7797 L82.5807,9.6597 Z" id="Fill-8" fill="#000000"></path>
        </g>
    </g>
</svg>