<?xml version="1.0" encoding="UTF-8"?>
<svg width="61px" height="61px" viewBox="0 0 61 61" version="1.1" xmlns="http://www.w3.org/2000/svg" xmlns:xlink="http://www.w3.org/1999/xlink">
    <!-- Generator: Sketch 48 (47235) - http://www.bohemiancoding.com/sketch -->
    <title>Page 1</title>
    <desc>Created with Sketch.</desc>
    <defs></defs>
    <g id="Page-1" stroke="none" stroke-width="1" fill="none" fill-rule="evenodd">
        <g>
            <path d="M30.1813,59.715 C46.4923,59.715 59.7153,46.492 59.7153,30.182 C59.7153,13.871 46.4923,0.649 30.1813,0.649 C13.8703,0.649 0.6473,13.871 0.6473,30.182 C0.6473,46.492 13.8703,59.715 30.1813,59.715 Z" id="Stroke-1" stroke="#FFFFFF" stroke-width="1.295"></path>
            <polygon id="Fill-3" fill="#FEFEFE" points="13.734 30.5195 15.033 30.5195 15.033 13.6735 13.734 13.6735"></polygon>
            <path d="M30.8723,32.5516 L30.8723,28.4646 C30.8723,25.7466 29.0763,24.0696 26.3123,24.0696 C23.5713,24.0696 21.7283,25.7946 21.7283,28.4646 L21.7283,32.5516 C21.7283,35.2926 23.5243,36.9696 26.3123,36.9696 C29.0293,36.9696 30.8723,35.2446 30.8723,32.5516 Z M29.5733,32.5516 C29.5733,34.5366 28.3203,35.6936 26.3123,35.6936 C23.6663,35.6936 23.0283,33.9696 23.0283,32.5516 L23.0283,28.4646 C23.0283,26.4796 24.2803,25.3456 26.3123,25.3456 C28.9353,25.3456 29.5733,27.0466 29.5733,28.4646 L29.5733,32.5516 Z" id="Fill-4" fill="#FEFEFE"></path>
            <polygon id="Fill-6" fill="#FEFEFE" points="46.6287 31.0802 46.6287 29.7782 36.7877 29.7782 36.7877 31.0802 41.0567 31.0802 41.0567 46.6892 42.3587 46.6892 42.3587 31.0802"></polygon>
        </g>
    </g>
</svg>