<?xml version="1.0" encoding="UTF-8"?>
<svg width="391px" height="157px" viewBox="0 0 391 157" version="1.1" xmlns="http://www.w3.org/2000/svg" xmlns:xlink="http://www.w3.org/1999/xlink">
    <!-- Generator: Sketch 48 (47235) - http://www.bohemiancoding.com/sketch -->
    <title>Group-3</title>
    <desc>Created with Sketch.</desc>
    <defs>
        <polygon id="path-1" points="0 0.378 466.6218 0.378 466.6218 467 0 467"></polygon>
        <polygon id="path-3" points="0.3114 0.7635 393.252 0.7635 393.252 156.6155 0.3114 156.6155"></polygon>
    </defs>
    <g id="Page-1" stroke="none" stroke-width="1" fill="none" fill-rule="evenodd">
        <g id="ikerlan-circle" transform="translate(-76.000000, -156.000000)">
            <g id="Group-97" transform="translate(0.000000, 0.622000)">
                <g id="Group-3">
                    <g id="Fill-1-Clipped">
                        <g id="Group-2">
                            <g id="Group">
                                <mask id="mask-2" fill="white">
                                    <use xlink:href="#path-1"></use>
                                </mask>
                                <g id="path-1"></g>
                                <g id="Group-70" mask="url(#mask-2)">
                                    <g transform="translate(76.000000, 155.000000)" id="Fill-68-Clipped">
                                        <g>
                                            <mask id="mask-4" fill="white">
                                                <use xlink:href="#path-3"></use>
                                            </mask>
                                            <g id="path-3"></g>
                                            <path d="M0.5364,0.7635 L0.3574,0.7635 C0.3594,1.7075 0.3674,2.6425 0.3634,3.5965 C0.3574,5.1775 0.3324,6.7855 0.3114,8.3855 L0.4124,8.1835 C0.4404,8.1295 0.4694,8.0745 0.4974,8.0195 C0.5224,5.5825 0.5354,3.1635 0.5364,0.7635 Z M349.6084,149.6525 C350.2634,149.6525 350.8184,149.3065 351.1714,148.8115 L351.6224,149.1015 C349.2434,151.4235 346.7934,153.7115 344.2394,155.9585 C345.7024,153.7785 347.1614,151.5755 348.6254,149.3475 C348.9154,149.5255 349.2434,149.6525 349.6084,149.6525 Z M362.4754,152.1785 C362.3674,151.9815 362.2374,151.8025 362.0704,151.6575 C362.4534,151.1815 362.8374,150.7085 363.2164,150.2325 C363.5104,149.8605 363.8194,149.4885 364.1104,149.1205 C365.0824,147.8845 366.0274,146.6495 366.9474,145.4145 C367.1634,145.1205 367.3714,144.8305 367.5874,144.5365 L367.6624,144.7635 C368.0564,145.9425 368.4554,147.0065 368.8574,148.0075 L368.7684,148.0745 C368.4144,148.3615 368.0604,148.6585 367.6994,148.9305 C367.3384,149.1985 366.9624,149.4475 366.5934,149.7005 C366.2324,149.9535 365.8784,150.2135 365.5104,150.4485 C365.1304,150.6945 364.7394,150.9135 364.3524,151.1445 C363.9874,151.3595 363.6264,151.5865 363.2534,151.7875 C362.9974,151.9255 362.7364,152.0445 362.4754,152.1785 Z M358.9724,152.4645 L358.9424,152.4575 C360.0744,149.2055 361.1914,145.9685 362.3004,142.7435 C361.8874,145.5555 361.4524,148.3765 361.0054,151.1965 L360.7924,151.1515 C359.9404,151.1515 359.2364,151.7055 358.9724,152.4645 Z M358.7824,152.4055 C358.5734,152.3385 358.3764,152.2975 358.1674,152.2195 C357.5084,151.9815 356.8314,151.6725 356.1504,151.3635 C355.9154,151.2555 355.6914,151.1815 355.4534,151.0665 C354.7764,150.7425 354.0834,150.3445 353.3874,149.9535 L353.7114,149.5625 C354.5714,148.5175 355.3864,147.4605 356.2244,146.4115 C357.3114,145.0535 358.4174,143.6995 359.4634,142.3375 C360.2674,141.2925 361.0164,140.2385 361.7974,139.1935 C362.2224,138.6275 362.6434,138.0625 363.0604,137.4975 C362.8554,138.9365 362.6474,140.3845 362.4384,141.8315 C361.2284,145.3435 360.0144,148.8675 358.7824,152.4055 Z M353.2274,149.8685 C353.0184,149.7485 352.8214,149.6635 352.6124,149.5375 L352.5574,149.5035 C352.3374,149.3725 352.1064,149.2055 351.8864,149.0715 C355.8854,145.1725 359.6424,141.1845 363.1164,137.0985 L363.1124,137.1395 C362.5204,137.9475 361.9284,138.7475 361.3254,139.5505 C360.4984,140.6555 359.6834,141.7645 358.8304,142.8625 C357.8364,144.1535 356.7984,145.4335 355.7664,146.7205 C354.9244,147.7695 354.0944,148.8225 353.2274,149.8685 Z M361.9284,151.5605 C361.7054,151.3975 361.4524,151.2855 361.1724,151.2295 L361.2054,150.9955 C361.3994,149.7785 361.5934,148.5625 361.7794,147.3455 C361.8614,146.8095 361.9394,146.2735 362.0214,145.7385 C362.2154,144.4505 362.4124,143.1595 362.6024,141.8725 C363.1604,140.2465 363.7194,138.6165 364.2774,137.0025 L364.4004,136.6375 C364.5754,136.6895 364.7504,136.7495 364.9444,136.7495 L365.3274,136.6715 C365.4204,137.0245 365.5104,137.3965 365.6034,137.7425 C365.7334,138.2525 365.8674,138.7285 366.0014,139.2165 C366.0984,139.5765 366.1994,139.9565 366.2954,140.3025 C366.4374,140.8085 366.5824,141.2765 366.7204,141.7575 C366.8064,142.0475 366.8954,142.3565 366.9804,142.6355 C367.1484,143.1815 367.3124,143.6875 367.4794,144.1975 L367.5244,144.3395 C367.3164,144.6225 367.1184,144.9045 366.9104,145.1915 C366.7794,145.3625 366.6384,145.5365 366.5074,145.7125 C365.6744,146.8245 364.8254,147.9405 363.9504,149.0535 C363.5704,149.5375 363.1714,150.0205 362.7844,150.5005 C362.5014,150.8535 362.2154,151.2075 361.9284,151.5605 Z M362.7284,140.9865 L362.7624,140.7525 C362.9334,139.5695 363.1014,138.3895 363.2684,137.2145 C363.4694,136.9395 363.6824,136.6635 363.8794,136.3885 L364.2364,136.6045 L364.1174,136.9465 C363.6554,138.2895 363.1904,139.6405 362.7284,140.9865 Z M363.3694,136.5035 L363.4434,135.9935 L363.6184,136.2135 L363.3694,136.5035 Z M369.7214,136.2955 C371.0204,136.2955 372.3274,136.0085 373.6084,135.4955 L373.2914,135.9895 C372.9754,136.4775 372.6734,136.9685 372.3494,137.4565 C371.7284,138.3935 371.0764,139.3315 370.4244,140.2725 C370.1864,140.6185 369.9594,140.9645 369.7134,141.3145 C369.0434,142.2665 368.3474,143.2155 367.6474,144.1715 C367.4724,143.6435 367.3014,143.1155 367.1264,142.5535 C367.0554,142.3115 366.9804,142.0395 366.9064,141.7865 C366.7534,141.2765 366.6014,140.7675 366.4444,140.2205 C366.3514,139.8855 366.2544,139.5135 366.1584,139.1635 C366.0234,138.6695 365.8894,138.1855 365.7524,137.6645 C365.6664,137.3375 365.5804,136.9765 365.4954,136.6375 C365.9904,136.4885 366.3884,136.1615 366.6304,135.7145 C367.6244,136.0865 368.6524,136.2955 369.7214,136.2955 Z M369.7694,149.7115 C369.6464,149.4435 369.5234,149.1615 369.4044,148.8785 C369.3304,148.7075 369.2554,148.5505 369.1814,148.3725 L369.0734,148.0935 L369.4864,147.7625 L369.9484,147.3935 C370.5404,146.8915 371.1174,146.3525 371.6904,145.8055 L372.0294,145.4965 C372.6554,144.8825 373.2694,144.2425 373.8724,143.5805 L374.0294,143.4125 C374.6364,142.7435 375.2284,142.0435 375.8084,141.3215 L375.9504,141.1545 C376.5754,140.3735 377.1864,139.5585 377.7824,138.7175 C378.3184,137.9655 378.8324,137.1885 379.3384,136.3955 C379.4984,136.1425 379.6514,135.8785 379.8114,135.6215 C380.1464,135.0675 380.4814,134.5125 380.8054,133.9435 L380.8354,133.8955 C380.7384,134.1265 380.6454,134.3645 380.5484,134.5915 C380.2244,135.3505 379.8854,136.0795 379.5504,136.8085 C379.2974,137.3525 379.0484,137.9065 378.7914,138.4345 C378.4294,139.1675 378.0574,139.8705 377.6814,140.5735 C377.4214,141.0655 377.1714,141.5675 376.9034,142.0395 C376.5014,142.7655 376.0764,143.4575 375.6524,144.1495 C375.3984,144.5665 375.1534,145.0015 374.8964,145.4065 C374.3934,146.1925 373.8724,146.9365 373.3514,147.6805 C373.1544,147.9595 372.9644,148.2565 372.7634,148.5325 C372.4054,149.0195 372.0294,149.4695 371.6614,149.9385 C371.3404,149.7075 370.9724,149.5485 370.5474,149.5485 C370.2684,149.5485 370.0074,149.6075 369.7694,149.7115 Z M382.1794,131.0005 L382.2764,130.7325 C382.5144,130.1005 382.7454,129.4565 382.9764,128.8095 C383.2514,128.0315 383.5234,127.2425 383.7834,126.4395 C384.0034,125.7695 384.2194,125.0925 384.4314,124.4075 C384.5134,124.1365 384.6034,123.8755 384.6844,123.6045 C384.4804,124.5125 384.2714,125.4235 384.0634,126.3315 C383.9584,126.7635 383.8544,127.1945 383.7544,127.6225 L383.5384,128.1395 C383.3634,128.5265 383.1774,128.8985 382.9984,129.2785 C382.7264,129.8545 382.4624,130.4395 382.1794,131.0005 Z M368.9954,147.8955 C368.8914,147.6355 368.7834,147.3675 368.6784,147.0925 L368.4924,146.6165 C368.2764,146.0355 368.0644,145.4295 367.8484,144.7965 L367.8114,144.6815 L367.7104,144.3685 L368.0044,143.9595 C368.5784,143.1745 369.1584,142.3895 369.7104,141.6045 C370.0934,141.0615 370.4544,140.5255 370.8234,139.9865 C371.3254,139.2565 371.8324,138.5275 372.3164,137.7985 C372.6884,137.2405 373.0464,136.6785 373.4074,136.1205 C373.5634,135.8745 373.7274,135.6335 373.8804,135.3875 C378.1844,133.5495 382.1904,129.0215 384.6704,123.0095 C384.5504,123.4075 384.4354,123.8085 384.3164,124.2035 C384.1114,124.8765 383.9024,125.5465 383.6904,126.2015 C383.4194,127.0275 383.1434,127.8305 382.8604,128.6275 C382.6374,129.2635 382.4134,129.8955 382.1824,130.5135 C381.9524,131.1275 381.7094,131.7225 381.4714,132.3215 C381.2144,132.7975 380.9694,133.2815 380.7044,133.7465 C380.4924,134.1185 380.2694,134.4725 380.0494,134.8365 C379.7444,135.3465 379.4464,135.8605 379.1294,136.3545 C378.8914,136.7265 378.6424,137.0765 378.4004,137.4375 C378.0834,137.9025 377.7744,138.3785 377.4504,138.8295 C377.1904,139.1895 376.9184,139.5325 376.6544,139.8815 C376.3264,140.3095 376.0094,140.7455 375.6744,141.1615 C375.3954,141.5075 375.0974,141.8355 374.8104,142.1735 C374.4794,142.5645 374.1524,142.9665 373.8054,143.3425 C373.5074,143.6765 373.1954,143.9855 372.8854,144.3015 C372.5394,144.6635 372.2004,145.0275 371.8504,145.3705 C371.5304,145.6825 371.1994,145.9725 370.8684,146.2735 C370.5184,146.5975 370.1714,146.9255 369.8144,147.2335 C369.5464,147.4645 369.2674,147.6725 368.9954,147.8955 Z M384.1564,126.6555 C384.2124,126.4205 384.2644,126.1865 384.3194,125.9525 C384.5804,124.8285 384.8444,123.7085 385.0944,122.5845 L385.4374,122.6515 L385.7124,122.5965 L385.5334,123.0835 C385.2884,123.7795 385.0464,124.4785 384.7814,125.1595 C384.6324,125.5425 384.4654,125.9075 384.3124,126.2835 L384.1564,126.6555 Z M379.3234,144.5325 C380.0644,142.1255 380.7794,139.7105 381.4534,137.2845 L381.5504,136.9315 C382.2644,134.3425 382.9464,131.7415 383.5864,129.1325 C383.7054,128.6535 383.8064,128.1695 383.9214,127.6895 L383.9364,127.6525 C384.2124,127.0125 384.4764,126.3655 384.7334,125.7135 C384.8444,125.4275 384.9644,125.1525 385.0754,124.8615 C385.3624,124.1035 385.6384,123.3325 385.9064,122.5585 L386.1664,122.5035 L386.1294,122.6475 C385.8984,123.5745 385.6684,124.5015 385.4224,125.4235 C385.1984,126.2645 384.9674,127.1055 384.7334,127.9425 C384.4684,128.8765 384.2044,129.8145 383.9294,130.7475 C383.6834,131.5815 383.4264,132.4185 383.1694,133.2555 C382.8754,134.1965 382.5814,135.1385 382.2724,136.0795 C382.0004,136.9125 381.7244,137.7505 381.4424,138.5835 C381.1184,139.5325 380.7904,140.4805 380.4554,141.4255 C380.1574,142.2595 379.8594,143.0895 379.5544,143.9185 C379.4794,144.1235 379.3984,144.3285 379.3234,144.5325 Z M387.8724,118.2465 L387.8644,118.2425 L387.8794,117.7555 L387.8864,117.5435 L387.9834,117.5255 C387.9464,117.7635 387.9134,118.0125 387.8724,118.2465 Z M387.3434,118.2545 C387.3994,117.9975 387.4624,117.7445 387.5184,117.4875 L387.7194,117.5285 C387.7114,117.7225 387.7084,117.9115 387.7004,118.0865 L387.6974,118.2095 L387.6264,118.1945 L387.3434,118.2545 Z M388.3894,118.3515 L388.0394,118.2805 L388.0874,118.1125 C388.1474,117.9225 388.2034,117.7255 388.2594,117.5215 L388.2744,117.4655 C388.4934,117.4175 388.6874,117.3385 388.8694,117.2195 C388.7244,117.6325 388.5604,118.0045 388.3894,118.3515 Z M388.8324,113.9645 L388.7204,113.8895 L388.7584,113.6185 C388.8174,113.1945 388.8734,112.7585 388.9334,112.3305 C389.0264,111.6315 389.1194,110.9325 389.2124,110.2175 C389.2724,109.7335 389.3284,109.2395 389.3874,108.7485 C389.4694,108.0635 389.5514,107.3715 389.6294,106.6685 C389.6854,106.1435 389.7414,105.6115 389.7974,105.0755 C389.8674,104.3765 389.9384,103.6695 390.0054,102.9515 C390.0274,102.7055 390.0534,102.4755 390.0794,102.2255 L390.0504,102.6095 C390.0204,103.0295 389.9904,103.4425 389.9574,103.8555 C389.9344,104.1455 389.9084,104.4325 389.8864,104.7145 C389.8524,105.1385 389.8194,105.5555 389.7824,105.9685 C389.7594,106.2295 389.7334,106.4855 389.7114,106.7425 C389.6704,107.1775 389.6294,107.6135 389.5884,108.0375 C389.5664,108.2495 389.5434,108.4615 389.5214,108.6735 C389.4734,109.1355 389.4244,109.5885 389.3724,110.0355 L389.3164,110.5115 C389.2604,110.9875 389.2014,111.4565 389.1374,111.9105 L389.0894,112.2675 C389.0224,112.7435 388.9554,113.2015 388.8844,113.6445 L388.8404,113.9155 L388.8324,113.9645 Z M388.5604,113.8005 L388.2184,113.7335 C388.4084,112.5095 388.5904,111.3005 388.7654,110.1025 C388.8364,109.6185 388.9034,109.1385 388.9704,108.6585 C389.1974,107.0475 389.4134,105.4625 389.6104,103.9075 C389.6374,103.7145 389.6624,103.5165 389.6854,103.3275 C389.8604,101.9245 390.0244,100.5445 390.1764,99.1865 L390.1654,99.3275 C390.0354,100.8975 389.8934,102.4155 389.7484,103.9005 C389.7154,104.2345 389.6774,104.5665 389.6484,104.8975 C389.5024,106.3075 389.3504,107.6875 389.1904,109.0235 L389.1564,109.3285 C388.9854,110.7315 388.8024,112.0895 388.6124,113.4285 L388.5604,113.8005 Z M374.0664,135.1045 C374.3004,134.7365 374.5314,134.3715 374.7624,134.0035 C375.1204,133.4345 375.4584,132.8645 375.8044,132.2955 C376.2214,131.6035 376.6424,130.9155 377.0444,130.2265 C377.3834,129.6505 377.7034,129.0775 378.0274,128.5005 C378.4144,127.8195 378.7944,127.1385 379.1664,126.4615 C379.4794,125.8855 379.7774,125.3125 380.0824,124.7355 C380.4324,124.0615 380.7834,123.3885 381.1184,122.7155 C381.4084,122.1385 381.6874,121.5655 381.9674,120.9925 C382.2874,120.3225 382.6034,119.6565 382.9084,118.9905 C383.1694,118.4215 383.4264,117.8525 383.6794,117.2825 C383.9704,116.6175 384.2524,115.9515 384.5324,115.2885 C384.7664,114.7235 385.0014,114.1575 385.2254,113.5955 C385.4854,112.9335 385.7344,112.2755 385.9844,111.6165 C386.1924,111.0585 386.4014,110.5005 386.5954,109.9425 C386.8294,109.2835 387.0494,108.6255 387.2654,107.9665 C387.4474,107.4195 387.6304,106.8695 387.7974,106.3225 C388.0024,105.6635 388.1884,105.0085 388.3744,104.3535 C388.5274,103.8145 388.6834,103.2745 388.8254,102.7395 C389.0004,102.0765 389.1524,101.4185 389.3094,100.7635 C389.4354,100.2395 389.5664,99.7145 389.6774,99.1975 C389.8264,98.5205 389.9494,97.8465 390.0764,97.1735 C390.1694,96.6825 390.2734,96.1875 390.3554,95.7005 L390.3634,95.6585 C390.3254,96.0195 390.2954,96.3695 390.2584,96.7305 C390.1874,97.4335 390.1134,98.1445 390.0354,98.8625 C389.9164,99.9345 389.7894,101.0275 389.6554,102.1325 C389.5734,102.8285 389.4874,103.5245 389.3984,104.2315 C389.2424,105.4665 389.0704,106.7275 388.8924,108.0005 C388.8104,108.6025 388.7324,109.1905 388.6424,109.8015 C388.4564,111.0775 388.2554,112.3905 388.0504,113.7005 L387.8464,113.6595 C386.7694,113.6595 385.8984,114.5295 385.8984,115.6055 C385.8984,116.4795 386.4864,117.1895 387.2804,117.4395 C387.2024,117.7295 387.1274,118.0235 387.0494,118.3135 C386.6914,118.4255 386.3934,118.6265 386.1554,118.9015 C385.9324,118.8115 385.6904,118.7565 385.4374,118.7565 C384.3574,118.7565 383.4864,119.6305 383.4864,120.7055 C383.4864,121.5175 383.9854,122.2095 384.6884,122.4995 C383.2404,126.1455 381.1664,129.4015 378.7274,131.8045 C377.2494,133.2665 375.6674,134.3715 374.0664,135.1045 Z M390.7614,94.2785 L390.8474,94.2605 C390.8284,94.9965 390.8094,95.7335 390.7944,96.4625 C390.6644,103.1745 390.5264,110.0275 389.5514,114.7125 C389.4134,114.4555 389.2194,114.2395 388.9854,114.0685 L389.0554,113.6485 C389.0854,113.4585 389.1114,113.2575 389.1414,113.0595 C389.1864,112.7555 389.2344,112.4535 389.2794,112.1375 C389.3134,111.8775 389.3464,111.6015 389.3804,111.3335 C389.4174,111.0475 389.4544,110.7685 389.4914,110.4745 C389.5544,109.9385 389.6144,109.3915 389.6744,108.8295 L389.7224,108.3465 C389.7714,107.8995 389.8154,107.4455 389.8564,106.9805 L389.9044,106.4745 C389.9464,106.0095 389.9864,105.5375 390.0274,105.0575 L390.0684,104.5555 C390.1094,104.0605 390.1464,103.5655 390.1844,103.0635 L390.2214,102.5835 C390.2584,102.0765 390.2924,101.5675 390.3294,101.0535 C390.3404,100.8785 390.3514,100.7085 390.3634,100.5325 C390.3964,100.0195 390.4304,99.5065 390.4634,98.9925 L390.4964,98.4905 C390.5264,97.9655 390.5604,97.4415 390.5904,96.9165 L390.6194,96.4175 C390.6494,95.8975 390.6794,95.3805 390.7054,94.8625 C390.7164,94.6845 390.7274,94.5055 390.7384,94.3235 L390.7384,94.2755 L390.7614,94.2785 Z M390.7764,79.4185 L391.2044,79.3335 C391.1934,80.0435 391.1814,80.7505 391.1594,81.5135 L391.1484,81.9705 C391.1184,83.0875 391.0814,84.2445 391.0294,85.4495 L391.0214,85.5905 L391.0034,86.0265 L390.7764,86.0745 C390.7724,85.8335 390.7654,85.5765 390.7574,85.3305 C390.7424,84.7165 390.7314,84.1025 390.7124,83.4665 C390.7014,83.0315 390.6864,82.5805 390.6714,82.1345 C390.6494,81.4645 390.6274,80.7875 390.6014,80.0955 C390.5934,79.8535 390.5864,79.6195 390.5754,79.3775 L390.7764,79.4185 Z M351.7454,148.9785 L351.2644,148.6695 C351.4364,148.3835 351.5594,148.0675 351.5594,147.7065 C351.5594,146.8545 351.0044,146.1515 350.2444,145.8865 C350.6434,144.5735 351.0344,143.2675 351.4254,141.9615 C351.6144,141.3255 351.8124,140.6815 351.9984,140.0455 C352.1514,139.5395 352.2924,139.0445 352.4414,138.5425 C357.5204,121.3535 361.9584,104.9495 365.9384,90.2225 C366.5304,88.0245 367.1114,85.8815 367.6844,83.7645 C367.8594,83.1165 368.0384,82.4625 368.2094,81.8185 C368.3144,81.4385 368.4144,81.0665 368.5184,80.6875 C368.7904,79.6865 369.0624,78.6895 369.3304,77.7035 C369.4384,77.3165 369.5424,76.9335 369.6464,76.5495 C369.7734,76.0885 369.8964,75.6315 370.0234,75.1755 L370.1864,75.2065 C370.0974,76.1275 370.0114,77.0485 369.9224,78.0085 L369.8814,78.4135 C369.7734,79.5895 369.6574,80.7915 369.5384,82.0195 C369.5164,82.2465 369.4934,82.4805 369.4714,82.7075 C369.3604,83.8615 369.2444,85.0295 369.1254,86.2275 C369.0914,86.5775 369.0544,86.9375 369.0204,87.2915 C368.9094,88.3855 368.7974,89.4865 368.6864,90.6135 C368.6374,91.0785 368.5854,91.5585 368.5404,92.0275 C368.4294,93.0805 368.3254,94.1335 368.2094,95.2085 C368.1494,95.7855 368.0864,96.3765 368.0274,96.9615 C367.9194,97.9435 367.8184,98.9215 367.7064,99.9225 C367.6284,100.6675 367.5424,101.4255 367.4614,102.1775 C367.3644,103.0485 367.2714,103.9145 367.1744,104.7965 C367.0734,105.7005 366.9664,106.6165 366.8614,107.5315 C366.7764,108.2865 366.6904,109.0425 366.6044,109.8085 C366.4784,110.8835 366.3514,111.9735 366.2214,113.0635 C366.1464,113.6855 366.0764,114.3065 366.0014,114.9315 C365.8524,116.1855 365.6924,117.4505 365.5394,118.7155 C365.4804,119.2025 365.4204,119.6865 365.3614,120.1745 C365.1784,121.6245 364.9924,123.0835 364.8064,124.5495 C364.7654,124.8695 364.7284,125.1855 364.6834,125.5015 C364.4634,127.2135 364.2364,128.9355 364.0064,130.6655 L363.9724,130.9045 C363.8604,131.7265 363.7454,132.5555 363.6294,133.3785 C363.2464,133.7355 362.9974,134.2345 362.9974,134.7995 C362.9974,135.1675 363.1234,135.4915 363.3024,135.7855 C363.2574,136.1015 363.2124,136.4215 363.1684,136.7375 C359.6234,140.9235 355.8114,145.0055 351.7454,148.9785 Z M370.4474,75.2595 C370.7564,75.2595 371.0394,75.1735 371.2994,75.0435 C371.6574,75.6905 372.0184,76.3525 372.3644,76.9775 C372.7034,77.5845 373.0234,78.1535 373.3514,78.7375 C373.6454,79.2625 373.9434,79.7985 374.2304,80.3035 C374.5724,80.9035 374.9004,81.4645 375.2354,82.0385 C375.4994,82.4955 375.7754,82.9755 376.0354,83.4145 C376.3714,83.9805 376.6954,84.5045 377.0264,85.0445 C377.2754,85.4575 377.5324,85.8925 377.7824,86.2865 C378.1134,86.8155 378.4374,87.2955 378.7614,87.7935 C379.0034,88.1585 379.2454,88.5485 379.4834,88.9025 C379.8224,89.3975 380.1534,89.8435 380.4854,90.3085 C380.7044,90.6135 380.9284,90.9455 381.1474,91.2355 C381.4944,91.6925 381.8324,92.0985 382.1754,92.5185 C382.3804,92.7645 382.5844,93.0435 382.7894,93.2775 L383.0764,93.5865 C382.7344,93.9365 382.5184,94.4165 382.5184,94.9445 C382.5184,96.0165 383.3894,96.8905 384.4654,96.8905 C385.1244,96.8905 385.6794,96.5445 386.0324,96.0425 C386.4124,96.1835 386.7994,96.2725 387.1874,96.2725 C387.5184,96.2725 387.8314,96.2025 388.1324,96.1055 L388.3154,96.0455 C388.6014,95.9305 388.8694,95.7785 389.1194,95.5845 L389.2534,95.4655 C389.4804,95.2685 389.6884,95.0415 389.8794,94.7775 L389.9574,94.6765 C390.0614,94.5205 390.1504,94.3495 390.2404,94.1745 L390.4004,94.2085 C390.3744,94.4045 390.3484,94.6025 390.3144,94.8035 C390.2284,95.3505 390.1464,95.8935 390.0464,96.4445 C389.9344,97.0725 389.8084,97.7055 389.6774,98.3375 C389.5624,98.8915 389.4504,99.4505 389.3204,100.0125 C389.1784,100.6405 389.0154,101.2775 388.8554,101.9095 C388.7134,102.4785 388.5714,103.0445 388.4154,103.6175 C388.2404,104.2535 388.0464,104.8935 387.8574,105.5335 C387.6824,106.1105 387.5104,106.6835 387.3284,107.2635 C387.1234,107.9035 386.8964,108.5505 386.6734,109.1945 C386.4714,109.7785 386.2784,110.3595 386.0624,110.9435 C385.8244,111.5945 385.5634,112.2495 385.3104,112.9045 C385.0834,113.4885 384.8594,114.0685 384.6184,114.6565 C384.3494,115.3145 384.0594,115.9805 383.7694,116.6395 C383.5154,117.2275 383.2694,117.8115 383.0024,118.3995 C382.7004,119.0685 382.3724,119.7465 382.0484,120.4235 C381.7694,121.0035 381.5014,121.5875 381.2144,122.1685 C380.8724,122.8535 380.5114,123.5415 380.1534,124.2295 C379.8524,124.8065 379.5614,125.3825 379.2494,125.9635 C378.8734,126.6665 378.4674,127.3735 378.0724,128.0805 C377.7564,128.6455 377.4464,129.2115 377.1194,129.7765 C376.6914,130.5175 376.2374,131.2575 375.7904,131.9945 C375.4664,132.5335 375.1534,133.0695 374.8184,133.6095 C374.4834,134.1485 374.1254,134.6845 373.7834,135.2235 C372.4204,135.8075 371.0504,136.1275 369.7214,136.1275 C368.6894,136.1275 367.6884,135.9265 366.7314,135.5735 C366.8324,135.3355 366.8914,135.0745 366.8914,134.7995 C366.8914,133.7245 366.0204,132.8535 364.9444,132.8535 C364.5164,132.8535 364.1404,133.0215 363.8194,133.2555 C365.8934,118.1125 367.5354,103.5095 368.8274,90.8555 C368.8504,90.6395 368.8724,90.4165 368.8944,90.2005 C369.0364,88.8095 369.1734,87.4475 369.3044,86.1045 L369.3374,85.7655 C369.4794,84.3445 369.6164,82.9565 369.7474,81.5995 L369.7544,81.5095 C369.8884,80.1335 370.0154,78.7895 370.1414,77.4835 L370.1414,77.4425 C370.2124,76.6875 370.2834,75.9695 370.3504,75.2405 L370.4474,75.2595 Z M390.2774,72.6385 L390.2774,72.6155 C390.2664,72.4265 390.2584,72.2425 390.2474,72.0515 L390.7094,72.1425 L390.7094,72.5535 L390.2774,72.6385 Z M383.2104,93.4865 L382.9054,93.1555 L382.6484,92.8385 C382.1904,92.2955 381.7284,91.7305 381.2634,91.1125 L381.0174,90.7705 C380.5484,90.1305 380.0754,89.4785 379.5954,88.7725 L379.4164,88.4935 C378.9144,87.7455 378.4074,86.9755 377.8974,86.1565 C377.7374,85.9075 377.5774,85.6245 377.4174,85.3675 C376.9964,84.6875 376.5754,84.0065 376.1474,83.2805 C375.9164,82.8895 375.6784,82.4695 375.4434,82.0675 C375.0824,81.4425 374.7174,80.8285 374.3454,80.1735 C373.4104,78.5225 372.4354,76.7625 371.4414,74.9485 C372.0004,74.6075 372.3944,74.0185 372.3944,73.3145 C372.3944,72.8095 372.1894,72.3575 371.8734,72.0105 C374.0964,69.8045 376.1584,67.8955 378.0764,66.3525 C378.3294,66.1485 378.5894,65.9215 378.8394,65.7315 C379.1554,65.4885 379.4534,65.2905 379.7624,65.0715 C380.0684,64.8535 380.3774,64.6155 380.6744,64.4205 C380.9544,64.2375 381.2184,64.0985 381.4944,63.9365 C381.8034,63.7515 382.1194,63.5455 382.4254,63.3875 C382.6814,63.2535 382.9314,63.1655 383.1804,63.0495 C383.4114,62.9465 383.6464,62.8325 383.8734,62.7475 C384.1304,63.5205 384.8374,64.0885 385.6974,64.0885 L385.8874,64.0505 C386.0214,64.9595 386.1634,65.8805 386.2784,66.7635 L386.2934,66.8995 C386.4754,68.3365 386.6364,69.7385 386.7774,71.0915 L386.7884,71.2215 C386.9294,72.5725 387.0564,73.8825 387.1644,75.1305 L387.1724,75.2325 C387.2834,76.4835 387.3844,77.6815 387.4774,78.8125 C387.6114,80.4045 387.7344,81.8515 387.8644,83.2065 C387.8904,83.4855 387.9164,83.7935 387.9464,84.0655 C387.9874,84.4745 388.0354,84.8325 388.0804,85.2115 C388.1214,85.5725 388.1624,85.9515 388.2074,86.2865 C388.2524,86.6255 388.3074,86.9115 388.3564,87.2205 C388.4084,87.5485 388.4564,87.9015 388.5194,88.2035 C388.5714,88.4785 388.6394,88.7055 388.6984,88.9585 C388.7624,89.2405 388.8254,89.5425 388.8994,89.7915 C388.9624,90.0075 389.0444,90.1745 389.1154,90.3685 C389.1934,90.5765 389.2684,90.8145 389.3544,90.9935 C389.0224,91.3435 388.8104,91.8115 388.8104,92.3295 C388.8104,93.1585 389.3394,93.8585 390.0684,94.1415 L390.0164,94.2415 L389.8494,94.5425 L389.6184,94.8365 L389.4284,95.0825 L389.1564,95.3275 L388.9404,95.5175 L388.6354,95.7035 L388.4004,95.8375 L388.0244,95.9675 L387.8164,96.0345 C387.6114,96.0795 387.4024,96.1055 387.1874,96.1055 C386.8334,96.1055 386.4794,96.0235 386.1294,95.8975 C386.2934,95.6145 386.4164,95.2985 386.4164,94.9445 C386.4164,93.8695 385.5414,92.9955 384.4654,92.9955 C383.9814,92.9955 383.5524,93.1925 383.2104,93.4865 Z M389.4844,90.8855 L389.4804,90.8775 C389.3834,90.6775 389.3014,90.4205 389.2164,90.1785 C389.1524,90.0035 389.0854,89.8505 389.0264,89.6535 C388.9444,89.3715 388.8774,89.0365 388.8024,88.7125 C388.7584,88.5005 388.7064,88.3145 388.6614,88.0835 C388.5904,87.7115 388.5304,87.2875 388.4674,86.8705 C388.4344,86.6405 388.3934,86.4395 388.3634,86.1975 C388.2964,85.7025 388.2334,85.1555 388.1774,84.6085 C388.1554,84.4045 388.1284,84.2215 388.1064,84.0095 C388.0394,83.3405 387.9724,82.6185 387.9054,81.8745 L387.8754,81.5395 C387.7974,80.6685 387.7234,79.7535 387.6444,78.7975 C387.5554,77.7485 387.4624,76.6285 387.3624,75.4675 L387.3214,75.0195 C387.2164,73.8115 387.0974,72.5495 386.9604,71.2465 L386.9444,71.0645 C386.7994,69.6995 386.6394,68.2845 386.4534,66.8375 L386.4464,66.7535 C386.3304,65.8565 386.2044,64.9395 386.0664,64.0135 C386.8814,63.8515 387.4954,63.2085 387.6004,62.3755 C387.8014,62.4375 388.0024,62.5015 388.1884,62.5935 C387.9204,62.9275 387.7384,63.3325 387.7384,63.7935 C387.7384,64.5085 388.1434,65.1105 388.7204,65.4465 L388.6944,65.5895 C388.6944,65.9465 388.8174,66.2625 388.9854,66.5515 L388.9404,66.7665 C388.9404,67.4645 389.3284,68.0485 389.8824,68.3915 L389.8934,68.5805 C389.3204,68.9195 388.9184,69.5155 388.9184,70.2285 C388.9184,71.0225 389.3984,71.6995 390.0794,72.0025 C390.0914,72.2365 390.1024,72.4595 390.1134,72.6915 C389.4394,72.9995 388.9664,73.6705 388.9664,74.4575 C388.9664,74.9355 389.1564,75.3595 389.4464,75.6985 L389.5104,76.0165 C389.1004,76.3715 388.8254,76.8845 388.8254,77.4725 C388.8254,78.4175 389.5144,79.1695 390.4074,79.3445 C390.5004,81.7255 390.5674,83.9835 390.6124,86.1045 C389.7854,86.3315 389.1634,87.0535 389.1634,87.9495 C389.1634,88.8685 389.8124,89.6055 390.6684,89.8095 L390.6684,90.4015 C390.2134,90.4245 389.8044,90.6025 389.4844,90.8855 Z M389.4654,59.1235 L389.4354,58.7295 L389.9014,58.8735 L389.4654,59.1235 Z M388.7884,59.9055 C388.6014,59.2145 388.3974,58.4975 388.1924,57.7825 L388.6534,57.9815 C388.8064,58.2395 389.0114,58.4485 389.2604,58.6115 C389.2754,58.8205 389.2904,59.0255 389.3014,59.2315 C389.0854,59.4195 388.9034,59.6395 388.7884,59.9055 Z M388.5944,54.3115 L388.5714,54.2535 L388.5644,54.2415 L388.6274,54.2615 L388.6354,54.3025 L388.5944,54.3115 Z M376.2814,53.9805 C376.8024,53.9805 377.2724,53.7675 377.6214,53.4325 C377.9194,53.7135 378.2214,53.9995 378.5084,54.2775 L379.0104,54.7585 C379.8744,55.6145 380.6894,56.4545 381.4604,57.2825 C381.6914,57.5285 381.8884,57.7655 382.1084,58.0085 C382.6374,58.5895 383.1654,59.1695 383.6494,59.7395 C383.8914,60.0225 384.1004,60.2985 384.3314,60.5805 L384.4244,60.6955 C384.0184,61.0525 383.7504,61.5595 383.7504,62.1425 L383.8354,62.5745 C383.5494,62.6845 383.2474,62.8315 382.9534,62.9695 C382.7564,63.0615 382.5664,63.1275 382.3694,63.2315 C381.9034,63.4715 381.4234,63.7645 380.9394,64.0685 L380.6264,64.2565 C379.4274,65.0385 378.1694,66.0075 376.8474,67.1345 L376.4264,67.5095 C375.9014,67.9675 375.3724,68.4305 374.8294,68.9335 C374.5684,69.1705 374.2974,69.4385 374.0324,69.6865 C373.5974,70.0995 373.1614,70.5035 372.7144,70.9435 C372.4014,71.2465 372.0744,71.5765 371.7574,71.8915 C371.5454,71.6995 371.2924,71.5695 371.0164,71.4815 C371.1284,71.0605 371.2404,70.6375 371.3484,70.2135 C371.5714,69.3805 371.7874,68.5525 372.0074,67.7165 L372.1154,67.3115 C373.2914,62.8895 374.4904,58.5165 375.6744,54.4295 C375.7264,54.2495 375.7784,54.0675 375.8314,53.8885 L376.2814,53.9805 Z M384.5654,60.5995 L384.3384,60.3245 C384.1074,60.0425 383.8844,59.7615 383.6424,59.4775 C383.1734,58.9315 382.6704,58.3765 382.1644,57.8205 C381.9414,57.5755 381.7324,57.3325 381.5014,57.0845 C380.7534,56.2825 379.9634,55.4695 379.1294,54.6405 L378.7804,54.3035 C378.4414,53.9735 378.0834,53.6345 377.7334,53.3005 L378.0354,52.8515 L378.3924,52.9995 C378.7124,53.1415 379.0594,53.2675 379.3714,53.4185 C379.7064,53.5815 379.9974,53.7685 380.3174,53.9395 C380.1834,54.2015 380.0934,54.4845 380.0934,54.7975 C380.0934,55.8725 380.9694,56.7455 382.0454,56.7455 C382.3314,56.7455 382.5994,56.6745 382.8454,56.5635 C383.1544,57.1665 383.4674,57.7735 383.7654,58.3715 C383.9554,58.7555 384.1374,59.1315 384.3234,59.5105 C384.4804,59.8275 384.6294,60.1385 384.7854,60.4525 L384.5654,60.5995 Z M388.2854,62.4525 L388.2254,62.4325 C388.0394,62.3395 387.8424,62.2755 387.6414,62.2125 L387.6334,62.2095 L387.6484,62.1425 C387.6484,61.0795 386.7924,60.2235 385.7384,60.2005 C385.7314,59.8955 385.7234,59.6055 385.7164,59.3045 C385.7054,58.9525 385.6974,58.5975 385.6904,58.2545 L385.6864,58.1615 C385.6714,57.5985 385.6564,57.0495 385.6414,56.5135 L385.6304,56.1985 C385.6154,55.7285 385.6044,55.2655 385.5894,54.8155 L385.5784,54.5165 C385.5674,54.0985 385.5524,53.6815 385.5374,53.2745 C385.5334,53.0745 385.5264,52.8785 385.5184,52.6805 C385.5074,52.3925 385.5004,52.1015 385.4894,51.8185 C385.4784,51.5225 385.4664,51.2325 385.4554,50.9425 L385.4374,50.5165 L385.7834,50.4475 C385.9064,50.8375 386.0364,51.2285 386.1594,51.6135 C386.2934,52.0345 386.4344,52.4655 386.5654,52.8795 C386.8444,53.7765 387.1014,54.6415 387.3584,55.5075 C387.2874,55.7085 387.2314,55.9165 387.2314,56.1415 C387.2314,56.7545 387.5334,57.2815 387.9804,57.6385 C388.2294,58.5205 388.4824,59.4015 388.7064,60.2465 L388.6164,60.6865 C388.6164,61.1795 388.8144,61.6165 389.1194,61.9595 C388.7994,62.0605 388.5084,62.2165 388.2854,62.4525 Z M384.9234,60.3585 C384.7554,60.0125 384.5884,59.6645 384.4164,59.3175 C384.2674,59.0145 384.1264,58.7205 383.9774,58.4175 C383.6574,57.7725 383.3184,57.1185 382.9874,56.4685 C383.5754,56.1335 383.9924,55.5245 383.9924,54.7975 C383.9924,54.0315 383.5384,53.3835 382.8944,53.0655 L382.9764,52.8785 L383.0054,52.8075 C383.2554,52.2675 383.4894,51.7875 383.7164,51.3395 L383.8094,51.1575 C383.9814,50.8265 384.1454,50.5425 384.3054,50.2565 C384.5954,50.4255 384.9114,50.5495 385.2734,50.5495 C385.3064,51.4005 385.3364,52.2705 385.3694,53.1745 C385.4034,54.2125 385.4404,55.2925 385.4704,56.4295 C385.4784,56.6505 385.4854,56.8805 385.4894,57.1035 C385.5004,57.4385 385.5074,57.7725 385.5154,58.1175 C385.5304,58.5965 385.5414,59.0915 385.5564,59.5915 L385.5634,59.8895 L385.5714,60.2215 C385.3434,60.2365 385.1244,60.2715 384.9234,60.3585 Z M387.4624,55.2655 C387.2134,54.4255 386.9634,53.5865 386.6914,52.7165 L386.5574,52.2975 C386.3604,51.6805 386.1554,51.0465 385.9504,50.4135 L386.3044,50.2145 L386.4574,50.4425 C386.6804,50.7925 386.8854,51.1645 387.0904,51.5345 C387.2094,51.7505 387.3354,51.9585 387.4514,52.1805 L387.3914,52.4585 C387.3914,53.1545 387.7784,53.7375 388.3304,54.0825 L388.4264,54.3455 C388.0024,54.5235 387.6744,54.8585 387.4624,55.2655 Z M387.5034,51.9175 L387.4024,51.7435 C387.1874,51.3445 386.9634,50.9625 386.7324,50.5865 L386.4534,50.1145 C386.8254,49.8245 387.0714,49.4145 387.1574,48.9325 C387.2164,49.1375 387.2834,49.3455 387.3434,49.5505 C387.5184,50.1425 387.6594,50.7095 387.8194,51.2945 C387.6784,51.4815 387.5704,51.6885 387.5034,51.9175 Z M370.8494,71.4485 L370.5734,71.3915 C370.5884,70.7425 370.5994,70.0845 370.6144,69.4315 C370.6334,68.5675 370.6524,67.7095 370.6704,66.8375 C370.6894,65.7435 370.7084,64.6285 370.7264,63.5225 C370.7414,62.5465 370.7594,61.5815 370.7744,60.5935 C370.7854,59.7355 370.7934,58.8515 370.8044,57.9835 C370.8414,55.2185 370.8684,52.3965 370.8864,49.5095 C371.4454,49.4895 371.9324,49.2315 372.2754,48.8365 L372.6844,49.1595 C372.9974,49.4135 373.3324,49.6685 373.6384,49.9185 C374.0294,50.2375 374.3824,50.5485 374.7624,50.8645 C374.5094,51.1925 374.3304,51.5855 374.3304,52.0325 C374.3304,52.8895 374.8964,53.5955 375.6674,53.8555 C375.3654,54.8925 375.0644,55.9165 374.7584,56.9925 C374.5204,57.8295 374.2854,58.7015 374.0474,59.5585 C373.8014,60.4385 373.5594,61.3065 373.3174,62.2005 C373.0204,63.2965 372.7214,64.4045 372.4244,65.5115 C372.2454,66.1835 372.0664,66.8505 371.8844,67.5235 C371.5384,68.8385 371.1954,70.1425 370.8494,71.4485 Z M380.4104,53.7975 C380.0604,53.6115 379.7404,53.4065 379.3754,53.2295 L378.9804,53.0655 C378.6974,52.9325 378.3894,52.8195 378.0944,52.6935 C378.1724,52.4875 378.2284,52.2665 378.2284,52.0325 C378.2284,51.6065 378.0644,51.2325 377.8304,50.9115 L377.8934,50.8655 C378.0684,50.7395 378.2434,50.6065 378.4144,50.4895 L378.8914,50.1825 L379.3904,49.8655 L379.8784,49.6025 L380.3434,49.3495 L380.8234,49.1355 L381.2634,48.9435 L381.7544,48.7765 L382.1414,48.6495 C382.3314,48.5965 382.5104,48.5655 382.6934,48.5295 L382.9764,48.4705 L383.3594,48.4405 L383.3254,48.6035 C383.3254,49.2555 383.6684,49.8055 384.1634,50.1585 C384.0114,50.4235 383.8584,50.6975 383.7024,50.9975 L383.6314,51.1425 C383.4044,51.5805 383.1694,52.0585 382.9274,52.5855 L382.8494,52.7545 L382.7414,52.9925 C382.5254,52.9065 382.2904,52.8505 382.0454,52.8505 C381.3414,52.8505 380.7534,53.2425 380.4104,53.7975 Z M374.8554,50.7235 C374.4834,50.4095 374.1254,50.1015 373.7384,49.7835 C373.4964,49.5885 373.2394,49.3885 372.9934,49.1935 C372.7894,49.0275 372.5764,48.8635 372.3684,48.6965 C372.5994,48.3775 372.7664,48.0025 372.7664,47.5755 C372.7664,47.3865 372.7104,47.2145 372.6584,47.0395 L372.7484,47.0085 C373.0494,46.9215 373.3474,46.8595 373.6454,46.7855 C373.9474,46.7105 374.2524,46.6225 374.5544,46.5625 C374.9034,46.4925 375.2464,46.4515 375.5964,46.4015 C375.8384,46.3665 376.0844,46.3145 376.3224,46.2905 C376.9074,46.2295 377.4764,46.1975 378.0354,46.1975 C378.7574,46.1975 379.4464,46.2525 380.1054,46.3525 C380.3214,46.3835 380.5144,46.4505 380.7234,46.4925 C381.1554,46.5805 381.5834,46.6685 381.9854,46.8005 C382.2124,46.8765 382.4174,46.9855 382.6374,47.0765 C382.9794,47.2185 383.3254,47.3575 383.6424,47.5345 L383.6754,47.5565 C383.5304,47.7725 383.4414,48.0085 383.3924,48.2715 L382.9574,48.3055 L382.6894,48.3615 C382.4954,48.3995 382.3054,48.4325 382.1044,48.4865 L381.7394,48.6085 C381.5644,48.6645 381.3894,48.7155 381.2074,48.7865 L380.7944,48.9695 C380.6194,49.0445 380.4474,49.1135 380.2724,49.2005 L379.8294,49.4385 C379.6544,49.5335 379.4794,49.6195 379.3044,49.7255 L378.8134,50.0375 L378.3074,50.3595 C378.1284,50.4815 377.9454,50.6215 377.7634,50.7525 L377.7374,50.7745 C377.3804,50.3595 376.8694,50.0835 376.2814,50.0835 C375.7124,50.0835 375.2124,50.3365 374.8554,50.7235 Z M389.8414,50.6125 L389.7004,50.5835 L389.6704,50.3635 C389.4734,48.6965 389.2534,47.0275 389.0114,45.3555 C389.3574,47.0015 389.6254,48.7685 389.8414,50.6125 Z M386.6024,47.1925 C386.2894,46.8985 385.8764,46.7225 385.4224,46.6855 C385.4404,46.2255 385.4554,45.7665 385.4704,45.3025 C385.6454,45.2995 385.8054,45.2465 385.9654,45.2015 C386.1854,45.8705 386.3934,46.5305 386.6024,47.1925 Z M369.8474,71.4875 C369.7474,71.2215 369.6464,70.9535 369.5464,70.6845 C369.2334,69.8545 368.9244,69.0365 368.6044,68.1895 C368.4444,67.7605 368.2764,67.3125 368.1164,66.8795 C366.4484,62.4255 364.7284,57.7945 362.9374,52.9665 C362.4684,51.7085 361.9844,50.4005 361.5074,49.1185 C361.1874,48.2595 360.8714,47.4085 360.5504,46.5385 C361.1094,46.3035 361.5044,45.7985 361.6494,45.1975 C362.0294,45.2755 362.4194,45.3445 362.7924,45.4255 C363.3624,45.5505 363.9124,45.6895 364.4674,45.8225 C364.8434,45.9135 365.2304,45.9955 365.5954,46.0905 C366.1804,46.2415 366.7354,46.4035 367.3014,46.5635 C367.8664,46.7245 368.4254,46.8925 368.9724,47.0635 C368.9284,47.2305 368.8684,47.3955 368.8684,47.5755 C368.8684,48.6165 369.6914,49.4495 370.7194,49.5045 C370.7084,51.0975 370.7004,52.6955 370.6854,54.2505 C370.6774,54.9755 370.6664,55.6755 370.6554,56.3935 C370.6404,57.8285 370.6254,59.2685 370.6034,60.6755 C370.5924,61.4675 370.5774,62.2385 370.5664,63.0215 C370.5444,64.3515 370.5254,65.6845 370.4994,66.9945 C370.4884,67.5245 370.4774,68.0455 370.4654,68.5735 C370.4474,69.5115 370.4244,70.4445 370.4024,71.3735 C370.2054,71.3795 370.0234,71.4285 369.8474,71.4875 Z M387.9574,51.0925 L387.8724,50.7905 C387.8194,50.5965 387.7674,50.4085 387.7114,50.2125 C387.5514,49.6545 387.3764,49.0885 387.2054,48.5245 C387.1904,48.2045 387.0904,47.9185 386.9414,47.6565 C386.6844,46.8315 386.4164,46.0025 386.1404,45.1675 L386.1894,45.1565 L386.4044,45.6265 C386.5684,45.9975 386.7324,46.3665 386.8854,46.7445 C387.1344,47.3575 387.3654,47.9845 387.5924,48.6155 C387.7234,48.9725 387.8574,49.3205 387.9764,49.6825 C388.1024,50.0595 388.2104,50.4535 388.3264,50.8375 L387.9574,51.0925 Z M388.4934,50.7255 C388.4004,50.4365 388.3044,50.1575 388.2074,49.8705 C388.0954,49.5265 387.9804,49.1855 387.8574,48.8455 C387.6224,48.1765 387.3734,47.5225 387.1124,46.8735 C386.9974,46.5865 386.8854,46.2925 386.7664,46.0095 C386.6284,45.6905 386.4864,45.3765 386.3454,45.0615 C386.7924,44.8255 387.1274,44.4295 387.2834,43.9385 C387.3804,44.3625 387.4954,44.8035 387.5894,45.2265 C387.6784,45.6445 387.7754,46.0625 387.8604,46.4775 C388.1664,47.8945 388.4224,49.2655 388.6874,50.6445 L388.4934,50.7255 Z M388.8954,46.6395 C388.6274,45.1975 388.3444,43.7625 388.0244,42.3375 C387.9394,41.9445 387.8384,41.5575 387.7454,41.1665 C387.6864,40.9105 387.6264,40.6535 387.5624,40.3985 C387.7234,40.7935 387.8754,41.1945 388.0174,41.6185 L388.0804,41.9025 C388.1664,42.3145 388.2404,42.7365 388.3224,43.1545 C388.3744,43.4545 388.4304,43.7495 388.4824,44.0505 C388.6204,44.8775 388.7584,45.7055 388.8844,46.5455 L388.8954,46.6395 Z M388.8734,50.6065 C388.7024,49.7185 388.5344,48.8295 388.3484,47.9255 C388.2524,47.4795 388.1514,47.0215 388.0544,46.5715 C387.8574,45.6425 387.6564,44.7135 387.4394,43.7685 L387.3764,43.4785 L387.4024,43.3585 C387.4024,43.0085 387.2834,42.6975 387.1234,42.4125 L387.0644,42.1755 C386.8704,41.3585 386.6804,40.5425 386.4754,39.7125 C387.6184,42.7615 388.3564,46.6245 388.9744,50.5865 L388.8734,50.6065 Z M387.9764,42.9245 C387.9134,42.6485 387.8424,42.3735 387.7784,42.0975 C387.5704,41.2075 387.3584,40.3165 387.1344,39.4245 L387.1274,39.4015 L387.1834,39.5185 C387.3654,40.2585 387.5444,41.0015 387.7154,41.7445 C387.8054,42.1385 387.8904,42.5295 387.9764,42.9245 Z M389.1344,50.5535 C388.4454,46.1045 387.5964,41.7825 386.1924,38.5795 C386.1224,38.3075 386.0474,38.0285 385.9764,37.7555 C385.9204,37.5405 385.8684,37.3265 385.8134,37.1095 C386.1484,37.5765 386.4644,38.0695 386.7554,38.6155 L386.8774,39.0735 C387.1274,40.0535 387.3544,41.0305 387.5814,42.0095 C387.6934,42.4875 387.8164,42.9665 387.9204,43.4435 C388.2034,44.7195 388.4604,45.9975 388.7064,47.2695 C388.7394,47.4485 388.7804,47.6285 388.8144,47.8055 C388.9814,48.7135 389.1234,49.6195 389.2724,50.5265 L389.1344,50.5535 Z M384.8004,41.5435 C384.6324,41.1325 384.4504,40.7205 384.2754,40.3085 C383.9814,39.6075 383.7024,38.9065 383.3854,38.2025 C383.1174,37.5985 382.8234,36.9905 382.5404,36.3845 C382.7854,36.4965 383.0544,36.5695 383.3484,36.5695 C383.6054,36.5695 383.8504,36.5135 384.0774,36.4215 C384.1154,36.6255 384.1564,36.8205 384.1934,37.0245 C384.4054,38.1205 384.6104,39.2465 384.8154,40.3645 C384.8854,40.7415 384.9564,41.1175 385.0234,41.4975 L384.8004,41.5435 Z M385.1874,41.4645 C384.9534,40.1625 384.7144,38.8575 384.4724,37.5855 C384.3904,37.1625 384.3084,36.7515 384.2304,36.3315 L384.5994,36.0835 C385.1284,36.8025 385.6014,37.6445 386.0214,38.5975 C386.3124,39.7445 386.5534,40.8485 386.8224,41.9755 C386.4684,41.6265 385.9844,41.4115 385.4514,41.4115 L385.1874,41.4645 Z M385.8314,37.8575 C385.4894,37.1735 385.1174,36.5575 384.7114,36.0095 L384.7894,35.9035 L385.1354,36.2435 L385.2174,36.3365 L385.5304,36.7435 C385.6124,37.0485 385.7054,37.3675 385.7834,37.6715 L385.8314,37.8575 Z M385.4264,36.3535 L385.2474,36.1625 L384.8934,35.7495 L385.1504,35.3385 C385.2394,35.6755 385.3364,36.0185 385.4264,36.3535 Z M386.9554,38.6245 L386.9224,38.5665 C386.8514,38.2895 386.7664,38.0105 386.6914,37.7325 C386.4574,36.8495 386.2154,35.9665 385.9584,35.0845 C385.7984,34.5205 385.6384,33.9555 385.4664,33.3925 C385.1954,32.4825 384.9084,31.5745 384.6144,30.6655 C384.5064,30.3315 384.4134,29.9965 384.3014,29.6625 C384.3724,29.8645 384.4354,30.0655 384.5024,30.2675 C384.8194,31.2135 385.1284,32.1625 385.4224,33.1165 C385.5894,33.6625 385.7454,34.2135 385.9024,34.7615 C386.1594,35.6345 386.4044,36.5095 386.6394,37.3895 C386.7514,37.8015 386.8514,38.2135 386.9554,38.6245 Z M384.5504,33.1275 C384.2604,32.8955 383.9144,32.7475 383.5274,32.7105 L383.4524,32.3385 C383.4524,32.1205 383.4564,31.8825 383.4564,31.6695 C383.4604,31.3735 383.4674,31.1095 383.4714,30.8215 C383.4784,30.3225 383.4864,29.8285 383.4934,29.3555 C383.5754,29.6355 383.6724,29.9275 383.7504,30.2055 C383.8134,30.4245 383.8734,30.6375 383.9324,30.8565 C384.1564,31.6265 384.3384,32.3655 384.5504,33.1275 Z M384.1934,29.3365 L384.1044,29.0795 L384.0294,28.8445 L384.0554,28.9095 L384.1934,29.3365 Z M386.5804,37.9745 L386.4014,37.7045 C386.2004,37.3825 385.9954,37.0585 385.7794,36.7745 L385.6934,36.6485 C385.5634,36.1525 385.4334,35.6565 385.2994,35.1565 L385.2364,34.9125 L385.2954,34.6225 C385.2954,34.1425 385.1024,33.7175 384.8154,33.3795 L384.7894,33.2875 C384.5504,32.4285 384.3124,31.5665 384.0634,30.6955 C383.8804,30.0605 383.6944,29.4205 383.5044,28.7785 C383.5124,28.5195 383.5194,28.2805 383.5274,28.0295 L383.5274,27.9305 C383.5864,28.1065 383.6534,28.2805 383.7134,28.4555 C383.9174,29.0735 384.1264,29.6895 384.3274,30.3055 C384.6104,31.1715 384.8784,32.0395 385.1394,32.9045 C385.3214,33.5005 385.5074,34.0975 385.6794,34.6925 C385.9394,35.5935 386.1814,36.4935 386.4234,37.3935 C386.4754,37.5875 386.5314,37.7805 386.5804,37.9745 Z M387.7414,40.3795 L387.5624,39.9665 C387.4884,39.7945 387.4144,39.6235 387.3394,39.4565 C387.0824,38.4245 386.8104,37.3985 386.5314,36.3755 C386.3904,35.8595 386.2484,35.3465 386.0994,34.8335 C385.5414,32.9085 384.9534,30.9935 384.3014,29.1045 L384.2754,29.0335 C384.0484,28.3685 383.7914,27.7165 383.5524,27.0555 L383.5644,26.5925 C383.7054,26.9435 383.8474,27.2965 383.9854,27.6535 C384.2524,28.3525 384.5104,29.0635 384.7634,29.7835 C384.9044,30.1915 385.0494,30.5975 385.1874,31.0115 C385.4554,31.8215 385.7124,32.6485 385.9624,33.4815 C386.0624,33.8215 386.1744,34.1555 386.2714,34.4995 C386.6134,35.6845 386.9374,36.8925 387.2354,38.1245 C387.2834,38.3145 387.3214,38.5115 387.3694,38.7015 C387.4994,39.2515 387.6184,39.8185 387.7414,40.3795 Z M383.3964,26.6305 C383.3254,26.4365 383.2554,26.2405 383.1844,26.0465 L383.3514,26.0805 L383.4114,26.2165 L383.4074,26.3265 L383.3964,26.6305 Z M383.5974,26.1295 C383.7764,26.1295 383.9404,26.0725 384.1044,26.0265 C384.4164,26.9645 384.7334,27.8925 385.0234,28.8615 C385.1244,29.1985 385.2134,29.5455 385.3144,29.8855 C385.6794,31.1535 386.0294,32.4445 386.3604,33.7625 C386.4534,34.1425 386.5504,34.5255 386.6394,34.9105 C386.7664,35.4335 386.8774,35.9805 386.9974,36.5125 L386.9294,36.2845 C386.6244,35.1305 386.3004,34.0025 385.9624,32.8945 C385.8544,32.5425 385.7454,32.1935 385.6344,31.8485 C385.2324,30.5895 384.8114,29.3515 384.3644,28.1535 L384.2194,27.7895 C384.0144,27.2465 383.7984,26.7115 383.5824,26.1825 L383.5864,26.1285 L383.5974,26.1295 Z M383.3514,28.2485 C383.1434,27.5445 382.9314,26.8375 382.7154,26.1295 L382.6264,25.8345 L382.8494,25.9785 C383.0284,26.4805 383.1994,26.9835 383.3744,27.4855 C383.3664,27.7405 383.3554,27.9845 383.3514,28.2485 Z M388.2334,41.5375 C387.2024,35.9945 385.8684,30.7905 384.2754,25.9925 C384.5284,25.8985 384.7524,25.7625 384.9414,25.5825 C386.2564,30.9095 387.3544,36.2355 388.2334,41.5375 Z M383.2924,31.5405 C383.1844,31.0035 383.0684,30.4795 382.9614,29.9455 C382.7264,28.7995 382.4924,27.6495 382.2504,26.5175 C382.1564,26.0725 382.0644,25.6295 381.9674,25.1875 C382.0784,25.3685 382.2094,25.5295 382.3724,25.6655 C382.6964,26.7225 383.0284,27.7885 383.3374,28.8315 C383.3254,29.2565 383.3224,29.7305 383.3144,30.1785 C383.3074,30.5665 383.2994,30.9425 383.2964,31.3465 L383.2924,31.5405 Z M369.3674,71.7345 C369.2404,71.5635 369.1104,71.3925 368.9804,71.2205 C368.5964,70.7045 368.2134,70.1985 367.8254,69.6755 C367.3714,69.0615 366.9104,68.4285 366.4524,67.8035 C366.0614,67.2735 365.6774,66.7515 365.2834,66.2135 C364.8144,65.5665 364.3334,64.9015 363.8574,64.2415 C363.4664,63.6995 363.0794,63.1665 362.6804,62.6165 C362.1704,61.9025 361.6494,61.1695 361.1274,60.4415 C360.7624,59.9315 360.4054,59.4305 360.0364,58.9145 C359.4334,58.0635 358.8194,57.1905 358.2014,56.3205 C357.9074,55.9015 357.6164,55.4925 357.3194,55.0695 C356.4664,53.8605 355.5984,52.6295 354.7234,51.3815 L354.5454,51.1235 C352.6354,48.3965 350.6654,45.5775 348.6284,42.6585 C346.8084,40.0465 344.9504,37.3895 343.0664,34.6965 C342.7534,34.2505 342.4484,33.8115 342.1324,33.3635 C341.7524,32.8195 341.3574,32.2635 340.9744,31.7155 C340.2064,30.6235 339.4404,29.5305 338.6574,28.4215 C338.4164,28.0755 338.1664,27.7215 337.9214,27.3745 C337.3364,26.5465 336.7484,25.7125 336.1524,24.8725 L336.4094,24.6585 C337.4364,25.5055 338.4574,26.3525 339.4734,27.2025 C340.1364,27.7585 340.8134,28.3115 341.4764,28.8685 C342.8914,30.0605 344.2834,31.2545 345.6804,32.4495 C346.3574,33.0255 347.0394,33.6015 347.7094,34.1775 C349.4554,35.6845 351.1794,37.1915 352.8914,38.6995 C353.1864,38.9585 353.4874,39.2165 353.7784,39.4735 C355.3084,40.8275 356.8094,42.1775 358.3054,43.5275 C358.0304,43.8625 357.8434,44.2765 357.8434,44.7445 C357.8434,45.8195 358.7154,46.6915 359.7914,46.6915 C360.0034,46.6915 360.1934,46.6335 360.3834,46.5725 C360.7444,47.5455 361.0984,48.4975 361.4524,49.4555 C361.8944,50.6415 362.3454,51.8605 362.7804,53.0265 C363.0974,53.8825 363.4064,54.7165 363.7234,55.5625 C365.7784,61.1055 367.7474,66.4025 369.6464,71.4255 L369.6804,71.5235 L369.3674,71.7345 Z M381.8554,23.3425 L381.7954,23.1405 L381.8664,23.3285 L381.8554,23.3425 Z M382.0374,23.0745 L382.0114,23.0035 L382.0414,23.0675 L382.0374,23.0745 Z M381.6954,23.9455 C381.5724,23.3835 381.4534,22.8165 381.3304,22.2575 C381.4044,22.4875 381.4754,22.7165 381.5504,22.9455 C381.6204,23.1785 381.6844,23.4035 381.7584,23.6355 L381.6954,23.9455 Z M382.9354,32.7585 C382.6554,31.6915 382.3614,30.6275 382.0714,29.5645 C381.8404,28.7215 381.6244,27.8775 381.3864,27.0375 C380.9244,25.3865 380.4324,23.7445 379.9454,22.1005 C380.2134,22.2405 380.5034,22.3385 380.8274,22.3385 L381.1554,22.2715 C381.4194,23.4715 381.6874,24.6665 381.9444,25.8765 C382.0644,26.4115 382.1714,26.9595 382.2834,27.4985 C382.5554,28.7875 382.8234,30.0765 383.0914,31.3865 C383.1544,31.7115 383.2184,32.0475 383.2854,32.3745 L383.2814,32.6875 L382.9354,32.7585 Z M382.1604,22.8955 C382.0264,22.6145 381.8884,22.3495 381.7544,22.0735 C382.1304,21.8635 382.4514,21.5555 382.6224,21.1525 C382.7374,21.5565 382.8604,21.9565 382.9764,22.3615 C382.6554,22.4705 382.3804,22.6485 382.1604,22.8955 Z M379.1594,19.4465 C378.8544,18.4525 378.5304,17.4645 378.2174,16.4735 L378.2924,16.5745 C378.5084,16.8795 378.7424,17.1625 378.9514,17.4765 C379.2374,17.9035 379.4914,18.3615 379.7624,18.8045 C379.5134,18.9725 379.3084,19.1855 379.1594,19.4465 Z M382.5064,31.8235 C382.4474,31.6425 382.3764,31.4625 382.3134,31.2815 C382.0934,30.6505 381.8664,30.0205 381.6394,29.3925 C381.3894,28.7065 381.1364,28.0225 380.8764,27.3415 C380.6374,26.7075 380.3844,26.0755 380.1354,25.4445 C379.8674,24.7685 379.5914,24.0965 379.3124,23.4235 C379.0484,22.7935 378.7804,22.1635 378.5084,21.5365 C378.2174,20.8715 377.9234,20.2075 377.6254,19.5475 C377.3384,18.9185 377.0484,18.2915 376.7544,17.6655 C376.4454,17.0095 376.1324,16.3575 375.8124,15.7055 C375.5074,15.0815 375.1974,14.4575 374.8814,13.8355 C374.5544,13.1905 374.2184,12.5475 373.8804,11.9045 C373.7124,11.5865 373.5524,11.2665 373.3844,10.9485 L373.8124,11.3555 C374.1364,11.6655 374.4684,11.9525 374.7814,12.2775 C375.2424,12.7575 375.6744,13.2825 376.1144,13.7945 C376.3934,14.1175 376.6834,14.4185 376.9514,14.7535 C377.2834,15.1665 377.5884,15.6185 377.9054,16.0505 C378.2144,17.0225 378.5304,17.9915 378.8324,18.9655 C378.8984,19.1895 378.9624,19.4155 379.0334,19.6395 C378.9324,19.8715 378.8804,20.1235 378.8804,20.3905 C378.8804,21.0475 379.2264,21.6005 379.7254,21.9535 L379.8264,22.2925 C380.2054,23.5765 380.5894,24.8595 380.9544,26.1485 C381.2744,27.2735 381.5834,28.4025 381.8924,29.5325 C382.0974,30.2945 382.3014,31.0585 382.5064,31.8235 Z M379.9114,18.7035 L379.6174,18.2515 C379.3454,17.8205 379.0734,17.3885 378.7914,16.9735 C378.5454,16.6215 378.2994,16.2805 378.0504,15.9375 C377.6884,14.8125 377.3464,13.6835 376.9734,12.5595 L376.9334,12.4315 C376.6094,11.4545 376.2664,10.4855 375.9384,9.5115 L376.1544,9.9545 C376.5194,10.7155 376.8624,11.4795 377.2164,12.2415 C377.6254,13.1315 378.0394,14.0185 378.4294,14.9095 C378.7654,15.6705 379.0814,16.4315 379.4014,17.1945 C379.6064,17.6765 379.8074,18.1585 380.0044,18.6395 L379.9114,18.7035 Z M361.9174,6.0595 L362.2594,5.9915 C362.5204,7.1315 362.7804,8.2715 363.0384,9.4275 C363.1574,9.9525 363.2724,10.4885 363.3874,11.0165 C363.6334,12.1235 363.8794,13.2285 364.1214,14.3525 C364.2624,15.0025 364.4044,15.6705 364.5424,16.3255 C364.7654,17.3585 364.9854,18.3845 365.2054,19.4325 C365.3644,20.1905 365.5254,20.9685 365.6854,21.7345 C365.8864,22.7025 366.0874,23.6605 366.2884,24.6445 C366.4784,25.5785 366.6714,26.5435 366.8614,27.4945 C367.0324,28.3475 367.2044,29.1845 367.3794,30.0495 C367.5764,31.0495 367.7774,32.0835 367.9784,33.1035 C368.1464,33.9585 368.3144,34.7945 368.4814,35.6645 C368.5514,36.0225 368.6194,36.3985 368.6894,36.7585 C369.2484,39.6535 369.8144,42.6405 370.3844,45.7165 C369.7474,45.8655 369.2334,46.2965 369.0064,46.8995 C368.7534,46.8195 368.5144,46.7355 368.2584,46.6565 C367.7104,46.4955 367.1404,46.3445 366.5784,46.1915 C366.2474,46.1005 365.9274,46.0025 365.5884,45.9155 C364.6764,45.6825 363.7454,45.4615 362.7924,45.2545 C362.4904,45.1895 362.1744,45.1335 361.8724,45.0715 L361.6824,45.0335 L361.7424,44.7445 C361.7424,43.7395 360.9684,42.9405 359.9884,42.8375 C360.3464,36.9105 360.6804,30.9515 361.0014,24.8825 C361.0384,24.1475 361.0754,23.3935 361.1134,22.6565 C361.2464,20.0655 361.3774,17.4725 361.5074,14.8345 C361.5824,13.2515 361.6564,11.6245 361.7274,10.0215 C361.7904,8.7005 361.8534,7.3935 361.9134,6.0585 L361.9174,6.0595 Z M370.5474,45.6835 C369.5204,40.1585 368.5184,34.9235 367.5274,29.9455 C367.4614,29.6125 367.3944,29.2925 367.3274,28.9605 C367.0294,27.4645 366.7314,25.9785 366.4334,24.5245 C366.3294,24.0165 366.2254,23.5245 366.1204,23.0195 C365.8644,21.7635 365.6034,20.5065 365.3424,19.2765 C365.2234,18.7085 365.1044,18.1545 364.9854,17.5895 C364.7394,16.4375 364.4934,15.2835 364.2484,14.1505 C364.1294,13.6065 364.0134,13.0765 363.8944,12.5395 C363.6444,11.4085 363.3984,10.2735 363.1494,9.1595 C363.0344,8.6505 362.9184,8.1495 362.8074,7.6435 C362.6764,7.0815 362.5544,6.5185 362.4234,5.9575 L362.8624,5.7825 C363.3174,6.5045 363.7634,7.2215 364.2104,7.9385 C364.6944,8.7205 365.1974,9.5125 365.6744,10.2895 C366.4264,11.5235 367.1404,12.7385 367.8634,13.9575 C368.2914,14.6785 368.7424,15.4085 369.1554,16.1235 C369.9334,17.4575 370.6704,18.7705 371.4114,20.0845 C371.7394,20.6665 372.0894,21.2595 372.4094,21.8365 C373.4334,23.6845 374.4164,25.5105 375.3654,27.3165 L375.4254,27.4295 C376.3964,29.2725 377.3244,31.0945 378.2104,32.8955 C378.4964,33.4735 378.7534,34.0345 379.0294,34.6075 C379.6174,35.8175 380.2094,37.0325 380.7564,38.2225 C381.0954,38.9585 381.4014,39.6745 381.7284,40.4025 C382.1754,41.4085 382.6374,42.4205 383.0614,43.4085 C383.4044,44.2185 383.7134,45.0045 384.0414,45.8015 C384.1824,46.1495 384.3274,46.4965 384.4654,46.8415 C384.1864,46.9715 383.9584,47.1735 383.7724,47.4125 L383.7464,47.4015 C383.4304,47.2205 383.0804,47.0815 382.7304,46.9355 C382.5064,46.8415 382.2944,46.7275 382.0594,46.6485 C381.6544,46.5125 381.2144,46.4255 380.7794,46.3345 C380.5634,46.2885 380.3654,46.2215 380.1464,46.1875 C379.4724,46.0855 378.7724,46.0295 378.0354,46.0295 L377.9644,46.0335 C377.4214,46.0365 376.8664,46.0645 376.3004,46.1235 C376.1024,46.1445 375.8944,46.1885 375.6894,46.2175 C375.2944,46.2715 374.9034,46.3215 374.5054,46.4015 C374.2824,46.4465 374.0554,46.5145 373.8274,46.5675 C373.4444,46.6585 373.0614,46.7435 372.6704,46.8565 L372.6254,46.8695 C372.3384,46.1465 371.6424,45.6295 370.8194,45.6295 L370.5474,45.6835 Z M384.6254,46.7865 C384.4354,46.3115 384.2344,45.8305 384.0374,45.3525 C383.7654,44.6875 383.5084,44.0345 383.2214,43.3635 C382.6264,41.9675 381.9894,40.5455 381.3414,39.1195 C381.1214,38.6405 380.9094,38.1675 380.6864,37.6875 C379.9634,36.1275 379.2154,34.5545 378.4294,32.9605 C378.1354,32.3645 377.8154,31.7555 377.5134,31.1535 C376.9074,29.9555 376.3114,28.7585 375.6704,27.5415 C375.3134,26.8565 374.9264,26.1565 374.5574,25.4675 C373.9394,24.3115 373.3254,23.1585 372.6774,21.9875 C372.2754,21.2595 371.8474,20.5175 371.4304,19.7825 C370.7824,18.6345 370.1414,17.4895 369.4644,16.3255 C369.0134,15.5505 368.5364,14.7625 368.0714,13.9795 C367.3974,12.8395 366.7244,11.7015 366.0234,10.5465 C365.5284,9.7415 365.0184,8.9235 364.5164,8.1115 C364.0134,7.3015 363.5254,6.4985 363.0084,5.6825 L363.0264,5.6725 C363.4994,6.2715 363.9654,6.8715 364.4224,7.4715 C364.9854,8.2005 365.5544,8.9285 366.0984,9.6565 C366.7724,10.5575 367.4164,11.4585 368.0644,12.3605 C368.5894,13.0915 369.1294,13.8245 369.6394,14.5545 C370.2644,15.4545 370.8604,16.3515 371.4604,17.2505 C371.9474,17.9775 372.4464,18.7065 372.9154,19.4315 C373.5044,20.3375 374.0554,21.2405 374.6134,22.1455 C375.0564,22.8585 375.5104,23.5725 375.9354,24.2825 C376.4894,25.2105 377.0074,26.1365 377.5324,27.0605 C377.9164,27.7435 378.3224,28.4245 378.6944,29.1055 C379.2194,30.0735 379.7064,31.0375 380.2024,32.0025 C380.5294,32.6355 380.8764,33.2715 381.1884,33.9015 C381.2744,34.0785 381.3484,34.2555 381.4344,34.4325 L381.3974,34.6225 C381.3974,35.2875 381.7504,35.8465 382.2644,36.1975 C382.4104,36.5085 382.5594,36.8195 382.7004,37.1305 C382.9354,37.6405 383.1884,38.1505 383.4114,38.6595 C383.8474,39.6455 384.2344,40.6235 384.6324,41.6045 C383.9704,41.9155 383.5044,42.5785 383.5044,43.3585 C383.5044,44.3825 384.3014,45.1955 385.3034,45.2755 C385.2884,45.7395 385.2734,46.1995 385.2544,46.6595 C385.0314,46.6605 384.8264,46.7155 384.6254,46.7865 Z M381.4904,34.1575 C381.3714,33.9105 381.2524,33.6635 381.1294,33.4165 C380.6784,32.5095 380.1874,31.5975 379.7064,30.6895 C379.3384,29.9905 378.9884,29.2965 378.6044,28.5965 C378.0944,27.6715 377.5474,26.7425 377.0074,25.8145 C376.6094,25.1245 376.2294,24.4365 375.8124,23.7475 C375.2394,22.7935 374.6244,21.8355 374.0214,20.8785 C373.5974,20.2105 373.1984,19.5415 372.7594,18.8705 C372.0854,17.8375 371.3664,16.8005 370.6594,15.7645 C370.2494,15.1685 369.8664,14.5725 369.4454,13.9755 C368.3064,12.3535 367.1264,10.7305 365.9044,9.1055 C365.3874,8.4175 364.8324,7.7285 364.3004,7.0405 C363.9234,6.5525 363.5514,6.0665 363.1684,5.5785 C363.4064,5.3755 363.6044,5.1315 363.7234,4.8345 C364.0694,4.9635 364.4194,5.0655 364.7654,5.2115 C365.2344,5.4105 365.6924,5.6605 366.1584,5.8895 C366.5824,6.0995 367.0104,6.2865 367.4274,6.5205 C367.8964,6.7815 368.3474,7.0925 368.8014,7.3845 C369.1994,7.6395 369.6094,7.8685 370.0004,8.1455 C370.4654,8.4755 370.9124,8.8515 371.3664,9.2125 C371.7284,9.5005 372.1004,9.7635 372.4574,10.0685 L372.8004,10.3975 C376.7244,17.5285 380.0194,25.0405 382.6374,32.8175 C382.0594,33.0445 381.6464,33.5455 381.4904,34.1575 Z M358.4024,43.3855 C357.9664,42.9935 357.5204,42.5985 357.0804,42.2035 C355.9604,41.2005 354.8504,40.1985 353.7144,39.1945 C352.4344,38.0635 351.1274,36.9335 349.8244,35.8015 C349.0984,35.1705 348.3834,34.5395 347.6534,33.9095 C345.8704,32.3725 344.0644,30.8395 342.2474,29.3085 C341.9714,29.0735 341.7004,28.8385 341.4204,28.6035 C339.7974,27.2385 338.1514,25.8765 336.5024,24.5175 C336.7514,24.1915 336.9264,23.8025 336.9264,23.3595 C336.9264,22.2885 336.0594,21.4195 334.9874,21.4145 C334.8714,18.3295 334.7484,15.2905 334.6224,12.3125 C334.6034,11.8865 334.5844,11.4515 334.5664,11.0295 C334.5404,10.4385 334.5144,9.8665 334.4874,9.2805 C334.4214,7.8335 334.3544,6.3865 334.2864,4.9715 L334.2754,4.7035 C334.2164,3.4825 334.1534,2.2835 334.0934,1.0875 C334.3544,1.0635 334.5924,0.9925 334.8114,0.8775 C335.9554,2.8095 337.0714,4.7195 338.1884,6.6335 C339.0114,8.0495 339.8684,9.4855 340.6794,10.8905 C341.8894,12.9805 343.0554,15.0435 344.2354,17.1145 C346.8524,21.7015 349.4294,26.2695 351.9684,30.8165 C352.4264,31.6345 352.8884,32.4555 353.3464,33.2735 C355.1674,36.5495 356.9804,39.8275 358.7934,43.1125 L358.4024,43.3855 Z M377.4074,0.7635 L377.2234,0.7635 C377.3664,1.1385 377.5084,1.5125 377.6484,1.8885 C377.9754,2.7785 378.2884,3.6725 378.6044,4.5635 C380.2654,9.2365 381.7694,13.9335 383.1024,18.6395 C383.1994,18.9915 383.3034,19.3425 383.4004,19.6945 C383.6464,20.5755 383.8654,21.4565 384.1004,22.3385 C383.9364,22.2925 383.7764,22.2355 383.5974,22.2355 L383.2184,22.3125 C383.0684,21.6965 382.9164,21.0805 382.7634,20.4675 L382.7784,20.3905 C382.7784,20.0535 382.6664,19.7505 382.5144,19.4735 C382.3694,18.8935 382.2204,18.3155 382.0714,17.7385 C381.9004,17.0875 381.7214,16.4435 381.5504,15.7955 C381.1444,14.2905 380.7304,12.7945 380.3024,11.3095 C380.1054,10.6105 379.9004,9.9145 379.6954,9.2205 C379.2524,7.7125 378.7944,6.2195 378.3254,4.7375 C378.1434,4.1515 377.9644,3.5605 377.7744,2.9785 C377.5374,2.2375 377.2964,1.4985 377.0534,0.7635 L376.8624,0.7635 C377.0454,1.3185 377.2254,1.8755 377.4054,2.4325 C377.8604,3.8285 378.3074,5.2315 378.7394,6.6515 C378.9734,7.4115 379.2114,8.1665 379.4384,8.9315 C380.0824,11.0965 380.7004,13.2845 381.2964,15.4925 C381.4604,16.0955 381.6174,16.7075 381.7764,17.3145 C381.9264,17.8775 382.0644,18.4495 382.2094,19.0145 L382.1684,18.9875 L382.1014,18.7795 C381.8254,17.8705 381.5354,16.9715 381.2444,16.0735 C380.8764,14.9265 380.5004,13.7835 380.1124,12.6535 C379.8074,11.7655 379.4944,10.8845 379.1814,10.0065 C378.7764,8.8855 378.3634,7.7725 377.9384,6.6675 C377.6064,5.8045 377.2724,4.9455 376.9334,4.0925 C376.4894,2.9905 376.0324,1.8985 375.5704,0.8105 C375.5634,0.7945 375.5574,0.7795 375.5504,0.7635 L375.3814,0.7635 C375.6764,1.4745 375.9654,2.1895 376.2594,2.9025 C376.6124,3.7685 376.9814,4.6225 377.3244,5.4965 C377.7854,6.6735 378.2144,7.8755 378.6534,9.0685 C378.9624,9.9075 379.2864,10.7325 379.5804,11.5795 C380.0494,12.9205 380.4884,14.2885 380.9324,15.6515 C381.1664,16.3755 381.4194,17.0865 381.6464,17.8165 C381.7504,18.1525 381.8404,18.5005 381.9444,18.8385 C381.6244,18.6075 381.2524,18.4435 380.8274,18.4435 C380.6454,18.4435 380.4814,18.5005 380.3134,18.5465 C379.8294,17.0425 379.3494,15.5375 378.8474,14.0495 C378.6274,13.3905 378.3964,12.7405 378.1694,12.0835 C377.6854,10.6625 377.2014,9.2395 376.7024,7.8365 C376.4304,7.0635 376.1434,6.3025 375.8644,5.5355 C375.4034,4.2605 374.9444,2.9825 374.4724,1.7235 C374.3504,1.4015 374.2284,1.0825 374.1054,0.7635 L373.9284,0.7635 C374.3024,1.7555 374.6704,2.7575 375.0384,3.7575 C375.4104,4.7605 375.7784,5.7605 376.1404,6.7725 C376.5234,7.8415 376.8994,8.9195 377.2754,9.9965 C377.6184,10.9875 377.9684,11.9775 378.3034,12.9775 C378.6834,14.0895 379.0514,15.2115 379.4204,16.3335 C379.6244,16.9635 379.8334,17.5945 380.0384,18.2285 C379.8414,17.7595 379.6284,17.2925 379.4274,16.8225 C379.0844,16.0125 378.7394,15.2025 378.3774,14.3945 C378.0014,13.5425 377.6104,12.6935 377.2194,11.8445 C376.8514,11.0495 376.4824,10.2575 376.1024,9.4655 C375.8944,9.0385 375.6934,8.6115 375.4844,8.1835 C375.1684,7.2625 374.8634,6.3345 374.5354,5.4135 C374.3004,4.7455 374.0474,4.0835 373.8094,3.4155 C373.4914,2.5315 373.1724,1.6465 372.8504,0.7635 L372.6624,0.7635 C372.6654,0.7735 372.6694,0.7845 372.6734,0.7955 C373.1574,2.1115 373.6454,3.4235 374.1184,4.7455 C374.3934,5.5215 374.6544,6.3025 374.9264,7.0805 L374.8294,6.8905 C374.4384,6.1095 374.0474,5.3295 373.6454,4.5525 C373.1954,3.6875 372.7294,2.8235 372.2644,1.9615 C372.0504,1.5625 371.8354,1.1635 371.6184,0.7635 L371.4344,0.7635 C371.7214,1.2945 372.0024,1.8265 372.2864,2.3575 C372.7634,3.2465 373.2464,4.1365 373.7084,5.0275 C374.0964,5.7805 374.4644,6.5375 374.8404,7.2905 C375.0154,7.6425 375.1904,7.9955 375.3614,8.3475 C375.7604,9.5055 376.1624,10.6625 376.5494,11.8265 C376.9104,12.9155 377.2574,14.0095 377.6034,15.1005 L377.7484,15.5515 L377.7004,15.4885 C377.3984,15.0905 377.1004,14.6905 376.7914,14.3105 C376.4044,13.8395 375.9984,13.3985 375.5964,12.9545 C375.2724,12.5975 374.9554,12.2325 374.6214,11.8915 C374.2004,11.4615 373.7604,11.0635 373.3214,10.6615 L373.1244,10.4745 L372.8894,10.0525 C372.5394,9.4145 372.1864,8.7805 371.8244,8.1455 C371.4824,7.5355 371.1364,6.9245 370.7824,6.3175 C370.4134,5.6875 370.0344,5.0605 369.6574,4.4345 C369.2934,3.8325 368.9284,3.2295 368.5554,2.6315 C368.1684,2.0075 367.7664,1.3905 367.3684,0.7715 C367.3664,0.7695 367.3644,0.7665 367.3624,0.7635 L367.2534,0.7635 C367.3664,0.9405 367.4784,1.1185 367.5914,1.2955 C368.5674,2.8265 369.5164,4.3715 370.4324,5.9355 L370.5734,6.1725 C369.4814,4.3415 368.3474,2.5375 367.1724,0.7635 L366.9744,0.7635 C368.9454,3.7375 370.8044,6.7945 372.5434,9.9255 L372.3084,9.7355 C371.8434,9.3425 371.3634,8.9875 370.8864,8.6265 C370.5474,8.3695 370.2124,8.0965 369.8664,7.8555 C369.3454,7.4945 368.8094,7.1785 368.2724,6.8565 C367.9564,6.6625 367.6434,6.4465 367.3164,6.2685 C366.6794,5.9155 366.0234,5.6165 365.3684,5.3215 C365.1384,5.2165 364.9104,5.0865 364.6764,4.9915 C364.3744,4.8635 364.0614,4.7765 363.7564,4.6635 C363.8124,4.4855 363.8684,4.3085 363.8684,4.1125 C363.8684,3.0375 362.9974,2.1655 361.9174,2.1655 C361.6264,2.1655 361.3584,2.2385 361.1134,2.3515 C360.8434,1.8215 360.5744,1.2925 360.3064,0.7635 L360.1104,0.7635 C360.3974,1.3225 360.6854,1.8815 360.9714,2.4465 C360.6474,2.6315 360.3834,2.8945 360.2114,3.2245 C359.9034,3.0865 359.6044,2.9375 359.2924,2.8065 C358.8524,2.6215 358.3984,2.4595 357.9524,2.2895 C357.5164,2.1205 357.0844,1.9425 356.6374,1.7865 C356.1614,1.6225 355.6664,1.4805 355.1824,1.3295 C354.7424,1.1935 354.3184,1.0475 353.8714,0.9225 C353.6704,0.8665 353.4654,0.8145 353.2604,0.7635 L352.5414,0.7635 C352.9934,0.8715 353.4474,0.9755 353.8894,1.1005 C354.2884,1.2115 354.6684,1.3455 355.0594,1.4655 C355.5954,1.6305 356.1354,1.7865 356.6604,1.9685 C357.0584,2.1085 357.4414,2.2725 357.8364,2.4215 C358.3284,2.6105 358.8304,2.7895 359.3144,2.9945 C359.5904,3.1125 359.8504,3.2465 360.1184,3.3685 C360.0254,3.5975 359.9704,3.8485 359.9704,4.1125 C359.9704,5.1275 360.7554,5.9345 361.7454,6.0255 C361.6264,8.6885 361.5074,11.3335 361.3814,13.9395 C361.3694,14.1505 361.3624,14.3705 361.3514,14.5815 C361.3404,14.8325 361.3284,15.0735 361.3134,15.3225 C360.8564,24.7305 360.3644,33.8105 359.8244,42.8035 L359.7914,42.7965 C359.4784,42.7965 359.1954,42.8875 358.9344,43.0195 C351.2054,29.0265 343.4944,15.2055 334.9494,0.7815 C334.9594,0.7755 334.9684,0.7695 334.9774,0.7635 L332.7834,0.7635 C333.1024,0.9905 333.4934,1.1245 333.9144,1.1245 L333.9294,1.1205 C334.1864,6.1965 334.4284,11.4895 334.6524,16.9745 C334.6924,18.0705 334.7334,19.1885 334.7784,20.2985 C334.7934,20.6805 334.8084,21.0615 334.8224,21.4445 C334.5404,21.4675 334.2834,21.5495 334.0484,21.6835 C333.8844,21.4185 333.7174,21.1455 333.5534,20.8795 C332.5374,19.2205 331.5284,17.5705 330.4744,15.8635 C329.6034,14.4525 328.6944,12.9965 327.7974,11.5575 C327.1274,10.4785 326.4754,9.4215 325.7904,8.3265 C324.2344,5.8415 322.6434,3.3195 321.0164,0.7635 L320.8174,0.7635 C321.4994,1.8365 322.1554,2.8845 322.8264,3.9485 C323.7654,5.4305 324.7184,6.9265 325.6304,8.3845 C326.8484,10.3295 328.0204,12.2275 329.1934,14.1215 C329.5654,14.7225 329.9574,15.3445 330.3254,15.9405 C331.5504,17.9245 332.7304,19.8545 333.9074,21.7755 C333.5534,22.0165 333.2854,22.3525 333.1514,22.7685 C332.9394,22.7105 332.7304,22.6535 332.5184,22.5955 C331.6094,22.3455 330.7124,22.0895 329.7924,21.8475 C329.0564,21.6535 328.3014,21.4715 327.5524,21.2855 C327.5734,21.3465 327.5944,21.4075 327.6154,21.4675 C328.3454,21.6485 329.0724,21.8315 329.7894,22.0195 C330.3814,22.1745 330.9584,22.3415 331.5464,22.5015 C332.0714,22.6435 332.5964,22.7875 333.1144,22.9345 L333.0324,23.3595 C333.0324,23.6845 333.1294,23.9765 333.2664,24.2455 C332.9874,24.4055 332.7004,24.5715 332.4174,24.7355 C331.7964,25.0965 331.1744,25.4415 330.5484,25.8145 C330.1234,26.0685 329.6974,26.3325 329.2714,26.5985 C329.2884,26.6535 329.3044,26.7095 329.3214,26.7645 C329.7144,26.5195 330.1054,26.2775 330.4964,26.0435 C331.1934,25.6255 331.8894,25.2355 332.5814,24.8325 C332.8424,24.6825 333.1024,24.5315 333.3634,24.3845 L333.6204,24.7495 C333.4524,24.9375 333.2814,25.1275 333.1144,25.3165 C332.6454,25.8475 332.1684,26.3695 331.6994,26.9095 C331.1484,27.5385 330.5974,28.1885 330.0464,28.8315 C330.0184,28.8645 329.9904,28.8965 329.9624,28.9295 C329.9804,28.9925 329.9984,29.0555 330.0154,29.1185 C330.6624,28.3595 331.3104,27.6025 331.9594,26.8615 C332.2724,26.5055 332.5854,26.1635 332.8984,25.8115 C333.1844,25.4875 333.4714,25.1655 333.7624,24.8455 C334.0974,25.1195 334.5104,25.3065 334.9794,25.3065 C335.3664,25.3065 335.7094,25.1645 336.0144,24.9675 C336.8304,26.1205 337.6484,27.2745 338.4494,28.4095 C341.9234,33.3415 345.2484,38.1075 348.4914,42.7535 C352.5684,48.5965 356.3694,54.0405 359.9814,59.1245 C360.2304,59.4755 360.4724,59.8115 360.7184,60.1565 C361.3664,61.0625 362.0144,61.9725 362.6474,62.8575 C363.4434,63.9645 364.2294,65.0475 365.0114,66.1195 L365.2384,66.4345 C365.9454,67.4075 366.6454,68.3575 367.3464,69.3025 C367.4984,69.5075 367.6514,69.7205 367.8034,69.9255 C368.2834,70.5715 368.7534,71.1975 369.2294,71.8285 C368.7944,72.1855 368.4964,72.7065 368.4964,73.3145 C368.4964,73.4935 368.5554,73.6555 368.6004,73.8195 L368.1124,73.9755 C367.2934,74.2395 366.4854,74.4885 365.6444,74.7715 C365.0264,74.9785 364.3784,75.2145 363.7494,75.4305 C362.7474,75.7795 361.7534,76.1185 360.7214,76.4865 C360.2304,76.6655 359.7204,76.8625 359.2174,77.0445 C358.0264,77.4835 356.8344,77.9195 355.6134,78.3845 C355.3304,78.4925 355.0324,78.6115 354.7504,78.7195 C353.2984,79.2775 351.8344,79.8425 350.3494,80.4305 C350.0964,80.5315 349.8354,80.6385 349.5854,80.7395 C348.0514,81.3495 346.5144,81.9675 344.9504,82.6035 C344.3994,82.8305 343.8374,83.0645 343.2784,83.2955 C342.0014,83.8205 340.7284,84.3445 339.4324,84.8845 C338.1674,85.4115 336.8884,85.9525 335.6114,86.4905 C335.5924,86.5635 335.5664,86.6345 335.5364,86.7025 C340.6354,84.5515 345.6364,82.4775 350.4604,80.5685 L350.8514,80.4155 C352.4904,79.7685 354.1134,79.1325 355.7104,78.5255 C356.1534,78.3585 356.5814,78.2055 357.0244,78.0385 C358.2904,77.5625 359.5644,77.0825 360.8004,76.6355 C361.3694,76.4305 361.9134,76.2485 362.4754,76.0515 C363.5594,75.6705 364.6464,75.2815 365.7004,74.9275 C366.3964,74.6935 367.0624,74.4905 367.7444,74.2685 C368.0414,74.1735 368.3394,74.0775 368.6304,73.9835 C368.8394,74.5405 369.2894,74.9595 369.8594,75.1415 C368.9434,78.4815 368.0194,81.8855 367.0704,85.3935 C366.6424,86.9715 366.2134,88.5605 365.7744,90.1785 C363.4364,98.8365 360.9414,108.0745 358.2494,117.7075 C356.2914,124.7165 354.2254,131.9465 352.0394,139.3085 C351.9764,139.5355 351.9124,139.7555 351.8424,139.9825 C351.5074,141.1095 351.1604,142.2525 350.8184,143.3905 C350.5724,144.2095 350.3264,145.0275 350.0774,145.8535 L349.6084,145.7565 C348.5804,145.7565 347.7614,146.5645 347.6864,147.5685 C346.6184,147.5465 345.5494,147.5275 344.4624,147.4455 C343.9374,147.4045 343.4014,147.3235 342.8764,147.2675 C341.8454,147.1665 340.8134,147.0735 339.7674,146.9215 C339.1234,146.8285 338.4644,146.6865 337.8134,146.5755 C336.8744,146.4155 335.9364,146.2735 334.9904,146.0765 C334.1794,145.9095 333.3564,145.6895 332.5404,145.4995 C331.7364,145.3065 330.9364,145.1425 330.1274,144.9275 C329.2754,144.7035 328.4114,144.4325 327.5554,144.1825 C326.9214,143.9975 326.2954,143.8295 325.6634,143.6415 C325.6534,143.6965 325.6404,143.7515 325.6244,143.8045 C326.3834,144.0315 327.1324,144.2355 327.8904,144.4545 C328.6234,144.6635 329.3684,144.8975 330.0984,145.0905 C331.0404,145.3405 331.9714,145.5405 332.9054,145.7565 C333.5904,145.9125 334.2834,146.0995 334.9644,146.2405 C335.9734,146.4525 336.9634,146.6055 337.9614,146.7725 C338.5574,146.8725 339.1604,147.0035 339.7524,147.0885 C340.7764,147.2375 341.7814,147.3265 342.7874,147.4275 C343.3414,147.4825 343.9044,147.5685 344.4554,147.6135 C345.5384,147.6955 346.5994,147.7135 347.6644,147.7365 C347.6754,148.3725 348.0074,148.9085 348.4874,149.2545 C348.0074,149.9875 347.5234,150.7165 347.0424,151.4425 C346.4504,152.3385 345.8584,153.2495 345.2704,154.1355 C344.7564,154.9055 344.2394,155.6535 343.7294,156.4165 C343.6534,156.4825 343.5774,156.5485 343.5014,156.6155 L343.7984,156.6155 C343.8534,156.5335 343.9084,156.4525 343.9634,156.3715 C346.6594,154.0165 349.2614,151.6205 351.7634,149.1875 C352.0174,149.3475 352.2854,149.5375 352.5384,149.6895 C352.7354,149.8045 352.9254,149.8905 353.1194,150.0015 C352.0504,151.2925 350.9374,152.5805 349.8354,153.8635 C349.0484,154.7805 348.2754,155.7005 347.4784,156.6155 L347.7104,156.6155 C348.5844,155.6165 349.4154,154.6125 350.2704,153.6075 C351.2764,152.4355 352.3004,151.2635 353.2754,150.0835 C353.9824,150.4855 354.6904,150.8835 355.3794,151.2145 C355.6624,151.3525 355.9374,151.4495 356.2204,151.5725 C356.8534,151.8585 357.4904,152.1485 358.1044,152.3715 C358.3134,152.4505 358.5144,152.4945 358.7264,152.5655 C358.2564,153.9145 357.7834,155.2645 357.3094,156.6155 L357.4894,156.6155 C357.9564,155.2805 358.4224,153.9465 358.8864,152.6135 L358.9384,152.6285 L358.8414,153.1015 C358.8414,153.7225 359.1544,154.2505 359.6084,154.6085 C359.4374,154.8465 359.2624,155.0875 359.0914,155.3265 C358.7834,155.7555 358.4774,156.1855 358.1714,156.6155 L358.3714,156.6155 C358.4414,156.5175 358.5104,156.4205 358.5814,156.3235 C358.9684,155.7835 359.3664,155.2475 359.7504,154.7045 L359.9514,154.8385 C359.6954,155.4345 359.4384,156.0235 359.1844,156.6155 L359.3664,156.6155 C359.6124,156.0485 359.8584,155.4835 360.1044,154.9095 L360.3424,154.9575 C360.2354,155.5125 360.1274,156.0665 360.0194,156.6155 L360.1874,156.6155 C360.2934,156.0775 360.3994,155.5365 360.5064,154.9915 L360.7924,155.0475 C361.8684,155.0475 362.7404,154.1765 362.7404,153.1015 C362.7404,152.8255 362.6804,152.5615 362.5764,152.3235 C362.7924,152.2115 363.0154,152.1185 363.2314,152.0035 C363.7824,151.7055 364.3184,151.3785 364.8584,151.0555 C365.0854,150.9175 365.3204,150.7945 365.5434,150.6535 C366.0984,150.2995 366.6344,149.9165 367.1744,149.5375 C367.3754,149.3915 367.5834,149.2615 367.7854,149.1165 C368.1764,148.8265 368.5514,148.5065 368.9354,148.2015 C369.1624,148.7625 369.3934,149.2985 369.6274,149.8085 C369.0254,150.1395 368.5964,150.7575 368.5964,151.4935 C368.5964,152.2265 369.0204,152.8445 369.6204,153.1755 C369.0604,154.3225 368.5014,155.4715 367.9274,156.6155 L368.1064,156.6155 C368.4104,156.0035 368.7094,155.3905 369.0134,154.7795 C369.2634,154.2765 369.5204,153.7745 369.7654,153.2725 L370.1084,153.3505 C369.9294,154.2845 369.7544,155.2145 369.5754,156.1485 C369.5464,156.3035 369.5154,156.4595 369.4844,156.6155 L369.6554,156.6155 C369.8624,155.5365 370.0674,154.4605 370.2724,153.3875 L370.5474,153.4435 C371.6234,153.4435 372.4954,152.5695 372.4954,151.4935 C372.4954,150.9055 372.2194,150.3925 371.8024,150.0355 C372.1564,149.5855 372.5174,149.1505 372.8594,148.6815 C373.1094,148.3385 373.3474,147.9705 373.5934,147.6205 C374.0624,146.9475 374.5354,146.2775 374.9894,145.5665 C375.2654,145.1355 375.5334,144.6705 375.8044,144.2235 C376.2064,143.5655 376.6094,142.9025 376.9964,142.2145 C377.2754,141.7195 377.5394,141.1995 377.8114,140.6895 C378.1724,140.0085 378.5344,139.3315 378.8804,138.6245 C379.1524,138.0775 379.4094,137.5085 379.6694,136.9425 C379.9974,136.2355 380.3254,135.5285 380.6414,134.7955 C380.8944,134.2045 381.1444,133.5975 381.3894,132.9875 L381.5574,132.5825 C381.7694,132.1805 381.9814,131.7745 382.1904,131.3655 C382.3574,131.0345 382.5254,130.6995 382.6894,130.3645 C382.9644,129.7995 383.2294,129.2265 383.4894,128.6455 L383.5304,128.5675 C383.4074,129.0625 383.2964,129.5605 383.1734,130.0555 C382.8084,131.5215 382.4174,132.9805 382.0264,134.4385 C381.7024,135.6555 381.3864,136.8715 381.0474,138.0855 C380.6264,139.5735 380.1794,141.0505 379.7364,142.5345 C379.3874,143.7025 379.0484,144.8715 378.6834,146.0355 C378.5414,146.4825 378.3854,146.9285 378.2434,147.3755 C378.0014,148.0045 377.7594,148.6325 377.5104,149.2615 C377.1264,150.2255 376.7324,151.1845 376.3334,152.1485 C375.9944,152.9675 375.6564,153.7855 375.3094,154.6045 C375.0224,155.2735 374.7294,155.9445 374.4344,156.6155 L374.6184,156.6155 C374.8024,156.1895 374.9854,155.7635 375.1684,155.3375 C375.4034,154.7975 375.6484,154.2615 375.8754,153.7225 C376.3854,152.5095 376.8664,151.2965 377.3574,150.0835 C377.2904,150.2845 377.2234,150.4815 377.1604,150.6825 C376.8024,151.7545 376.4604,152.8375 376.0874,153.9085 C375.7724,154.8125 375.4484,155.7145 375.1204,156.6155 L375.2864,156.6155 C375.3174,156.5275 375.3494,156.4405 375.3804,156.3535 C375.7304,155.3675 376.1024,154.3925 376.4414,153.4025 C377.1044,151.4795 377.7264,149.5375 378.3444,147.5985 C378.5084,147.1785 378.6604,146.7575 378.8204,146.3405 C379.2564,145.1985 379.6954,144.0635 380.1054,142.9255 C380.3804,142.1775 380.6264,141.4295 380.8874,140.6855 C381.2594,139.6295 381.6354,138.5725 381.9854,137.5195 C382.2464,136.7415 382.4804,135.9715 382.7264,135.1935 C383.0544,134.1705 383.3924,133.1445 383.7024,132.1205 C383.9404,131.3315 384.1564,130.5465 384.3834,129.7615 C384.6774,128.7535 384.9754,127.7455 385.2504,126.7405 C385.4634,125.9525 385.6564,125.1675 385.8614,124.3785 C386.0324,123.7155 386.2154,123.0465 386.3794,122.3845 L386.4424,122.4025 L386.8594,122.2205 L386.9634,122.0905 L387.0564,121.9745 L387.1724,122.0005 C386.9184,123.3295 386.6694,124.6615 386.3864,125.9785 C386.2224,126.7405 386.0364,127.4925 385.8654,128.2475 C385.5974,129.4195 385.3404,130.5915 385.0534,131.7485 C384.8374,132.6155 384.5994,133.4715 384.3724,134.3305 C384.0964,135.3685 383.8354,136.4105 383.5454,137.4375 C383.2924,138.3305 383.0174,139.2125 382.7524,140.0975 C382.4584,141.0765 382.1754,142.0625 381.8664,143.0365 C381.5804,143.9375 381.2704,144.8265 380.9694,145.7195 C380.6524,146.6605 380.3514,147.6055 380.0194,148.5395 C379.7034,149.4365 379.3604,150.3225 379.0294,151.2115 C378.6864,152.1225 378.3594,153.0415 378.0054,153.9455 C377.6594,154.8275 377.2904,155.6945 376.9334,156.5685 C376.9264,156.5845 376.9204,156.5995 376.9134,156.6155 L377.0574,156.6155 C377.1134,156.4795 377.1684,156.3435 377.2234,156.2075 C377.9574,154.4105 378.6644,152.6025 379.3384,150.7795 C379.5244,150.2735 379.7214,149.7745 379.9004,149.2685 C380.7154,147.0035 381.4864,144.7225 382.2124,142.4155 C382.3724,141.9055 382.5184,141.3925 382.6704,140.8825 C383.2364,139.0265 383.7764,137.1585 384.2824,135.2795 C384.3644,134.9785 384.4614,134.6845 384.5394,134.3825 L384.4684,134.6875 C383.9254,136.9125 383.3594,139.0965 382.7714,141.2325 C382.6554,141.6495 382.5364,142.0585 382.4214,142.4715 C381.7994,144.6665 381.1594,146.8285 380.4814,148.9265 L380.3584,149.3025 C379.6954,151.3415 379.0074,153.3245 378.2994,155.2745 C378.1804,155.6015 378.0614,155.9325 377.9424,156.2525 C377.8974,156.3735 377.8514,156.4945 377.8064,156.6155 L377.9904,156.6155 C378.0794,156.3665 378.1674,156.1145 378.2584,155.8695 C378.6384,154.8465 379.0144,153.8225 379.3754,152.7735 C379.4984,152.4165 379.6134,152.0485 379.7364,151.6875 C380.0934,150.6345 380.4514,149.5855 380.7944,148.5105 C380.8794,148.2345 380.9614,147.9485 381.0474,147.6725 C381.4164,146.4975 381.7804,145.3175 382.1344,144.1125 C382.2094,143.8625 382.2764,143.5985 382.3464,143.3495 C382.7044,142.1065 383.0574,140.8565 383.4004,139.5875 C383.4634,139.3535 383.5194,139.1115 383.5824,138.8775 C383.9254,137.5715 384.2644,136.2585 384.5914,134.9225 L384.6964,134.4685 C385.0424,133.0395 385.3814,131.6005 385.7054,130.1335 L385.8134,129.6245 C386.1334,128.1695 386.4464,126.6995 386.7474,125.2085 L386.7814,125.0215 C386.9784,124.0355 387.1644,123.0355 387.3504,122.0345 L387.6264,122.0905 C388.7024,122.0905 389.5734,121.2195 389.5734,120.1445 C389.5734,119.4005 389.1414,118.7715 388.5274,118.4445 C388.7434,118.0275 388.9404,117.5695 389.1154,117.0565 C389.5254,116.6995 389.7974,116.1895 389.7974,115.6055 C389.7974,115.3925 389.7374,115.1955 389.6704,115.0025 C390.6834,110.3925 390.8204,103.5655 390.9624,96.4665 C390.9774,95.7255 390.9954,94.9745 391.0104,94.2265 C391.9644,94.0995 392.7084,93.3155 392.7084,92.3295 C392.7084,91.3805 392.0124,90.6255 391.1114,90.4535 C391.1184,90.2675 391.1224,90.0815 391.1304,89.8955 C392.1984,89.8845 393.0624,89.0175 393.0624,87.9495 C393.0624,86.9305 392.2654,86.1195 391.2634,86.0375 C391.3574,83.4145 391.4164,81.1525 391.4244,79.2885 C392.1794,79.0165 392.7234,78.3175 392.7234,77.4725 C392.7234,77.2015 392.6674,76.9405 392.5674,76.7065 C392.9764,76.3495 393.2524,75.8395 393.2524,75.2515 L393.1704,74.8425 L393.1924,74.7235 L393.1814,74.6635 L393.2334,74.4125 C393.2334,73.3375 392.3584,72.4655 391.2824,72.4655 L391.0554,72.5115 L391.0664,72.1355 C392.0454,72.0325 392.8164,71.2345 392.8164,70.2285 C392.8164,69.4675 392.3694,68.8245 391.7324,68.5045 C392.3804,68.1885 392.8384,67.5365 392.8384,66.7665 C392.8384,66.4085 392.7164,66.0925 392.5484,65.8045 L392.5894,65.5895 C392.5894,64.8725 392.1834,64.2715 391.6064,63.9345 L391.6364,63.7935 C391.6364,63.2995 391.4394,62.8625 391.1334,62.5195 C391.9264,62.2715 392.5144,61.5605 392.5144,60.6865 C392.5144,59.7545 391.8444,59.0115 390.9664,58.8205 C391.7144,58.5475 392.2504,57.8465 392.2504,57.0075 C392.2504,56.7295 392.1874,56.4685 392.0834,56.2285 C391.9824,55.8905 391.8184,55.5885 391.5694,55.3525 C391.3724,54.7895 390.9284,54.3595 390.3634,54.1665 L390.3554,54.0825 C390.9064,53.7385 391.2894,53.1555 391.2894,52.4585 C391.2894,51.6275 390.7614,50.9275 390.0244,50.6495 C389.8384,49.0015 389.5844,47.4375 389.2944,45.9405 L389.2164,45.5355 C389.0894,44.9115 388.9484,44.3125 388.7994,43.7265 L388.7244,43.4265 C388.6724,43.0805 388.6124,42.7345 388.5574,42.3885 C388.2034,40.1745 387.8124,37.9575 387.3804,35.7375 C387.2834,35.2425 387.1754,34.7495 387.0784,34.2535 C386.8964,33.3545 386.7254,32.4555 386.5274,31.5565 C386.2974,30.4905 386.0434,29.4245 385.7944,28.3575 C385.6934,27.9165 385.5974,27.4755 385.4924,27.0335 C385.3624,26.4875 385.2214,25.9425 385.0834,25.3965 C385.3584,25.0615 385.5454,24.6505 385.5454,24.1845 C385.5454,23.3655 385.0354,22.6695 384.3194,22.3815 C384.1634,21.7905 383.9994,21.1975 383.8354,20.6055 C383.6464,19.9055 383.4484,19.2075 383.2514,18.5085 C382.6594,16.4165 382.0454,14.3265 381.3824,12.2375 C381.2034,11.6695 381.0064,11.1015 380.8234,10.5345 C380.2724,8.8395 379.6994,7.1465 379.1074,5.4555 C378.8474,4.7155 378.5894,3.9775 378.3224,3.2395 C378.0224,2.4135 377.7184,1.5885 377.4074,0.7635 Z" id="Fill-68" fill="#FFFFFF" fill-rule="nonzero" mask="url(#mask-4)"></path>
                                        </g>
                                    </g>
                                </g>
                            </g>
                        </g>
                    </g>
                </g>
            </g>
        </g>
    </g>
</svg>