<?xml version="1.0" encoding="UTF-8"?>
<svg width="48px" height="49px" viewBox="0 0 48 49" version="1.1" xmlns="http://www.w3.org/2000/svg" xmlns:xlink="http://www.w3.org/1999/xlink">
    <!-- Generator: Sketch 48 (47235) - http://www.bohemiancoding.com/sketch -->
    <title>Page 1</title>
    <desc>Created with Sketch.</desc>
    <defs>
        <polygon id="path-1" points="0.9851 0.448 18.3471 0.448 18.3471 4.77485 0.9851 4.77485"></polygon>
    </defs>
    <g id="Page-1" stroke="none" stroke-width="1" fill="none" fill-rule="evenodd">
        <g transform="translate(0.000000, -1.000000)">
            <path d="M44.409,49.0591 L2.923,49.0591 C1.586,49.0591 0.493,47.9651 0.493,46.6291 L0.493,20.4841 C0.493,19.1481 1.586,18.0551 2.923,18.0551 L44.409,18.0551 C45.745,18.0551 46.839,19.1481 46.839,20.4841 L46.839,46.6291 C46.839,47.9651 45.745,49.0591 44.409,49.0591 Z M25.613,37.4901 L4.4,37.4901 C3.715,37.4901 3.155,36.9301 3.155,36.2461 L3.155,22.8321 C3.155,22.1481 3.715,21.5881 4.4,21.5881 L25.613,21.5881 C26.298,21.5881 26.858,22.1481 26.858,22.8321 L26.858,36.2461 C26.858,36.9301 26.298,37.4901 25.613,37.4901 Z M5.834,24.3821 L16.681,24.3821 L5.834,24.3821 Z M5.834,26.8471 L11.258,26.8471 L5.834,26.8471 Z M5.834,29.3121 L16.681,29.3121 L5.834,29.3121 Z" id="Stroke-1" stroke="#FFFFFF" stroke-width="0.986"></path>
            <path d="M6.7053,45.0073 L4.1413,45.0073 C3.5993,45.0073 3.1553,44.5643 3.1553,44.0213 L3.1553,43.1993 C3.1553,42.6573 3.5993,42.2133 4.1413,42.2133 L6.7053,42.2133 C7.2473,42.2133 7.6913,42.6573 7.6913,43.1993 L7.6913,44.0213 C7.6913,44.5643 7.2473,45.0073 6.7053,45.0073" id="Fill-3" fill="#FFFFFF"></path>
            <path d="M13.46,45.0073 L10.896,45.0073 C10.354,45.0073 9.91,44.5643 9.91,44.0213 L9.91,43.1993 C9.91,42.6573 10.354,42.2133 10.896,42.2133 L13.46,42.2133 C14.002,42.2133 14.446,42.6573 14.446,43.1993 L14.446,44.0213 C14.446,44.5643 14.002,45.0073 13.46,45.0073" id="Fill-5" fill="#FFFFFF"></path>
            <path d="M43.3513,45.0073 L30.0073,45.0073 C29.5003,45.0073 29.0893,44.5963 29.0893,44.0883 L29.0893,43.1323 C29.0893,42.6253 29.5003,42.2133 30.0073,42.2133 L43.3513,42.2133 C43.8583,42.2133 44.2703,42.6253 44.2703,43.1323 L44.2703,44.0883 C44.2703,44.5963 43.8583,45.0073 43.3513,45.0073" id="Fill-7" fill="#FFFFFF"></path>
            <path d="M43.3513,40.8989 L30.0073,40.8989 C29.5003,40.8989 29.0893,40.4869 29.0893,39.9799 L29.0893,39.0239 C29.0893,38.5159 29.5003,38.1049 30.0073,38.1049 L43.3513,38.1049 C43.8583,38.1049 44.2703,38.5159 44.2703,39.0239 L44.2703,39.9799 C44.2703,40.4869 43.8583,40.8989 43.3513,40.8989" id="Fill-9" fill="#FFFFFF"></path>
            <path d="M35.0442,24.3819 C35.0442,25.6529 34.0142,26.6829 32.7432,26.6829 C31.4722,26.6829 30.4422,25.6529 30.4422,24.3819 C30.4422,23.1109 31.4722,22.0809 32.7432,22.0809 C34.0142,22.0809 35.0442,23.1109 35.0442,24.3819 Z M42.9162,24.3819 C42.9162,25.6529 41.8862,26.6829 40.6152,26.6829 C39.3452,26.6829 38.3152,25.6529 38.3152,24.3819 C38.3152,23.1109 39.3452,22.0809 40.6152,22.0809 C41.8862,22.0809 42.9162,23.1109 42.9162,24.3819 Z M35.0442,31.2559 C35.0442,32.5269 34.0142,33.5569 32.7432,33.5569 C31.4722,33.5569 30.4422,32.5269 30.4422,31.2559 C30.4422,29.9859 31.4722,28.9549 32.7432,28.9549 C34.0142,28.9549 35.0442,29.9859 35.0442,31.2559 Z M42.9162,31.2559 C42.9162,32.5269 41.8862,33.5569 40.6152,33.5569 C39.3452,33.5569 38.3152,32.5269 38.3152,31.2559 C38.3152,29.9859 39.3452,28.9549 40.6152,28.9549 C41.8862,28.9549 42.9162,29.9859 42.9162,31.2559 Z" id="Stroke-11" stroke="#FFFFFF" stroke-width="0.986"></path>
            <g id="Group-15" transform="translate(14.000000, 0.552100)">
                <mask id="mask-2" fill="white">
                    <use xlink:href="#path-1"></use>
                </mask>
                <g id="Clip-14"></g>
                <path d="M18.2106,3.9811 C13.4886,-0.7299 5.8436,-0.7299 1.1216,3.9811 C0.9396,4.1631 0.9396,4.4571 1.1216,4.6391 C1.3026,4.8201 1.5976,4.8201 1.7786,4.6391 C6.1386,0.2911 13.1936,0.2911 17.5526,4.6391 C17.7346,4.8201 18.0286,4.8201 18.2106,4.6391 C18.3926,4.4571 18.3926,4.1631 18.2106,3.9811" id="Fill-13" fill="#FFFFFF" mask="url(#mask-2)"></path>
            </g>
            <path d="M23.666,4.48 C21.385,4.474 19.195,5.381 17.587,6.999 C17.405,7.18 17.405,7.475 17.587,7.656 C17.769,7.838 18.063,7.838 18.245,7.656 C21.239,4.662 26.095,4.662 29.09,7.656 C29.271,7.838 29.566,7.838 29.747,7.656 C29.929,7.475 29.929,7.18 29.747,6.999 C28.138,5.38 25.948,4.473 23.666,4.48" id="Fill-16" fill="#FFFFFF"></path>
            <path d="M20.0502,9.4619 C19.8682,9.6439 19.8682,9.9379 20.0502,10.1199 C20.2322,10.3009 20.5262,10.3009 20.7082,10.1199 C22.3412,8.4859 24.9892,8.4849 26.6232,10.1189 C26.6232,10.1189 26.6242,10.1189 26.6242,10.1199 C26.8062,10.3009 27.1002,10.3009 27.2822,10.1199 C27.4632,9.9379 27.4632,9.6439 27.2822,9.4619 C25.2862,7.4649 22.0492,7.4639 20.0522,9.4609 C20.0512,9.4609 20.0512,9.4619 20.0502,9.4619" id="Fill-18" fill="#FFFFFF"></path>
            <path d="M23.666,11.916 C23.024,11.917 22.505,12.438 22.506,13.08 C22.507,13.722 23.028,14.241 23.67,14.24 C24.312,14.239 24.831,13.717 24.83,13.076 C24.829,12.768 24.707,12.473 24.489,12.255 C24.27,12.038 23.974,11.916 23.666,11.916 M23.831,13.243 C23.741,13.334 23.593,13.334 23.502,13.244 C23.411,13.154 23.411,13.007 23.501,12.916 C23.591,12.824 23.739,12.824 23.83,12.914 C23.873,12.958 23.898,13.016 23.898,13.078 C23.899,13.14 23.874,13.199 23.831,13.243" id="Fill-20" fill="#FFFFFF"></path>
        </g>
    </g>
</svg>